<svg width="676" height="546" viewBox="0 0 676 546" fill="none" xmlns="http://www.w3.org/2000/svg">
<rect x="68" width="533" height="546" rx="266.5" fill="#087DF9"/>
<path d="M36.2527 370.058C36.2527 370.058 3.24469 244.264 37.1412 177.36C71.0378 110.455 148.652 70.3005 226.267 70.3005C303.881 70.3005 303.881 94.4434 362.761 116.655C421.64 138.866 463.543 87.2585 531.374 97.9586C599.206 108.659 651.809 137.215 654.484 194.308C657.159 251.401 627.714 281.734 624.151 315.64C620.587 349.546 651.809 362.96 643.784 411.091C635.759 459.223 615.227 464.621 615.227 464.621H21.9795C21.9795 464.621 1.45807 438.75 21.0814 411.091C40.7047 383.433 36.2527 370.058 36.2527 370.058Z" fill="#087DF9"/>
<path opacity="0.7" d="M36.2527 370.058C36.2527 370.058 3.24469 244.264 37.1412 177.36C71.0378 110.455 148.652 70.3005 226.267 70.3005C303.881 70.3005 303.881 94.4434 362.761 116.655C421.64 138.866 463.543 87.2585 531.374 97.9586C599.206 108.659 651.809 137.215 654.484 194.308C657.159 251.401 627.714 281.734 624.151 315.64C620.587 349.546 651.809 362.96 643.784 411.091C635.759 459.223 615.227 464.621 615.227 464.621H21.9795C21.9795 464.621 1.45807 438.75 21.0814 411.091C40.7047 383.433 36.2527 370.058 36.2527 370.058Z" fill="white"/>
<path d="M222.723 104.216V94.3079" stroke="#263238" stroke-width="0.965714" stroke-linecap="round" stroke-linejoin="round"/>
<path d="M222.723 463.974V112.917" stroke="#263238" stroke-width="0.965714" stroke-linecap="round" stroke-linejoin="round"/>
<path d="M168.034 109.383H211.491V178.914H168.034V109.383Z" stroke="#263238" stroke-width="0.965714" stroke-linecap="round" stroke-linejoin="round"/>
<path d="M171.656 115.177H207.87V173.12H171.656V115.177Z" stroke="#263238" stroke-width="0.965714" stroke-linecap="round" stroke-linejoin="round"/>
<path d="M181.912 131.594H197.604V156.703H181.912V131.594Z" stroke="#263238" stroke-width="0.965714" stroke-linecap="round" stroke-linejoin="round"/>
<path d="M96.5716 168.388C96.5716 168.388 111.82 159.919 112.989 179.107C114.157 198.296 116.852 414.809 116.852 414.809" stroke="#263238" stroke-width="1.93143" stroke-linecap="round" stroke-linejoin="round"/>
<path d="M120.85 180.846C120.85 180.846 108.421 300.266 114.09 413.168" stroke="#263238" stroke-width="1.93143" stroke-linecap="round" stroke-linejoin="round"/>
<path d="M108.633 172.251C108.633 172.251 114.427 175.978 117.788 171.71C121.149 167.441 115.538 159.6 120.444 156.258C125.35 152.917 133.809 158.026 133.809 158.026C133.809 158.026 127.291 159.957 127.503 163.492C127.716 167.026 130.845 168.397 131.269 166.843C131.694 165.288 134.794 157.456 140.086 160.71C141.613 161.611 142.94 162.813 143.987 164.242C145.035 165.671 145.781 167.299 146.18 169.025C146.18 169.025 133.867 167.712 133.124 172.338C132.38 176.963 138.174 171.536 143.254 171.237C148.334 170.937 152.969 171.681 152.641 174.762C152.525 177.481 152.686 180.206 153.124 182.893C153.124 182.893 148.816 179.03 143.225 179.397C137.633 179.764 137.846 183.26 142.926 182.98C148.005 182.7 152.37 187.528 152.37 187.528C152.37 187.528 147.745 195.447 141.854 199.368C135.963 203.289 133.838 201.879 133.162 198.856C132.486 195.833 134.06 188.098 130.507 188.311C126.953 188.523 136.397 201.724 131.849 202.507C127.3 203.289 123.66 201.966 122.462 198.982L121.265 195.988C121.265 195.988 122.848 188.262 122.163 185.23C121.477 182.198 120.637 185.317 119.826 188.938C119.015 192.56 118.512 201.251 116.929 200.836C115.345 200.421 110.42 194.076 109.203 191.594C107.986 189.112 115.741 181.522 115.654 180.005C115.567 178.489 109.618 181.386 108.691 182.97C108.019 184.164 107.41 185.392 106.866 186.649C106.866 186.649 103.157 184.312 103.244 177.166C103.331 170.02 108.633 172.251 108.633 172.251Z" fill="#087DF9"/>
<path opacity="0.3" d="M108.633 172.251C108.633 172.251 114.427 175.978 117.788 171.71C121.149 167.441 115.538 159.6 120.444 156.258C125.35 152.917 133.809 158.026 133.809 158.026C133.809 158.026 127.291 159.957 127.503 163.492C127.716 167.026 130.845 168.397 131.269 166.843C131.694 165.288 134.794 157.456 140.086 160.71C141.613 161.611 142.94 162.813 143.987 164.242C145.035 165.671 145.781 167.299 146.18 169.025C146.18 169.025 133.867 167.712 133.124 172.338C132.38 176.963 138.174 171.536 143.254 171.237C148.334 170.937 152.969 171.681 152.641 174.762C152.525 177.481 152.686 180.206 153.124 182.893C153.124 182.893 148.816 179.03 143.225 179.397C137.633 179.764 137.846 183.26 142.926 182.98C148.005 182.7 152.37 187.528 152.37 187.528C152.37 187.528 147.745 195.447 141.854 199.368C135.963 203.289 133.838 201.879 133.162 198.856C132.486 195.833 134.06 188.098 130.507 188.311C126.953 188.523 136.397 201.724 131.849 202.507C127.3 203.289 123.66 201.966 122.462 198.982L121.265 195.988C121.265 195.988 122.848 188.262 122.163 185.23C121.477 182.198 120.637 185.317 119.826 188.938C119.015 192.56 118.512 201.251 116.929 200.836C115.345 200.421 110.42 194.076 109.203 191.594C107.986 189.112 115.741 181.522 115.654 180.005C115.567 178.489 109.618 181.386 108.691 182.97C108.019 184.164 107.41 185.392 106.866 186.649C106.866 186.649 103.157 184.312 103.244 177.166C103.331 170.02 108.633 172.251 108.633 172.251Z" fill="#263238"/>
<path d="M138.194 188.997C134.389 184.303 128.788 177.939 124.094 174.907" stroke="#263238" stroke-width="0.965714" stroke-linecap="round" stroke-linejoin="round"/>
<path d="M142.598 194.723C142.598 194.723 141.632 193.361 140.039 191.333" stroke="#263238" stroke-width="0.965714" stroke-linecap="round" stroke-linejoin="round"/>
<path d="M121.613 176.075C121.613 176.075 115.963 184.052 114.92 192.27" stroke="#263238" stroke-width="0.965714" stroke-linecap="round" stroke-linejoin="round"/>
<path d="M128.006 180.846C128.006 180.846 126.422 179.88 127.04 190.078" stroke="#263238" stroke-width="0.965714" stroke-linecap="round" stroke-linejoin="round"/>
<path d="M123.882 171.343C123.882 171.343 120.657 168.446 122.356 162.768" stroke="#263238" stroke-width="0.965714" stroke-linecap="round" stroke-linejoin="round"/>
<path d="M128.247 176.191L130.545 171.971" stroke="#263238" stroke-width="0.965714" stroke-linecap="round" stroke-linejoin="round"/>
<path d="M133.095 180.498C133.095 180.498 140.415 174.964 144.993 174.704" stroke="#263238" stroke-width="0.965714" stroke-linecap="round" stroke-linejoin="round"/>
<path d="M87.8801 157.186C87.8801 157.186 88.1119 165.568 94.6401 165.974C101.168 166.379 105.263 155.476 111.926 158.103C118.59 160.73 119.275 172.685 119.275 172.685C119.275 172.685 112.911 167.461 109.493 170.097C106.074 172.734 106.876 176.79 108.711 176.152C110.545 175.515 120.512 173.255 120.859 180.797C120.998 182.939 120.701 185.087 119.986 187.11C119.27 189.134 118.151 190.991 116.697 192.569C116.697 192.569 109.618 179.349 104.471 181.753C99.3238 184.158 108.72 186.263 112.486 191.15C116.253 196.036 118.657 201.184 115.384 202.951C112.11 204.718 107.571 208.967 107.571 208.967C107.571 208.967 108.431 202.091 104.297 196.683C100.164 191.275 96.7357 193.941 100.502 198.827C104.268 203.714 102.433 211.382 102.433 211.382C102.433 211.382 91.3374 212.144 83.4089 208.919C75.4803 205.694 75.4321 202.613 77.9815 199.861C80.531 197.108 89.3673 193.429 86.7309 190.01C84.0945 186.592 77.2573 205.056 73.3944 201.039C69.5315 197.021 68.3534 192.463 70.4973 189.228L72.6798 185.993C72.6798 185.993 81.5064 182.304 84.0655 179.561C86.6247 176.819 82.9357 178.093 78.7638 179.754C74.5919 181.415 65.5335 186.833 64.8961 184.989C64.2588 183.144 67.2138 173.864 68.9038 170.995C70.5938 168.127 83.4571 170.686 84.9154 169.556C86.3736 168.427 79.4205 164.448 77.1897 164.602C75.5376 164.744 73.8938 164.97 72.2645 165.278C72.2645 165.278 72.0714 159.986 79.2852 155.196C86.4991 150.406 87.8801 157.186 87.8801 157.186Z" fill="#087DF9"/>
<path opacity="0.2" d="M87.8801 157.186C87.8801 157.186 88.1119 165.568 94.6401 165.974C101.168 166.379 105.263 155.476 111.926 158.103C118.59 160.73 119.275 172.685 119.275 172.685C119.275 172.685 112.911 167.461 109.493 170.097C106.074 172.734 106.876 176.79 108.711 176.152C110.545 175.515 120.512 173.255 120.859 180.797C120.998 182.939 120.701 185.087 119.986 187.11C119.27 189.134 118.151 190.991 116.697 192.569C116.697 192.569 109.618 179.349 104.471 181.753C99.3238 184.158 108.72 186.263 112.486 191.15C116.253 196.036 118.657 201.184 115.384 202.951C112.11 204.718 107.571 208.967 107.571 208.967C107.571 208.967 108.431 202.091 104.297 196.683C100.164 191.275 96.7357 193.941 100.502 198.827C104.268 203.714 102.433 211.382 102.433 211.382C102.433 211.382 91.3374 212.144 83.4089 208.919C75.4803 205.694 75.4321 202.613 77.9815 199.861C80.531 197.108 89.3673 193.429 86.7309 190.01C84.0945 186.592 77.2573 205.056 73.3944 201.039C69.5315 197.021 68.3534 192.463 70.4973 189.228L72.6798 185.993C72.6798 185.993 81.5064 182.304 84.0655 179.561C86.6247 176.819 82.9357 178.093 78.7638 179.754C74.5919 181.415 65.5335 186.833 64.8961 184.989C64.2588 183.144 67.2138 173.864 68.9038 170.995C70.5938 168.127 83.4571 170.686 84.9154 169.556C86.3736 168.427 79.4205 164.448 77.1897 164.602C75.5376 164.744 73.8938 164.97 72.2645 165.278C72.2645 165.278 72.0714 159.986 79.2852 155.196C86.4991 150.406 87.8801 157.186 87.8801 157.186Z" fill="#263238"/>
<path d="M91.231 198.229C93.3459 191.217 95.8954 181.271 95.7312 174.501" stroke="#263238" stroke-width="0.965714" stroke-linecap="round" stroke-linejoin="round"/>
<path d="M88.5078 206.505C88.5078 206.505 89.2031 204.573 90.1592 201.676" stroke="#263238" stroke-width="0.965714" stroke-linecap="round" stroke-linejoin="round"/>
<path d="M92.8726 172.782C92.8726 172.782 81.0329 172.57 72.0904 177.128" stroke="#263238" stroke-width="0.965714" stroke-linecap="round" stroke-linejoin="round"/>
<path d="M92.5059 182.41C92.5059 182.41 92.3514 180.189 82.588 187.712" stroke="#263238" stroke-width="0.965714" stroke-linecap="round" stroke-linejoin="round"/>
<path d="M99.1503 171.836C99.1503 171.836 99.8263 166.65 106.702 164.458" stroke="#263238" stroke-width="0.965714" stroke-linecap="round" stroke-linejoin="round"/>
<path d="M97.2765 179.503L103.071 178.934" stroke="#263238" stroke-width="0.965714" stroke-linecap="round" stroke-linejoin="round"/>
<path d="M96.2721 187.287C96.2721 187.287 106.798 190.85 110.188 195.244" stroke="#263238" stroke-width="0.965714" stroke-linecap="round" stroke-linejoin="round"/>
<path d="M158.097 212.975C158.097 212.975 124.79 326.756 125.35 411.989" stroke="#263238" stroke-width="1.93143" stroke-linecap="round" stroke-linejoin="round"/>
<path d="M117.035 207.161C117.035 207.161 118.087 216.818 125.678 216.664C133.269 216.509 136.909 203.549 144.857 205.954C152.805 208.359 154.707 222.081 154.707 222.081C154.707 222.081 146.875 216.654 143.177 220.025C139.478 223.395 140.782 227.992 142.848 227.084C144.915 226.176 156.195 222.651 157.334 231.294C157.694 233.754 157.552 236.261 156.916 238.665C156.28 241.068 155.164 243.318 153.635 245.278C153.635 245.278 144.22 230.676 138.503 233.95C132.786 237.224 143.843 238.779 148.643 244.032C153.442 249.286 156.716 255.022 153.066 257.378C149.415 259.735 144.616 265.104 144.616 265.104C144.616 265.104 145.002 257.031 139.719 251.227C134.437 245.423 130.738 248.784 135.538 254.066C140.338 259.348 138.908 268.368 138.908 268.368C138.908 268.368 126.18 270.3 116.697 267.325C107.214 264.351 106.904 260.797 109.589 257.388C112.274 253.979 122.143 248.88 118.754 245.181C115.364 241.483 109.309 263.433 104.452 259.165C99.594 254.896 97.8171 249.759 100.029 245.819L102.24 241.879C102.24 241.879 112.081 236.78 114.794 233.371C117.508 229.962 113.355 231.787 108.701 234.095C104.046 236.403 94.0991 243.511 93.1914 241.454C92.2836 239.397 94.8137 228.388 96.4941 224.93C98.1744 221.473 113.249 223.192 114.843 221.753C116.436 220.314 108.025 216.374 105.485 216.76C103.591 217.08 101.715 217.499 99.8644 218.016C99.8644 218.016 99.1402 211.913 107.011 205.713C114.881 199.513 117.035 207.161 117.035 207.161Z" fill="#087DF9"/>
<path opacity="0.3" d="M117.035 207.161C117.035 207.161 118.087 216.818 125.678 216.664C133.269 216.509 136.909 203.549 144.857 205.954C152.805 208.359 154.707 222.081 154.707 222.081C154.707 222.081 146.875 216.654 143.177 220.025C139.478 223.395 140.782 227.992 142.848 227.084C144.915 226.176 156.195 222.651 157.334 231.294C157.694 233.754 157.552 236.261 156.916 238.665C156.28 241.068 155.164 243.318 153.635 245.278C153.635 245.278 144.22 230.676 138.503 233.95C132.786 237.224 143.843 238.779 148.643 244.032C153.442 249.286 156.716 255.022 153.066 257.378C149.415 259.735 144.616 265.104 144.616 265.104C144.616 265.104 145.002 257.031 139.719 251.227C134.437 245.423 130.738 248.784 135.538 254.066C140.338 259.348 138.908 268.368 138.908 268.368C138.908 268.368 126.18 270.3 116.697 267.325C107.214 264.351 106.904 260.797 109.589 257.388C112.274 253.979 122.143 248.88 118.754 245.181C115.364 241.483 109.309 263.433 104.452 259.165C99.594 254.896 97.8171 249.759 100.029 245.819L102.24 241.879C102.24 241.879 112.081 236.78 114.794 233.371C117.508 229.962 113.355 231.787 108.701 234.095C104.046 236.403 94.0991 243.511 93.1914 241.454C92.2836 239.397 94.8137 228.388 96.4941 224.93C98.1744 221.473 113.249 223.192 114.843 221.753C116.436 220.314 108.025 216.374 105.485 216.76C103.591 217.08 101.715 217.499 99.8644 218.016C99.8644 218.016 99.1402 211.913 107.011 205.713C114.881 199.513 117.035 207.161 117.035 207.161Z" fill="#263238"/>
<path d="M124.79 254.172C126.567 245.877 128.575 234.163 127.745 226.369" stroke="#263238" stroke-width="0.965714" stroke-linecap="round" stroke-linejoin="round"/>
<path d="M122.434 264.013C122.434 264.013 123.052 261.753 123.882 258.219" stroke="#263238" stroke-width="0.965714" stroke-linecap="round" stroke-linejoin="round"/>
<path d="M124.288 224.689C124.288 224.689 110.603 225.558 100.714 231.661" stroke="#263238" stroke-width="0.965714" stroke-linecap="round" stroke-linejoin="round"/>
<path d="M124.771 235.824C124.771 235.824 124.394 233.284 113.829 242.893" stroke="#263238" stroke-width="0.965714" stroke-linecap="round" stroke-linejoin="round"/>
<path d="M131.444 222.999C131.444 222.999 131.733 216.954 139.459 213.777" stroke="#263238" stroke-width="0.965714" stroke-linecap="round" stroke-linejoin="round"/>
<path d="M130.005 232.029L136.629 230.831" stroke="#263238" stroke-width="0.965714" stroke-linecap="round" stroke-linejoin="round"/>
<path d="M129.58 241.106C129.58 241.106 142.067 244.225 146.393 248.977" stroke="#263238" stroke-width="0.965714" stroke-linecap="round" stroke-linejoin="round"/>
<path d="M117.035 289.971C117.035 289.971 118.087 299.628 125.678 299.474C133.268 299.319 136.909 286.359 144.886 288.754C152.863 291.149 154.736 304.882 154.736 304.882C154.736 304.882 146.904 299.464 143.206 302.825C139.507 306.186 140.811 310.802 142.877 309.884C144.944 308.967 156.224 305.461 157.363 314.104C157.725 316.563 157.584 319.069 156.948 321.471C156.312 323.873 155.195 326.121 153.664 328.078C153.664 328.078 144.249 313.486 138.532 316.751C132.815 320.015 143.872 321.579 148.672 326.833C153.471 332.086 156.745 337.822 153.095 340.179C149.444 342.535 144.645 347.904 144.645 347.904C144.645 347.904 145.031 339.841 139.748 334.027C134.466 328.214 130.767 331.584 135.567 336.866C140.366 342.149 138.937 351.178 138.937 351.178C138.937 351.178 126.209 353.11 116.726 350.126C107.242 347.142 106.933 343.597 109.618 340.188C112.303 336.779 122.172 331.69 118.783 327.991C115.393 324.293 109.338 346.243 104.481 341.975C99.623 337.707 97.8461 332.559 100.058 328.619L102.269 324.679C102.269 324.679 112.11 319.59 114.823 316.181C117.537 312.772 113.384 314.597 108.73 316.905C104.075 319.213 94.1281 326.321 93.2203 324.254C92.3126 322.187 94.8427 311.198 96.5231 307.731C98.2034 304.264 113.278 306.002 114.872 304.554C116.465 303.105 108.054 299.184 105.514 299.57C103.62 299.889 101.744 300.305 99.8934 300.816C99.8934 300.816 99.1691 294.723 107.04 288.523C114.91 282.323 117.035 289.971 117.035 289.971Z" fill="#087DF9"/>
<path opacity="0.3" d="M117.035 289.971C117.035 289.971 118.087 299.628 125.678 299.474C133.268 299.319 136.909 286.359 144.886 288.754C152.863 291.149 154.736 304.882 154.736 304.882C154.736 304.882 146.904 299.464 143.206 302.825C139.507 306.186 140.811 310.802 142.877 309.884C144.944 308.967 156.224 305.461 157.363 314.104C157.725 316.563 157.584 319.069 156.948 321.471C156.312 323.873 155.195 326.121 153.664 328.078C153.664 328.078 144.249 313.486 138.532 316.751C132.815 320.015 143.872 321.579 148.672 326.833C153.471 332.086 156.745 337.822 153.095 340.179C149.444 342.535 144.645 347.904 144.645 347.904C144.645 347.904 145.031 339.841 139.748 334.027C134.466 328.214 130.767 331.584 135.567 336.866C140.366 342.149 138.937 351.178 138.937 351.178C138.937 351.178 126.209 353.11 116.726 350.126C107.242 347.142 106.933 343.597 109.618 340.188C112.303 336.779 122.172 331.69 118.783 327.991C115.393 324.293 109.338 346.243 104.481 341.975C99.623 337.707 97.8461 332.559 100.058 328.619L102.269 324.679C102.269 324.679 112.11 319.59 114.823 316.181C117.537 312.772 113.384 314.597 108.73 316.905C104.075 319.213 94.1281 326.321 93.2203 324.254C92.3126 322.187 94.8427 311.198 96.5231 307.731C98.2034 304.264 113.278 306.002 114.872 304.554C116.465 303.105 108.054 299.184 105.514 299.57C103.62 299.889 101.744 300.305 99.8934 300.816C99.8934 300.816 99.1691 294.723 107.04 288.523C114.91 282.323 117.035 289.971 117.035 289.971Z" fill="#263238"/>
<path d="M124.79 336.973C126.567 328.687 128.575 316.973 127.745 309.17" stroke="#263238" stroke-width="0.965714" stroke-linecap="round" stroke-linejoin="round"/>
<path d="M122.434 346.823C122.434 346.823 123.052 344.563 123.882 341.029" stroke="#263238" stroke-width="0.965714" stroke-linecap="round" stroke-linejoin="round"/>
<path d="M124.288 307.489C124.288 307.489 110.603 308.358 100.714 314.462" stroke="#263238" stroke-width="0.965714" stroke-linecap="round" stroke-linejoin="round"/>
<path d="M124.771 318.634C124.771 318.634 124.394 316.084 113.829 325.693" stroke="#263238" stroke-width="0.965714" stroke-linecap="round" stroke-linejoin="round"/>
<path d="M131.444 305.809C131.444 305.809 131.733 299.754 139.459 296.587" stroke="#263238" stroke-width="0.965714" stroke-linecap="round" stroke-linejoin="round"/>
<path d="M130.005 314.838L136.629 313.631" stroke="#263238" stroke-width="0.965714" stroke-linecap="round" stroke-linejoin="round"/>
<path d="M129.58 323.916C129.58 323.916 142.067 327.026 146.393 331.777" stroke="#263238" stroke-width="0.965714" stroke-linecap="round" stroke-linejoin="round"/>
<path d="M145.108 280.15C145.108 280.15 123.66 388.31 121.4 412.55L125.92 239.513" stroke="#263238" stroke-width="1.93143" stroke-linecap="round" stroke-linejoin="round"/>
<path d="M93.1817 268.301C121.4 263.221 121.4 412.55 121.4 412.55" stroke="#263238" stroke-width="1.93143" stroke-linecap="round" stroke-linejoin="round"/>
<path d="M118.02 411.989C118.02 411.989 134.389 201.126 86.9721 201.126" stroke="#263238" stroke-width="1.93143" stroke-linecap="round" stroke-linejoin="round"/>
<path d="M103.93 264.863C107.793 260.527 115.982 260.527 120.801 271.623C125.62 282.719 121.284 280.778 121.284 280.778C121.284 280.778 112.129 277.881 106.344 275.949C100.56 274.018 92.8244 269.189 92.3705 272.086C91.9167 274.984 96.2334 277.881 101.525 278.846C106.818 279.812 120.84 283.675 119.353 286.572C117.865 289.469 114.524 298.161 114.524 298.161C110.405 294.659 106.059 291.433 101.516 288.504C95.2483 284.641 91.3951 286.089 94.7558 290.435C98.1165 294.781 107.764 299.59 105.842 305.375C103.92 311.159 92.3222 318.392 92.3222 318.392C92.3222 318.392 90.8736 306.34 87.4936 302.487C84.1136 298.634 84.1136 302.97 85.0793 309.711C85.5627 312.588 85.8851 315.489 86.0451 318.402L72.5251 323.231C72.5251 323.231 67.6965 315.997 65.2919 313.574L62.8776 311.159C62.8776 311.159 73.5005 302.004 73.964 296.22C74.4276 290.435 66.7405 296.22 64.3069 297.185C61.8733 298.151 58.0393 304.911 58.0393 304.911C58.0393 304.911 55.6347 293.825 55.1422 289.971L54.6593 286.109C54.6593 286.109 64.7801 282.246 68.6333 282.246C72.4865 282.246 74.4275 285.143 74.4275 281.28C74.4275 277.417 70.5647 275.013 66.2383 275.486C61.9119 275.959 54.6497 278.383 54.6497 278.383C54.6497 278.383 51.7526 275.969 52.7183 268.726C53.684 261.483 56.0983 261.502 61.8829 263.434C67.6676 265.365 71.54 269.691 75.8568 269.691C80.1735 269.691 77.7882 264.39 74.8911 262.931C71.9939 261.473 64.7704 258.595 63.3025 258.103C61.8346 257.61 71.0282 250.87 75.8568 249.904C80.6854 248.938 86.9142 252.338 86.4796 257.137C85.6202 267.287 100.077 269.209 103.93 264.863Z" fill="#087DF9"/>
<path d="M72.9116 314.491C72.7668 315.949 72.6605 317.388 72.6123 318.846" stroke="#263238" stroke-width="0.965714" stroke-linecap="round" stroke-linejoin="round"/>
<path d="M82.5879 279.899C78.3604 289.446 75.3152 299.474 73.5198 309.759" stroke="#263238" stroke-width="0.965714" stroke-linecap="round" stroke-linejoin="round"/>
<path d="M84.3263 276.027C86.7116 270.899 88.5078 267.77 88.5078 267.77C88.5078 267.77 84.1717 265.838 82.2499 261.975C81.1207 259.69 79.466 257.704 77.4214 256.181" stroke="#263238" stroke-width="0.965714" stroke-linecap="round" stroke-linejoin="round"/>
<path d="M105.379 284.177C105.379 284.177 87.9961 276.954 87.9961 278.383" stroke="#263238" stroke-width="0.965714" stroke-linecap="round" stroke-linejoin="round"/>
<path d="M78.3867 274.993C78.3867 274.993 70.661 271.13 63.901 271.13" stroke="#263238" stroke-width="0.965714" stroke-linecap="round" stroke-linejoin="round"/>
<path d="M81.2842 286.562C84.626 289.309 87.6922 292.376 90.4392 295.717C93.2588 299.036 95.5399 302.777 97.1992 306.804" stroke="#263238" stroke-width="0.965714" stroke-linecap="round" stroke-linejoin="round"/>
<path d="M75.9824 288.494C75.9824 288.494 65.8617 285.597 60.531 290.425" stroke="#263238" stroke-width="0.965714" stroke-linecap="round" stroke-linejoin="round"/>
<path d="M57.6534 223.337C62.8972 220.227 68.7012 220.16 71.5404 216.886C74.3796 213.612 68.8074 211.951 65.8137 213.187C62.82 214.423 55.9055 218.016 54.5921 218.769C53.2787 219.522 54.1865 208.204 56.6201 203.936C59.0537 199.667 65.7074 197.176 69.0295 200.662C76.0406 208.03 86.9724 198.373 86.2288 192.618C85.4852 186.862 90.8546 180.681 102.376 184.303C113.897 187.924 109.609 189.943 109.609 189.943C109.609 189.943 101.42 194.964 96.1757 198.064C90.9319 201.164 82.2405 203.858 84.1043 206.089C85.9681 208.32 90.9995 206.968 95.2004 203.598C99.4012 200.227 111.473 192.202 112.709 195.196C113.945 198.19 118.291 206.418 118.291 206.418C112.95 207.237 107.669 208.409 102.482 209.923C95.4611 212.125 94.0222 215.978 99.5074 216.278C104.993 216.577 114.959 212.415 118.059 217.707C121.159 222.999 119.025 236.422 119.025 236.422C119.025 236.422 108.971 229.614 103.853 229.662C98.7348 229.711 102.009 232.559 107.716 236.22C110.199 237.737 112.595 239.395 114.891 241.183L109.686 254.529C109.686 254.529 101.072 253.429 97.6726 253.67L94.2733 253.911C94.2733 253.911 94.2733 239.899 90.2559 235.746C86.2385 231.594 85.5142 241.203 84.6644 243.656C83.8146 246.108 86.3834 253.448 86.3834 253.448C86.3834 253.448 76.4268 248.001 73.2014 245.828L69.9759 243.665C69.9759 243.665 73.7035 233.496 76.2241 230.589C78.7446 227.683 82.2018 228.117 79.2854 225.587C76.3689 223.057 72.0329 224.39 69.551 227.982C67.0691 231.574 64.1526 238.605 64.1526 238.605C64.1526 238.605 60.4346 239.213 55.6061 233.776C50.7775 228.339 52.3999 226.475 57.6534 223.337ZM103.254 238.788C107.117 236.857 97.9526 232.994 97.9526 232.994C94.5823 232.531 99.4012 240.72 103.254 238.788ZM96.7648 220.797C98.4065 219.976 93.4814 218.335 93.4814 218.335C86.3544 219.706 95.1231 221.628 96.7648 220.807V220.797Z" fill="#087DF9"/>
<path d="M103.332 248.61C104.297 249.672 105.36 250.705 106.422 251.7" stroke="#263238" stroke-width="0.965714" stroke-linecap="round" stroke-linejoin="round"/>
<path d="M83.583 218.624C88.0127 228.079 93.588 236.953 100.184 245.046" stroke="#263238" stroke-width="0.965714" stroke-linecap="round" stroke-linejoin="round"/>
<path d="M81.7964 214.781C79.4883 209.605 78.3005 206.196 78.3005 206.196C78.3005 206.196 74.0031 208.214 69.8312 207.162C67.3679 206.515 64.7863 206.462 62.2986 207.007" stroke="#263238" stroke-width="0.965714" stroke-linecap="round" stroke-linejoin="round"/>
<path d="M85.9488 213.516C84.8576 212.55 101.69 204.206 101.69 204.206" stroke="#263238" stroke-width="0.965714" stroke-linecap="round" stroke-linejoin="round"/>
<path d="M77.1216 218.576C77.1216 218.576 69.1545 221.879 64.7315 226.968" stroke="#263238" stroke-width="0.965714" stroke-linecap="round" stroke-linejoin="round"/>
<path d="M87.7546 223.984C92.0213 223.257 96.3491 222.949 100.676 223.067C105.027 223.126 109.342 223.869 113.462 225.269" stroke="#263238" stroke-width="0.965714" stroke-linecap="round" stroke-linejoin="round"/>
<path d="M85.7363 229.247C85.7363 229.247 76.9194 234.993 77.0449 242.159" stroke="#263238" stroke-width="0.965714" stroke-linecap="round" stroke-linejoin="round"/>
<path d="M132.535 290.145C136.755 287.654 141.429 287.596 143.718 284.959C146.007 282.323 141.506 280.99 139.111 281.985C136.716 282.98 131.135 285.848 130.072 286.476C129.01 287.103 129.754 277.977 131.704 274.539C133.655 271.101 139.015 269.102 141.69 271.903C147.339 277.833 156.176 270.068 155.529 265.433C154.882 260.797 159.256 255.776 168.527 258.74C177.798 261.705 174.321 263.279 174.321 263.279C174.321 263.279 167.735 267.316 163.515 269.817C159.295 272.318 152.293 274.453 153.79 276.278C155.287 278.103 159.343 276.983 162.723 274.269C166.103 271.555 175.828 265.095 176.823 267.509C177.817 269.923 181.303 276.538 181.303 276.538C177.017 277.195 172.778 278.134 168.614 279.349C162.965 281.116 161.806 284.226 166.229 284.467C170.652 284.708 178.657 281.386 181.149 285.607C183.641 289.827 181.941 300.672 181.941 300.672C181.941 300.672 173.858 295.196 169.734 295.215C165.611 295.235 168.247 297.514 172.853 300.488C174.855 301.712 176.789 303.044 178.648 304.477L174.457 315.225C171.255 314.791 168.03 314.559 164.799 314.53L162.066 314.723C162.066 314.723 162.066 303.453 158.831 300.102C155.596 296.751 154.968 304.496 154.331 306.476C153.694 308.455 155.712 314.346 155.712 314.346C155.712 314.346 147.706 309.962 145.089 308.224L142.491 306.485C142.491 306.485 145.495 298.296 147.523 295.959C149.551 293.622 152.351 293.97 149.995 291.932C147.639 289.894 144.201 290.966 142.153 293.863C140.479 296.592 139.026 299.45 137.808 302.41C137.808 302.41 134.824 302.902 130.932 298.499C127.04 294.095 128.315 292.647 132.535 290.145ZM169.232 302.564C172.332 301.01 164.964 297.91 164.964 297.91C162.24 297.523 166.103 304.11 169.242 302.526L169.232 302.564ZM164.008 288.079C165.331 287.412 161.362 286.089 161.362 286.089C155.635 287.2 162.694 288.745 164.017 288.088L164.008 288.079Z" fill="#087DF9"/>
<path d="M169.319 310.464C170.13 311.314 170.951 312.144 171.811 312.946" stroke="#263238" stroke-width="0.965714" stroke-linecap="round" stroke-linejoin="round"/>
<path d="M153.404 286.331C156.973 293.933 161.462 301.068 166.769 307.576" stroke="#263238" stroke-width="0.965714" stroke-linecap="round" stroke-linejoin="round"/>
<path d="M151.965 283.211C150.111 279.049 149.155 276.307 149.155 276.307C147.013 277.251 144.634 277.517 142.337 277.07C140.357 276.545 138.281 276.502 136.282 276.944" stroke="#263238" stroke-width="0.965714" stroke-linecap="round" stroke-linejoin="round"/>
<path d="M168.034 274.723C168.034 274.723 154.514 281.483 155.374 282.217" stroke="#263238" stroke-width="0.965714" stroke-linecap="round" stroke-linejoin="round"/>
<path d="M148.208 286.292C148.208 286.292 141.796 288.948 138.242 293.052" stroke="#263238" stroke-width="0.965714" stroke-linecap="round" stroke-linejoin="round"/>
<path d="M156.765 290.638C160.196 290.055 163.676 289.809 167.156 289.904C170.657 289.945 174.131 290.535 177.45 291.652" stroke="#263238" stroke-width="0.965714" stroke-linecap="round" stroke-linejoin="round"/>
<path d="M155.132 294.877C155.132 294.877 148.044 299.503 148.17 305.269" stroke="#263238" stroke-width="0.965714" stroke-linecap="round" stroke-linejoin="round"/>
<path d="M149.753 210.57C149.753 210.57 155.055 214.433 158.445 210.57C161.835 206.707 156.996 198.982 161.815 196.085C166.634 193.187 174.369 198.489 174.369 198.489C174.369 198.489 168.102 199.938 168.102 203.318C168.102 206.698 170.999 208.146 171.472 206.698C171.946 205.249 175.335 198.006 180.164 201.396C181.555 202.332 182.743 203.54 183.654 204.947C184.565 206.355 185.181 207.933 185.466 209.585C185.466 209.585 173.877 207.654 172.911 211.99C171.946 216.326 177.74 211.517 182.568 211.517C187.397 211.517 191.723 212.482 191.26 215.38C190.996 217.948 190.996 220.537 191.26 223.105C191.26 223.105 187.397 219.242 182.095 219.242C176.793 219.242 176.793 222.613 181.612 222.613C186.431 222.613 190.304 227.441 190.304 227.441C190.304 227.441 185.475 234.675 179.681 238.064C173.887 241.454 171.955 239.996 171.482 237.098C171.009 234.201 172.931 226.978 169.551 226.978C166.171 226.978 174.379 239.996 170.033 240.498C165.688 241 162.308 239.532 161.342 236.635L160.376 233.738C160.376 233.738 162.308 226.514 161.815 223.617C161.323 220.72 160.376 223.617 159.411 226.987C158.445 230.358 157.479 238.576 156.04 238.074C154.601 237.572 150.246 231.314 149.28 228.919C148.315 226.524 156.04 219.764 156.04 218.296C156.04 216.828 150.246 219.262 149.28 220.71C148.577 221.799 147.932 222.924 147.349 224.081C147.349 224.081 143.978 221.676 144.452 214.926C144.925 208.175 149.753 210.57 149.753 210.57Z" fill="#087DF9"/>
<path d="M176.726 228.05C173.394 223.395 168.459 217.07 164.171 213.941" stroke="#263238" stroke-width="0.965714" stroke-linecap="round" stroke-linejoin="round"/>
<path d="M180.588 233.699C180.588 233.699 179.739 232.366 178.358 230.348" stroke="#263238" stroke-width="0.965714" stroke-linecap="round" stroke-linejoin="round"/>
<path d="M161.796 214.906C161.796 214.906 156.002 222.13 154.572 229.846" stroke="#263238" stroke-width="0.965714" stroke-linecap="round" stroke-linejoin="round"/>
<path d="M167.581 219.725C167.581 219.725 166.142 218.76 166.142 228.417" stroke="#263238" stroke-width="0.965714" stroke-linecap="round" stroke-linejoin="round"/>
<path d="M164.171 210.571C164.171 210.571 161.274 207.673 163.206 202.372" stroke="#263238" stroke-width="0.965714" stroke-linecap="round" stroke-linejoin="round"/>
<path d="M168.064 215.389L170.478 211.536" stroke="#263238" stroke-width="0.965714" stroke-linecap="round" stroke-linejoin="round"/>
<path d="M172.399 219.725C172.399 219.725 179.632 214.897 183.988 214.897" stroke="#263238" stroke-width="0.965714" stroke-linecap="round" stroke-linejoin="round"/>
<path d="M96.9673 337.919C96.9673 337.919 102.269 341.782 105.659 337.919C109.048 334.056 104.21 326.331 109.029 323.434C113.848 320.536 121.583 325.848 121.583 325.848C121.583 325.848 115.326 327.287 115.326 330.676C115.326 334.066 118.223 335.505 118.696 334.047C119.169 332.589 122.559 325.355 127.387 328.745C128.779 329.683 129.966 330.893 130.877 332.302C131.788 333.711 132.405 335.29 132.689 336.944C132.689 336.944 121.101 335.012 120.135 339.349C119.169 343.685 124.963 338.866 129.792 338.866C134.621 338.866 138.947 339.831 138.483 342.729C138.221 345.297 138.221 347.886 138.483 350.454C138.483 350.454 134.621 346.591 129.328 346.591C124.036 346.591 124.027 349.962 128.846 349.962C133.664 349.962 137.537 354.79 137.537 354.79C137.537 354.79 132.708 362.024 126.914 365.413C121.12 368.803 119.188 367.345 118.725 364.447C118.261 361.55 120.173 354.327 116.793 354.327C113.413 354.327 121.622 367.335 117.276 367.847C112.931 368.359 109.551 366.881 108.585 363.984L107.619 361.087C107.619 361.087 109.551 353.854 109.068 350.966C108.585 348.079 107.619 350.966 106.653 354.336C105.688 357.707 104.722 365.925 103.283 365.423C101.844 364.921 97.4888 358.663 96.5231 356.268C95.5574 353.873 103.283 347.113 103.283 345.645C103.283 344.177 97.4888 346.611 96.5231 348.05C95.5574 349.489 94.5917 351.43 94.5917 351.43C94.5917 351.43 91.2117 349.015 91.6946 342.265C92.1774 335.515 96.9673 337.919 96.9673 337.919Z" fill="#087DF9"/>
<path d="M123.969 355.399C120.637 350.744 115.693 344.428 111.414 341.299" stroke="#263238" stroke-width="0.965714" stroke-linecap="round" stroke-linejoin="round"/>
<path d="M127.812 361.058C127.812 361.058 126.963 359.715 125.582 357.707" stroke="#263238" stroke-width="0.965714" stroke-linecap="round" stroke-linejoin="round"/>
<path d="M109.02 342.255C109.02 342.255 103.225 349.488 101.786 357.195" stroke="#263238" stroke-width="0.965714" stroke-linecap="round" stroke-linejoin="round"/>
<path d="M114.804 347.084C114.804 347.084 113.356 346.118 113.356 355.775" stroke="#263238" stroke-width="0.965714" stroke-linecap="round" stroke-linejoin="round"/>
<path d="M111.424 337.919C111.424 337.919 108.527 335.022 110.458 329.73" stroke="#263238" stroke-width="0.965714" stroke-linecap="round" stroke-linejoin="round"/>
<path d="M115.287 342.738L117.692 338.885" stroke="#263238" stroke-width="0.965714" stroke-linecap="round" stroke-linejoin="round"/>
<path d="M119.623 347.084C119.623 347.084 126.847 342.255 131.212 342.255" stroke="#263238" stroke-width="0.965714" stroke-linecap="round" stroke-linejoin="round"/>
<path d="M101.081 410.348H138.338V463.974H101.081V410.348Z" fill="#263238" stroke="#263238" stroke-width="1.93143" stroke-linecap="round" stroke-linejoin="round"/>
<path d="M336.397 385.606H610.563V463.964H336.397V385.606Z" fill="white" stroke="#263238" stroke-width="0.965714" stroke-linecap="round" stroke-linejoin="round"/>
<path d="M305.852 385.606H570.805V463.964H305.852V385.606Z" fill="#C9C9C9" stroke="#263238" stroke-width="0.965714" stroke-linecap="round" stroke-linejoin="round"/>
<path d="M541.293 392.665H483.524V422.583H501.631" stroke="#263238" stroke-width="0.965714" stroke-linecap="round" stroke-linejoin="round"/>
<path d="M505.658 422.583H564.566V392.665H545.011" stroke="#263238" stroke-width="0.965714" stroke-linecap="round" stroke-linejoin="round"/>
<path d="M523.012 459.995H564.566V430.067H553.683" stroke="#263238" stroke-width="0.965714" stroke-linecap="round" stroke-linejoin="round"/>
<path d="M549.038 430.067H483.524V459.995H517.739" stroke="#263238" stroke-width="0.965714" stroke-linecap="round" stroke-linejoin="round"/>
<path d="M451.433 422.583H478.232V392.665H397.18V422.583H445.852" stroke="#263238" stroke-width="0.965714" stroke-linecap="round" stroke-linejoin="round"/>
<path d="M436.561 430.067H397.18V459.995H478.232V430.067H441.515" stroke="#263238" stroke-width="0.965714" stroke-linecap="round" stroke-linejoin="round"/>
<path d="M391.887 403.819V392.665H310.835V422.583H391.887V407.228" stroke="#263238" stroke-width="0.965714" stroke-linecap="round" stroke-linejoin="round"/>
<path d="M383.881 430.067H310.835V459.995H391.887V430.067H386.672" stroke="#263238" stroke-width="0.965714" stroke-linecap="round" stroke-linejoin="round"/>
<path d="M567.714 365.925C567.711 369.159 568.502 372.344 570.018 375.202C571.533 378.059 573.727 380.5 576.406 382.312C579.085 384.123 582.168 385.249 585.384 385.591C588.6 385.933 591.851 385.48 594.851 384.273C597.852 383.065 600.51 381.139 602.592 378.664C604.674 376.19 606.117 373.242 606.794 370.079C607.471 366.916 607.361 363.636 606.474 360.526C605.587 357.415 603.951 354.571 601.708 352.24C600.889 351.378 599.99 350.596 599.023 349.903C597.566 348.83 596.383 347.427 595.573 345.809C594.762 344.191 594.346 342.404 594.358 340.594V339.908C594.359 333.886 595.381 327.907 597.381 322.226H577.555L577.71 322.67C579.619 328.221 580.598 334.048 580.607 339.918V340.594C580.608 342.419 580.179 344.219 579.353 345.847C578.528 347.475 577.329 348.884 575.855 349.961C573.333 351.789 571.28 354.189 569.865 356.964C568.45 359.739 567.713 362.81 567.714 365.925Z" fill="#087DF9" stroke="#263238" stroke-width="0.965714" stroke-linecap="round" stroke-linejoin="round"/>
<path d="M565.445 374.742C563.809 378.03 561.288 380.796 558.166 382.73C555.044 384.663 551.445 385.688 547.772 385.688C544.1 385.688 540.5 384.663 537.378 382.73C534.256 380.796 531.736 378.03 530.1 374.742H565.445Z" fill="#087DF9" stroke="#263238" stroke-width="0.965714" stroke-linecap="round" stroke-linejoin="round"/>
<path d="M595.914 326.456H579.1" stroke="#263238" stroke-width="0.965714" stroke-linecap="round" stroke-linejoin="round"/>
<path d="M595.006 332.057H580.008" stroke="#263238" stroke-width="0.965714" stroke-linecap="round" stroke-linejoin="round"/>
<path d="M594.397 337.658H580.616" stroke="#263238" stroke-width="0.965714" stroke-linecap="round" stroke-linejoin="round"/>
<path d="M594.552 343.269H580.462" stroke="#263238" stroke-width="0.965714" stroke-linecap="round" stroke-linejoin="round"/>
<path d="M597.884 348.87H577.285" stroke="#263238" stroke-width="0.965714" stroke-linecap="round" stroke-linejoin="round"/>
<path d="M573.084 379.464C574.871 381.344 577.012 382.853 579.382 383.905C581.753 384.957 584.308 385.532 586.901 385.597C589.494 385.662 592.074 385.216 594.494 384.284C596.915 383.352 599.128 381.952 601.008 380.164C602.887 378.377 604.396 376.237 605.448 373.866C606.501 371.495 607.076 368.94 607.141 366.348C607.206 363.755 606.759 361.174 605.827 358.754C604.895 356.333 603.495 354.12 601.708 352.241C599.709 358.856 593.267 373.264 573.084 379.464Z" fill="#263238" stroke="#263238" stroke-width="0.965714" stroke-linecap="round" stroke-linejoin="round"/>
<path d="M451.491 365.413C448.337 371.746 443.48 377.074 437.464 380.799C431.449 384.523 424.515 386.496 417.44 386.496C410.365 386.496 403.43 384.523 397.415 380.799C391.4 377.074 386.542 371.746 383.389 365.413H451.491Z" fill="#087DF9" stroke="#263238" stroke-width="0.965714" stroke-linecap="round" stroke-linejoin="round"/>
<path d="M330.072 384.66H423.949V463.974H329.975V384.785C329.975 384.727 330.014 384.66 330.072 384.66ZM333.172 458.624H420.781V390H333.239C333.191 390 333.152 390.077 333.152 390.164L333.172 458.624Z" fill="#263238" stroke="#263238" stroke-width="0.965714" stroke-linecap="round" stroke-linejoin="round"/>
<path d="M395.219 384.66H489.105V463.974H395.132V384.785C395.132 384.727 395.17 384.66 395.219 384.66ZM398.299 458.624H485.928V390H398.396C398.348 390 398.299 390.077 398.299 390.164V458.624Z" fill="#263238" stroke="#263238" stroke-width="0.965714" stroke-linecap="round" stroke-linejoin="round"/>
<path d="M491.404 384.66H327.232C327.186 384.66 327.142 384.678 327.109 384.711C327.077 384.743 327.059 384.787 327.059 384.834V391.709H491.404V384.669V384.66Z" fill="white" stroke="#263238" stroke-width="0.965714" stroke-linecap="round" stroke-linejoin="round"/>
<path d="M398.415 384.66H327.252C327.229 384.66 327.206 384.664 327.185 384.673C327.164 384.682 327.145 384.694 327.129 384.711C327.112 384.727 327.1 384.746 327.091 384.767C327.082 384.788 327.078 384.811 327.078 384.834V391.709H398.415V384.669V384.66Z" fill="#263238" stroke="#263238" stroke-width="0.965714" stroke-linecap="round" stroke-linejoin="round"/>
<path d="M338.985 138.103H561.91V284.312H338.985V138.103Z" fill="#263238" stroke="#263238" stroke-width="0.965714" stroke-linecap="round" stroke-linejoin="round"/>
<path d="M345.31 143.521H555.595V278.895H345.31V143.521Z" fill="#C9C9C9" stroke="#263238" stroke-width="0.965714" stroke-linecap="round" stroke-linejoin="round"/>
<path d="M502.413 237.707H545.088V269.633H502.413V237.707Z" fill="#DBDBDB"/>
<path d="M452.147 237.707H494.822V269.633H452.147V237.707Z" fill="#DBDBDB"/>
<path d="M401.882 237.707H444.557V269.633H401.882V237.707Z" fill="#DBDBDB"/>
<path d="M351.617 237.707H394.292V269.633H351.617V237.707Z" fill="#DBDBDB"/>
<path d="M352.572 150.107H543.803V230.367H352.572V150.107Z" fill="#7A7A7A"/>
<path d="M352.572 224.786H543.803V230.367H352.572V224.786Z" fill="#A6A6A6"/>
<path d="M451.345 190.59L432.137 179.503V201.676L451.345 190.59Z" fill="#DBDBDB"/>
<path d="M589.578 151.855H616.898V243.598H589.578V151.855Z" fill="#263238" stroke="#263238" stroke-width="0.965714" stroke-linecap="round" stroke-linejoin="round"/>
<path d="M584.913 151.855H612.233V243.598H584.913V151.855Z" fill="#263238" stroke="#263238" stroke-width="0.965714" stroke-linecap="round" stroke-linejoin="round"/>
<path d="M593.341 171.856C588.96 169.576 587.257 164.176 589.538 159.795C591.818 155.414 597.218 153.711 601.599 155.992C605.98 158.272 607.683 163.672 605.402 168.053C603.122 172.434 597.722 174.137 593.341 171.856Z" fill="#4F4F4F" stroke="#263238" stroke-width="0.965714" stroke-linecap="round" stroke-linejoin="round"/>
<path d="M594.687 163.917C594.687 164.465 594.849 165.001 595.154 165.457C595.458 165.912 595.891 166.268 596.398 166.477C596.904 166.687 597.461 166.742 597.999 166.635C598.537 166.528 599.031 166.264 599.418 165.877C599.806 165.489 600.07 164.995 600.177 164.458C600.284 163.92 600.229 163.363 600.019 162.856C599.809 162.35 599.454 161.917 598.998 161.612C598.542 161.308 598.007 161.145 597.458 161.145C596.723 161.145 596.018 161.437 595.499 161.957C594.979 162.477 594.687 163.182 594.687 163.917Z" fill="#263238" stroke="#263238" stroke-width="0.965714" stroke-linecap="round" stroke-linejoin="round"/>
<path d="M597.458 193.516C592.52 193.516 588.516 189.512 588.516 184.573C588.516 179.635 592.52 175.631 597.458 175.631C602.397 175.631 606.401 179.635 606.401 184.573C606.401 189.512 602.397 193.516 597.458 193.516Z" fill="#4F4F4F" stroke="#263238" stroke-width="0.965714" stroke-linecap="round" stroke-linejoin="round"/>
<path d="M597.458 187.345C595.928 187.345 594.687 186.104 594.687 184.573C594.687 183.043 595.928 181.802 597.458 181.802C598.989 181.802 600.23 183.043 600.23 184.573C600.23 186.104 598.989 187.345 597.458 187.345Z" fill="#263238" stroke="#263238" stroke-width="0.965714" stroke-linecap="round" stroke-linejoin="round"/>
<path d="M593.34 214.781C588.959 212.5 587.257 207.1 589.537 202.72C591.818 198.339 597.218 196.636 601.599 198.917C605.979 201.197 607.682 206.597 605.402 210.978C603.121 215.359 597.721 217.061 593.34 214.781Z" fill="#4F4F4F" stroke="#263238" stroke-width="0.965714" stroke-linecap="round" stroke-linejoin="round"/>
<path d="M594.687 206.833C594.694 207.38 594.863 207.912 595.172 208.362C595.481 208.813 595.917 209.162 596.424 209.366C596.931 209.57 597.487 209.619 598.022 209.508C598.557 209.397 599.047 209.13 599.431 208.741C599.815 208.352 600.075 207.858 600.179 207.321C600.283 206.785 600.226 206.229 600.015 205.725C599.804 205.221 599.449 204.79 598.994 204.488C598.539 204.185 598.005 204.023 597.458 204.023C597.091 204.023 596.727 204.096 596.389 204.238C596.05 204.379 595.742 204.587 595.485 204.848C595.227 205.11 595.023 205.42 594.886 205.761C594.749 206.101 594.681 206.466 594.687 206.833Z" fill="#263238" stroke="#263238" stroke-width="0.965714" stroke-linecap="round" stroke-linejoin="round"/>
<path d="M597.458 236.432C592.52 236.432 588.516 232.429 588.516 227.49C588.516 222.551 592.52 218.547 597.458 218.547C602.397 218.547 606.401 222.551 606.401 227.49C606.401 232.429 602.397 236.432 597.458 236.432Z" fill="#4F4F4F" stroke="#263238" stroke-width="0.965714" stroke-linecap="round" stroke-linejoin="round"/>
<path d="M594.687 227.49C594.687 228.038 594.849 228.574 595.154 229.029C595.458 229.485 595.891 229.84 596.398 230.05C596.904 230.26 597.461 230.315 597.999 230.208C598.537 230.101 599.031 229.837 599.418 229.449C599.806 229.062 600.07 228.568 600.177 228.03C600.284 227.493 600.229 226.935 600.019 226.429C599.809 225.923 599.454 225.49 598.998 225.185C598.542 224.881 598.007 224.718 597.458 224.718C596.723 224.718 596.018 225.01 595.499 225.53C594.979 226.05 594.687 226.755 594.687 227.49Z" fill="#263238" stroke="#263238" stroke-width="0.965714" stroke-linecap="round" stroke-linejoin="round"/>
<path d="M300.916 151.855H328.236V243.598H300.916V151.855Z" fill="#263238" stroke="#263238" stroke-width="0.965714" stroke-linecap="round" stroke-linejoin="round"/>
<path d="M296.242 151.855H323.562V243.598H296.242V151.855Z" fill="#263238" stroke="#263238" stroke-width="0.965714" stroke-linecap="round" stroke-linejoin="round"/>
<path d="M305.392 172.165C300.825 170.285 298.646 165.059 300.526 160.492C302.405 155.925 307.632 153.746 312.199 155.626C316.766 157.505 318.945 162.731 317.065 167.299C315.185 171.866 309.959 174.044 305.392 172.165Z" fill="#4F4F4F" stroke="#263238" stroke-width="0.965714" stroke-linecap="round" stroke-linejoin="round"/>
<path d="M306.015 163.917C306.013 164.467 306.175 165.006 306.479 165.465C306.784 165.923 307.217 166.281 307.725 166.493C308.233 166.705 308.793 166.762 309.333 166.656C309.873 166.549 310.37 166.285 310.76 165.897C311.15 165.508 311.415 165.012 311.523 164.473C311.632 163.933 311.577 163.373 311.367 162.864C311.157 162.356 310.8 161.921 310.343 161.615C309.885 161.309 309.347 161.145 308.796 161.145C308.06 161.145 307.354 161.437 306.833 161.956C306.312 162.476 306.018 163.181 306.015 163.917Z" fill="#263238" stroke="#263238" stroke-width="0.965714" stroke-linecap="round" stroke-linejoin="round"/>
<path d="M308.797 193.516C303.858 193.516 299.854 189.512 299.854 184.573C299.854 179.635 303.858 175.631 308.797 175.631C313.736 175.631 317.739 179.635 317.739 184.573C317.739 189.512 313.736 193.516 308.797 193.516Z" fill="#4F4F4F" stroke="#263238" stroke-width="0.965714" stroke-linecap="round" stroke-linejoin="round"/>
<path d="M308.797 187.345C307.266 187.345 306.025 186.104 306.025 184.573C306.025 183.043 307.266 181.802 308.797 181.802C310.327 181.802 311.568 183.043 311.568 184.573C311.568 186.104 310.327 187.345 308.797 187.345Z" fill="#263238" stroke="#263238" stroke-width="0.965714" stroke-linecap="round" stroke-linejoin="round"/>
<path d="M305.389 215.077C300.821 213.197 298.643 207.971 300.522 203.404C302.402 198.837 307.628 196.658 312.195 198.538C316.762 200.417 318.941 205.643 317.061 210.21C315.182 214.778 309.956 216.956 305.389 215.077Z" fill="#4F4F4F" stroke="#263238" stroke-width="0.965714" stroke-linecap="round" stroke-linejoin="round"/>
<path d="M306.015 206.833C306.013 207.384 306.175 207.922 306.479 208.381C306.784 208.84 307.217 209.198 307.725 209.41C308.233 209.622 308.793 209.678 309.333 209.572C309.873 209.466 310.37 209.201 310.76 208.813C311.15 208.424 311.415 207.929 311.523 207.389C311.632 206.849 311.577 206.289 311.367 205.781C311.157 205.272 310.8 204.837 310.343 204.531C309.885 204.225 309.347 204.062 308.796 204.062C308.06 204.062 307.354 204.353 306.833 204.873C306.312 205.392 306.018 206.097 306.015 206.833Z" fill="#263238" stroke="#263238" stroke-width="0.965714" stroke-linecap="round" stroke-linejoin="round"/>
<path d="M308.797 236.432C303.858 236.432 299.854 232.429 299.854 227.49C299.854 222.551 303.858 218.547 308.797 218.547C313.736 218.547 317.739 222.551 317.739 227.49C317.739 232.429 313.736 236.432 308.797 236.432Z" fill="#4F4F4F" stroke="#263238" stroke-width="0.965714" stroke-linecap="round" stroke-linejoin="round"/>
<path d="M306.015 227.49C306.013 228.04 306.175 228.579 306.479 229.037C306.784 229.496 307.217 229.854 307.725 230.066C308.233 230.278 308.793 230.334 309.333 230.228C309.873 230.122 310.37 229.858 310.76 229.469C311.15 229.081 311.415 228.585 311.523 228.045C311.632 227.506 311.577 226.946 311.367 226.437C311.157 225.928 310.8 225.493 310.343 225.187C309.885 224.881 309.347 224.718 308.796 224.718C308.06 224.718 307.354 225.01 306.833 225.529C306.312 226.049 306.018 226.754 306.015 227.49Z" fill="#263238" stroke="#263238" stroke-width="0.965714" stroke-linecap="round" stroke-linejoin="round"/>
<path d="M369.038 295.147H534.571C536.214 295.147 537.545 296.479 537.545 298.122V309.324C537.545 310.967 536.214 312.299 534.571 312.299H369.038C367.395 312.299 366.064 310.967 366.064 309.324V298.122C366.064 296.479 367.395 295.147 369.038 295.147Z" fill="#263238" stroke="#263238" stroke-width="0.965714" stroke-linecap="round" stroke-linejoin="round"/>
<path d="M531.452 312.289H368.748V306.929H531.452V312.289Z" fill="#C9C9C9" stroke="#263238" stroke-width="0.965714" stroke-linecap="round" stroke-linejoin="round"/>
<path d="M488.188 342.159H524.354V385.017H488.188V342.159Z" fill="#263238" stroke="#263238" stroke-width="0.965714" stroke-linecap="round" stroke-linejoin="round"/>
<path d="M478.888 342.159H515.054V385.017H478.888V342.159Z" fill="#263238" stroke="#263238" stroke-width="0.965714" stroke-linecap="round" stroke-linejoin="round"/>
<path d="M495.228 363.173C490.289 363.173 486.285 359.169 486.285 354.23C486.285 349.291 490.289 345.288 495.228 345.288C500.167 345.288 504.17 349.291 504.17 354.23C504.17 359.169 500.167 363.173 495.228 363.173Z" fill="#4F4F4F" stroke="#263238" stroke-width="0.965714" stroke-linecap="round" stroke-linejoin="round"/>
<path d="M492.447 354.23C492.445 354.781 492.606 355.319 492.911 355.778C493.215 356.237 493.649 356.595 494.157 356.807C494.665 357.019 495.225 357.075 495.765 356.969C496.305 356.863 496.801 356.598 497.191 356.21C497.581 355.821 497.847 355.326 497.955 354.786C498.063 354.246 498.009 353.686 497.798 353.178C497.588 352.669 497.232 352.234 496.774 351.928C496.317 351.622 495.779 351.459 495.228 351.459C494.863 351.457 494.502 351.528 494.164 351.667C493.827 351.805 493.52 352.009 493.262 352.267C493.004 352.524 492.799 352.83 492.659 353.167C492.519 353.504 492.447 353.865 492.447 354.23Z" fill="#263238" stroke="#263238" stroke-width="0.965714" stroke-linecap="round" stroke-linejoin="round"/>
<path d="M495.228 383.829C490.289 383.829 486.285 379.825 486.285 374.887C486.285 369.948 490.289 365.944 495.228 365.944C500.167 365.944 504.17 369.948 504.17 374.887C504.17 379.825 500.167 383.829 495.228 383.829Z" fill="#4F4F4F" stroke="#263238" stroke-width="0.965714" stroke-linecap="round" stroke-linejoin="round"/>
<path d="M495.227 377.658C493.697 377.658 492.456 376.418 492.456 374.887C492.456 373.356 493.697 372.115 495.227 372.115C496.758 372.115 497.999 373.356 497.999 374.887C497.999 376.418 496.758 377.658 495.227 377.658Z" fill="#263238" stroke="#263238" stroke-width="0.965714" stroke-linecap="round" stroke-linejoin="round"/>
<path d="M161.042 231.826C161.042 231.826 167.802 239.494 167.802 241.637C167.802 243.781 169.647 245.925 169.647 245.925C169.647 245.925 177.005 253.593 176.078 255.428C175.309 256.645 174.103 257.523 172.708 257.881C172.708 257.881 177.305 272.598 174.553 274.443C171.8 276.287 163.823 274.134 163.823 274.134L164.123 286.398C164.123 286.398 153.394 281.802 146.653 283.636L139.893 285.471C139.893 285.471 140.859 275.051 139.594 273.216C138.329 271.381 124.258 264.631 122.423 254.868C120.588 245.104 121.458 235.244 131.308 229.759C141.158 224.274 147.252 223.627 147.252 223.627C147.252 223.627 143.881 218.103 148.218 216.867C152.554 215.631 163.852 219.629 164.461 224.844C164.69 226.219 164.484 227.631 163.871 228.883C163.258 230.135 162.269 231.164 161.042 231.826Z" fill="white" stroke="#263238" stroke-width="0.965714" stroke-linecap="round" stroke-linejoin="round"/>
<path d="M174.534 274.443C172.514 273.968 170.53 273.355 168.595 272.608C166.164 271.738 163.782 270.739 161.458 269.614L163.447 281.28L163.805 274.163C163.805 274.163 171.82 276.606 174.534 274.443Z" fill="#263238" stroke="#263238" stroke-width="0.965714" stroke-linecap="round" stroke-linejoin="round"/>
<path d="M165.137 247.084C165.475 248.407 166.296 249.353 166.953 249.18C167.609 249.006 167.918 247.799 167.542 246.476C167.165 245.153 166.392 244.206 165.736 244.38C165.079 244.554 164.77 245.761 165.137 247.084Z" fill="#263238"/>
<path d="M167.783 241.686C167.783 241.686 164.104 238.006 162.877 241.995" stroke="#263238" stroke-width="0.965714" stroke-linecap="round" stroke-linejoin="round"/>
<path d="M171.462 261.56C171.462 261.56 166.557 260.594 163.804 256.963" stroke="#263238" stroke-width="0.965714" stroke-linecap="round" stroke-linejoin="round"/>
<path d="M122.105 304.785C122.105 304.785 128.865 290.995 136.204 286.437C143.544 281.879 153.993 280.643 164.722 284.283C175.451 287.924 183.727 304.216 184.953 308.812C185.941 312.113 187.278 315.299 188.942 318.315H120.569L122.105 304.785Z" fill="#087DF9" stroke="#263238" stroke-width="0.965714" stroke-linecap="round" stroke-linejoin="round"/>
<path d="M122.414 254.819C120.569 245.008 121.448 235.196 131.299 229.711C141.149 224.226 147.242 223.579 147.242 223.579C147.242 223.579 143.872 218.055 148.208 216.819C152.544 215.582 163.843 219.581 164.451 224.795C164.7 226.175 164.509 227.599 163.904 228.864C163.299 230.129 162.312 231.172 161.081 231.845C161.081 231.845 156.175 233.989 154.031 233.989C151.888 233.989 158.319 239.204 158.319 241.657C158.319 244.11 152.805 246.862 152.805 246.862C152.805 246.862 157.402 253.921 155.557 255.447C153.713 256.973 151.579 256.983 150.651 255.756C149.724 254.53 144.22 246.563 141.458 251.159C138.696 255.756 142.993 263.115 144.828 264.341C146.663 265.568 150.96 266.176 150.96 266.176C150.96 266.176 146.653 274.008 140.222 276.683C140.271 275.504 140.067 274.329 139.623 273.236C138.358 271.372 124.249 264.631 122.414 254.819Z" fill="#263238" stroke="#263238" stroke-width="0.965714" stroke-linecap="round" stroke-linejoin="round"/>
<path d="M321.582 274.52L297.44 295.437C297.266 295.588 297.059 295.696 296.836 295.753C296.613 295.809 296.38 295.814 296.155 295.766L292.852 295.051C292.585 294.991 292.339 294.858 292.142 294.667C291.944 294.476 291.804 294.234 291.736 293.968C291.668 293.702 291.675 293.423 291.756 293.16C291.837 292.898 291.99 292.663 292.196 292.482L316.203 271.71C316.368 271.566 316.563 271.462 316.774 271.403C316.984 271.345 317.205 271.334 317.42 271.372L320.849 271.941C321.127 271.985 321.387 272.108 321.598 272.295C321.809 272.482 321.962 272.725 322.039 272.996C322.116 273.267 322.114 273.555 322.033 273.825C321.952 274.095 321.796 274.336 321.582 274.52Z" fill="#263238" stroke="#263238" stroke-width="0.965714" stroke-linecap="round" stroke-linejoin="round"/>
<path d="M283.679 327.229L295.412 295.041C295.412 295.041 296.011 291.43 296.619 290.522C297.228 289.614 298.425 287.518 298.425 287.518C298.425 287.518 300.221 280.295 301.129 280.295C301.699 280.329 302.25 280.515 302.725 280.832C303.2 281.149 303.583 281.587 303.833 282.101C304.441 283.308 304.441 288.726 304.441 288.726L311.926 282.709C311.926 282.709 312.833 287.219 312.833 288.417C312.833 289.614 309.521 291.729 309.521 292.936C309.521 294.143 308.015 297.147 306.518 298.344C305.021 299.542 301.1 300.459 301.1 300.459L298.695 331.739L282.471 330.531L283.679 327.229Z" fill="white" stroke="#263238" stroke-width="0.965714" stroke-linecap="round" stroke-linejoin="round"/>
<path d="M289.54 311.149C293.241 310.902 296.928 311.795 300.105 313.709L298.724 331.738L282.471 330.531L283.678 327.219L289.54 311.149Z" fill="#087DF9" stroke="#263238" stroke-width="0.965714" stroke-linecap="round" stroke-linejoin="round"/>
<path d="M230.941 235.196C230.941 235.196 235.847 242.555 235.847 244.699C235.847 246.842 237.682 248.069 238.908 249.295C240.135 250.522 244.123 249.913 244.123 252.975C244.123 256.036 240.135 261.56 240.135 261.56C240.135 261.56 241.052 271.063 239.169 274.443C237.286 277.823 227.909 276.895 227.909 276.895L225.456 290.415C225.456 290.415 213.201 287.045 210.13 287.045H202.771L203.351 272.588C203.351 272.588 199.362 267.374 199.362 257.262C199.362 247.151 217.759 233.351 222.047 232.733C226.335 232.115 230.941 235.196 230.941 235.196Z" fill="white" stroke="#263238" stroke-width="0.965714" stroke-linecap="round" stroke-linejoin="round"/>
<path d="M237.566 275.766C235.836 275.677 234.115 275.454 232.419 275.099C228.768 274.433 225.939 272.115 225.775 271.613C225.61 271.111 226.933 281.744 226.933 281.744L227.899 276.915C227.899 276.915 235.712 277.929 237.566 275.766Z" fill="#263238" stroke="#263238" stroke-width="0.965714" stroke-linecap="round" stroke-linejoin="round"/>
<path d="M239.217 263.714C239.217 263.714 235.846 264.94 234.929 262.487" stroke="#263238" stroke-width="0.965714" stroke-linecap="round" stroke-linejoin="round"/>
<path d="M234.031 249.682C234.34 250.908 234.997 251.806 235.489 251.681C235.982 251.555 236.127 250.454 235.818 249.228C235.509 248.001 234.852 247.103 234.359 247.219C233.867 247.335 233.703 248.446 234.031 249.682Z" fill="#263238"/>
<path d="M235.847 244.699C235.847 244.699 233.394 242.246 232.476 245.664" stroke="#263238" stroke-width="0.965714" stroke-linecap="round" stroke-linejoin="round"/>
<path d="M199.671 285.471C199.671 285.471 210.091 282.101 219.594 285.471C228.421 288.679 237.025 292.47 245.349 296.818C249.029 298.962 254.243 302.332 255.161 305.094C256.078 307.856 257.305 316.751 257.305 316.751H181.274C181.274 316.751 186.18 291.304 190.468 288.542C193.262 286.833 196.41 285.783 199.671 285.471Z" fill="#087DF9" stroke="#263238" stroke-width="0.965714" stroke-linecap="round" stroke-linejoin="round"/>
<path d="M285.185 319.406L314.06 320.874C314.06 320.874 351.365 312.183 357.382 312.753C363.398 313.322 358.589 327.489 358.888 335.012C359.188 342.535 357.99 355.167 357.99 355.167H284.885L285.185 319.406Z" fill="#087DF9" stroke="#263238" stroke-width="0.965714" stroke-linecap="round" stroke-linejoin="round"/>
<path d="M347.387 316.635C341.37 317.726 333.818 319.262 330.612 320.614C324.895 323.018 315.566 326.022 315.566 326.022C315.566 326.022 295.113 323.018 288.526 322.419" stroke="#263238" stroke-width="0.965714" stroke-linecap="round" stroke-linejoin="round"/>
<path d="M355.885 315.196C355.885 315.196 353.828 315.515 350.844 316.026" stroke="#263238" stroke-width="0.965714" stroke-linecap="round" stroke-linejoin="round"/>
<path d="M252.051 300.15C252.051 300.15 284.886 298.045 286.045 302.255C287.204 306.466 288.15 353.1 288.15 353.1H164.538V304.814C164.538 304.814 165.137 303.607 168.401 303.607C171.665 303.607 198.831 304.351 198.831 304.351L252.051 300.15Z" fill="white" stroke="#263238" stroke-width="0.965714" stroke-linecap="round" stroke-linejoin="round"/>
<path d="M272.853 308.88C274.784 310.251 278.966 346.871 279.671 353.1H164.548V305.664C173.317 307.016 197.382 309.479 205.514 309.479C214.186 309.479 270.748 307.354 272.853 308.88Z" fill="#C9C9C9" stroke="#263238" stroke-width="0.965714" stroke-linecap="round" stroke-linejoin="round"/>
<path d="M152.815 303.491C152.815 303.491 77.2185 299.281 69.0968 299.281C60.9752 299.281 59.7681 301.685 58.2616 304.698C57.2787 306.863 56.8664 309.244 57.0641 311.613C57.0641 312.521 64.8863 342.303 64.8863 342.303H170.564L168.759 303.791L152.815 303.491Z" fill="white" stroke="#263238" stroke-width="0.965714" stroke-linecap="round" stroke-linejoin="round"/>
<path d="M57.0641 311.584C57.0641 311.584 57.9429 308.32 61.2746 308.32C64.3456 308.32 157.122 310.136 169.087 310.879L170.564 342.323H64.8863C64.8863 342.323 57.0641 312.492 57.0641 311.584Z" fill="#C9C9C9" stroke="#263238" stroke-width="0.965714" stroke-linecap="round" stroke-linejoin="round"/>
<path d="M377.671 349.508H53.1142C51.452 349.508 49.8578 350.168 48.6825 351.343C47.5071 352.519 46.8467 354.113 46.8467 355.775V463.935H383.775V355.64C383.78 354.836 383.626 354.038 383.321 353.294C383.017 352.549 382.568 351.873 382 351.303C381.433 350.733 380.758 350.28 380.015 349.972C379.272 349.664 378.476 349.506 377.671 349.508Z" fill="white" stroke="#263238" stroke-width="0.965714" stroke-linecap="round" stroke-linejoin="round"/>
<path d="M265.32 321.058H73.1428V365.229H270.332V326.07C270.329 324.741 269.801 323.468 268.861 322.528C267.922 321.589 266.648 321.06 265.32 321.058Z" fill="white" stroke="#263238" stroke-width="0.965714" stroke-linecap="round" stroke-linejoin="round"/>
<path d="M64.2487 349.508V327.016C64.2487 325.436 64.8764 323.92 65.9939 322.803C67.1113 321.685 68.6269 321.058 70.2071 321.058H256.725C257.962 321.058 259.148 321.545 260.027 322.415C260.906 323.285 261.406 324.466 261.419 325.703V349.469H283.166C283.775 349.465 284.377 349.582 284.94 349.813C285.502 350.045 286.013 350.385 286.443 350.816C286.872 351.246 287.212 351.758 287.442 352.321C287.672 352.884 287.788 353.487 287.783 354.095V463.974H46.354V355.369C46.354 353.815 46.9715 352.324 48.0709 351.224C49.1702 350.125 50.6612 349.508 52.2159 349.508H64.2487Z" fill="#263238" stroke="#263238" stroke-width="0.965714" stroke-linecap="round" stroke-linejoin="round"/>
<path d="M138.049 291.748C139.321 289.065 141.383 286.835 143.958 285.355C146.533 283.876 149.498 283.219 152.457 283.472C163.186 284.081 164.104 290.522 166.257 297.272C168.411 304.023 170.545 317.504 170.545 317.504C170.545 317.504 213.77 302.168 215.306 301.251C216.841 300.334 220.82 296.345 223.891 293.593C225.294 292.363 227.007 291.542 228.844 291.216C230.681 290.891 232.571 291.075 234.311 291.748C237.382 292.975 244.731 297.881 246.267 299.107C247.802 300.334 247.802 300.942 245.958 301.251C244.113 301.56 236.156 301.56 236.156 301.56C236.156 301.56 230.632 302.786 227.87 304.93C225.108 307.074 219.594 307.692 219.594 307.692C219.594 307.692 199.98 323.327 191.694 329.459C183.408 335.592 166.866 345.983 162.877 345.983C158.889 345.983 153.684 345.983 152.457 342.922C151.231 339.86 138.049 298.769 138.049 298.769" fill="white"/>
<path d="M138.049 291.748C139.321 289.065 141.383 286.835 143.958 285.355C146.533 283.876 149.498 283.219 152.457 283.472C163.186 284.081 164.104 290.522 166.257 297.272C168.411 304.023 170.545 317.504 170.545 317.504C170.545 317.504 213.77 302.168 215.306 301.251C216.841 300.334 220.82 296.345 223.891 293.593C225.294 292.363 227.007 291.542 228.844 291.216C230.681 290.891 232.571 291.075 234.311 291.748C237.382 292.975 244.731 297.881 246.267 299.107C247.802 300.334 247.802 300.942 245.958 301.251C244.113 301.56 236.156 301.56 236.156 301.56C236.156 301.56 230.632 302.786 227.87 304.93C225.108 307.074 219.594 307.692 219.594 307.692C219.594 307.692 199.98 323.327 191.694 329.459C183.408 335.592 166.866 345.983 162.877 345.983C158.889 345.983 153.684 345.983 152.457 342.922C151.231 339.86 138.049 298.769 138.049 298.769" stroke="#263238" stroke-width="0.965714" stroke-linecap="round" stroke-linejoin="round"/>
<path d="M138.049 291.748C139.295 289.527 143.843 282.98 152.458 283.472C163.187 284.081 164.104 290.522 166.258 297.272C167.107 299.938 167.957 303.675 168.672 307.209C166.122 305.925 161.835 304.834 155.219 306.157C150.467 306.994 146.03 309.099 142.375 312.25C140.444 306.311 138.155 299.368 137.547 297.552" fill="#087DF9"/>
<path d="M138.049 291.748C139.295 289.527 143.843 282.98 152.458 283.472C163.187 284.081 164.104 290.522 166.258 297.272C167.107 299.938 167.957 303.675 168.672 307.209C166.122 305.925 161.835 304.834 155.219 306.157C150.467 306.994 146.03 309.099 142.375 312.25C140.444 306.311 138.155 299.368 137.547 297.552" stroke="#263238" stroke-width="0.965714" stroke-linecap="round" stroke-linejoin="round"/>
<path d="M155.75 321.56L153.036 322.323" stroke="#263238" stroke-width="0.965714" stroke-linecap="round" stroke-linejoin="round"/>
<path d="M170.072 317.543L157.46 321.087" stroke="#263238" stroke-width="0.965714" stroke-linecap="round" stroke-linejoin="round"/>
<path d="M221.438 222.014C221.438 222.014 233.085 222.014 234.311 226.312C235.538 230.609 226.035 252.676 224.19 254.819C222.346 256.963 219.294 267.374 215.306 270.454C212.595 272.435 209.595 273.985 206.412 275.051C206.412 275.051 202.433 282.101 206.412 289.46C210.39 296.818 218.966 300.189 219.594 314.906C220.221 329.624 208.594 336.326 202.433 337.591C196.272 338.856 190.777 332.994 190.777 332.994C190.777 332.994 197.218 332.685 193.848 326.862C190.477 321.038 180.328 321.348 180.048 307.238C179.768 293.129 186.808 285.172 191.694 282.41C196.581 279.648 200.588 274.134 200.588 274.134C200.588 274.134 191.694 268.001 188.324 259.416C184.953 250.831 184.036 239.793 189.55 229.981C192.583 224.602 198.522 221.715 204.403 220.652C210.593 219.532 215.547 222.014 221.438 222.014Z" fill="#263238" stroke="#263238" stroke-width="0.965714" stroke-linecap="round" stroke-linejoin="round"/>
<path d="M224.5 257.581C224.5 257.581 221.438 250.522 217.74 252.675C214.041 254.829 217.43 264.631 219.574 265.548C221.718 266.466 223.563 264.013 223.563 264.013" fill="white"/>
<path d="M224.5 257.581C224.5 257.581 221.438 250.522 217.74 252.675C214.041 254.829 217.43 264.631 219.574 265.548C221.718 266.466 223.563 264.013 223.563 264.013" stroke="#263238" stroke-width="0.965714" stroke-linecap="round" stroke-linejoin="round"/>
<path d="M647.454 463.974H11.8977" stroke="#263238" stroke-width="1.93143" stroke-linecap="round" stroke-linejoin="round"/>
</svg>
