<svg width="27" height="27" viewBox="0 0 27 27" fill="none" xmlns="http://www.w3.org/2000/svg">
<rect width="26.2559" height="26.2559" rx="5.70781" fill="#F6931A"/>
<path d="M17.9384 13.5995C18.184 13.7296 18.4179 13.8806 18.6374 14.051C19.4038 14.6587 19.7278 15.4489 19.6045 16.4176C19.5228 17.136 19.269 17.8241 18.8644 18.4233C18.3669 19.1461 17.6605 19.5367 16.8085 19.6831C16.1022 19.8048 15.3966 19.7653 14.6919 19.6708C14.4353 19.637 14.1804 19.5935 13.9263 19.5466C13.8441 19.531 13.8186 19.5573 13.7996 19.6354C13.6056 20.4265 13.4041 21.2159 13.2117 22.0078C13.1845 22.1197 13.1516 22.1394 13.039 22.109C12.5941 21.9889 12.1451 21.8795 11.697 21.7718C11.6147 21.7537 11.6057 21.7307 11.6246 21.6534C11.8236 20.8672 12.0168 20.0795 12.2167 19.2933C12.2389 19.2045 12.2306 19.1675 12.1344 19.1445C11.7874 19.059 11.4415 18.9685 11.0967 18.8731C11.0087 18.8484 10.9832 18.8731 10.9626 18.9553C10.7685 19.7464 10.5679 20.5367 10.3747 21.3278C10.3524 21.4166 10.327 21.4314 10.239 21.41C9.78614 21.2927 9.33139 21.1795 8.87473 21.0704C8.79249 21.0506 8.78098 21.0161 8.79989 20.938C9.00054 20.1444 9.19461 19.3492 9.3969 18.5532C9.42322 18.4504 9.40183 18.4167 9.30151 18.3888C8.31471 18.1421 7.33533 17.8954 6.35182 17.6487C6.28192 17.6314 6.26054 17.6141 6.29344 17.5401C6.53356 16.9919 6.77066 16.4437 7.00475 15.8955C7.03435 15.8256 7.07136 15.8272 7.13385 15.8445C7.47265 15.9333 7.81063 16.0254 8.1519 16.101C8.57786 16.1956 8.8295 16.0287 8.93475 15.6076C9.25875 14.3078 9.58329 13.0083 9.90839 11.709C10.1551 10.7222 10.4018 9.7354 10.6485 8.74861C10.748 8.34896 10.5383 7.9641 10.128 7.80622C9.80832 7.69733 9.482 7.60916 9.15103 7.54225C9.05399 7.51841 8.95778 7.49291 8.85992 7.47482C8.80647 7.46495 8.79907 7.4444 8.8114 7.39259C8.94051 6.88028 9.06961 6.36797 9.19378 5.85401C9.21516 5.76191 9.27026 5.79151 9.32043 5.80385C9.71021 5.90006 10.0983 6.00039 10.489 6.09578C11.0794 6.23886 11.6649 6.40415 12.2586 6.53654C12.3565 6.55874 12.3935 6.54641 12.419 6.4428C12.6081 5.66241 12.8055 4.88038 12.9946 4.1041C13.0184 4.00624 13.048 3.97828 13.1508 4.00542C13.5965 4.12383 14.0447 4.23485 14.4929 4.34175C14.5874 4.36477 14.5965 4.40096 14.5751 4.48895C14.3794 5.25947 14.1894 6.03164 13.9945 6.80216C13.974 6.88439 13.9822 6.90824 14.0694 6.92797C14.418 7.00445 14.7667 7.08668 15.1129 7.17467C15.2124 7.20098 15.2404 7.16891 15.2626 7.0801C15.4468 6.32685 15.6359 5.57524 15.8193 4.82199C15.8448 4.71838 15.8736 4.68137 15.992 4.71344C16.4327 4.83268 16.8776 4.94123 17.3217 5.04731C17.4088 5.06787 17.4261 5.09665 17.4039 5.18463C17.2049 5.97078 17.0133 6.75857 16.8118 7.54389C16.7863 7.64422 16.8118 7.67382 16.9006 7.70836C17.5177 7.90937 18.1051 8.19201 18.6473 8.54878C19.1563 8.89662 19.5781 9.32094 19.8067 9.90726C20.0534 10.5495 20.0049 11.1959 19.8125 11.8389C19.5411 12.7495 18.9444 13.3251 18.0223 13.5658C17.9911 13.5707 17.9705 13.5822 17.9384 13.5995ZM14.3646 17.4809H14.4715C14.8563 17.4686 15.2346 17.4266 15.5857 17.2564C16.473 16.8255 16.663 15.6446 15.9624 14.9259C15.5512 14.5065 15.0397 14.2681 14.5044 14.0691C13.8465 13.8224 13.1533 13.6809 12.4691 13.5156C12.3696 13.4918 12.3507 13.523 12.3301 13.6069C12.0632 14.6918 11.7929 15.7757 11.5193 16.8584C11.4971 16.9456 11.5243 16.967 11.6016 16.985C11.8951 17.0558 12.1862 17.1355 12.4798 17.2071C13.0957 17.366 13.7272 17.4565 14.3629 17.4768L14.3646 17.4809ZM15.0734 12.3331C15.2847 12.3369 15.4958 12.3187 15.7033 12.2789C16.2518 12.1637 16.6482 11.8677 16.8077 11.3143C16.9673 10.7608 16.8365 10.2617 16.3966 9.86204C16.1633 9.65648 15.8984 9.48987 15.6121 9.36865C14.9731 9.0833 14.2914 8.94021 13.6122 8.78725C13.5299 8.76834 13.5233 8.81933 13.5094 8.87607C13.4107 9.27298 13.3112 9.67017 13.2109 10.0676C13.067 10.6433 12.9239 11.2246 12.7758 11.8019C12.7545 11.8841 12.7684 11.9203 12.8581 11.9401C13.0291 11.9762 13.1961 12.0281 13.3663 12.07C13.9271 12.2016 14.4904 12.3266 15.0718 12.329L15.0734 12.3331Z" fill="white"/>
</svg>
