<svg width="159" height="106" viewBox="0 0 159 106" fill="none" xmlns="http://www.w3.org/2000/svg">
<path d="M84.4577 57.9356C84.4577 61.6842 79.7929 61.4617 79.7929 61.4617H75.1281V54.6882H79.7929C84.5935 54.656 84.4577 57.9356 84.4577 57.9356ZM75.1281 44.358H78.6827C82.3738 44.553 82.2345 47.3011 82.2345 47.3011C82.2345 50.7162 78.1531 50.7719 78.1531 50.7719H75.1281V44.358ZM83.5948 52.1039C83.5948 52.1039 86.7878 50.7434 86.7593 47.1346C86.7593 47.1346 87.2449 41.2203 79.4089 40.4989H70.714V65.293H80.6805C80.6805 65.293 89.0081 65.3178 89.0081 58.2972C89.0079 58.2972 89.2049 53.5196 83.5948 52.1039ZM61.0925 35.6406H97.7001V70.1374H61.0925V35.6406ZM42.2433 57.9356C42.2433 61.6842 37.5785 61.4617 37.5785 61.4617H32.9134V54.6882H37.5785C42.3795 54.656 42.2433 57.9356 42.2433 57.9356ZM32.9134 44.358H36.4687C40.1599 44.553 40.0202 47.3011 40.0202 47.3011C40.0202 50.7162 35.939 50.7719 35.939 50.7719H32.9134V44.358ZM41.3808 52.1039C41.3808 52.1039 44.5742 50.7434 44.5455 47.1346C44.5455 47.1346 45.0308 41.2203 37.1948 40.4989H28.4994V65.293H38.4666C38.4666 65.293 46.794 65.3178 46.794 58.2972C46.794 58.2972 46.9902 53.5196 41.3808 52.1039ZM18.8784 35.6406H55.4861V70.1374H18.8784V35.6406ZM132.447 42.2764V46.8571C132.447 46.8571 127.975 44.1094 123.034 44.0541C123.034 44.0541 113.816 43.8731 113.401 52.8903C113.401 52.8903 113.068 61.1828 122.923 61.6554C122.923 61.6554 127.058 62.1534 132.668 58.5761V63.3201C132.668 63.3201 125.143 67.791 116.426 64.3474C116.426 64.3474 109.097 61.6714 108.818 52.8903C108.818 52.8903 108.514 43.8587 118.287 40.8607C118.287 40.8607 120.897 39.8615 125.587 40.3056C125.587 40.3055 128.39 40.5828 132.447 42.2764ZM103.307 70.1374H139.914V35.6406H103.307V70.1374Z" fill="black"/>
</svg>
