<svg width="91" height="36" viewBox="0 0 91 36" fill="none" xmlns="http://www.w3.org/2000/svg">
<rect y="0.272949" width="91" height="35.4545" rx="11.8182" fill="#087DF9"/>
<path d="M16.1052 25.7559C15.9865 25.7559 15.8677 25.7299 15.7489 25.6779C15.5336 25.5814 15.426 25.4552 15.426 25.2993C15.426 25.1954 15.4742 25.084 15.5707 24.9653L15.7266 24.776L15.6153 24.6535C15.5485 24.5718 15.4594 24.26 15.348 23.7181C14.8061 21.105 14.5352 18.169 14.5352 14.91C14.5352 14.0934 14.55 13.3845 14.5797 12.7832C14.6168 12.1745 14.6725 11.7996 14.7467 11.6585C14.9397 11.3913 15.233 11.2576 15.6264 11.2576H15.8603C15.9642 11.2576 16.0384 11.2502 16.083 11.2354C16.1349 11.2131 16.2055 11.1723 16.2945 11.1129C16.6731 10.8531 17.0889 10.6563 17.5417 10.5227C18.002 10.3817 18.4437 10.3111 18.8668 10.3111C19.4013 10.3111 19.8504 10.4299 20.2142 10.6675C20.5408 10.9199 20.7041 11.3096 20.7041 11.8367C20.7041 12.5568 20.4109 13.4624 19.8244 14.5537L19.6129 14.9323L19.9803 14.9434C20.7598 14.9731 21.2906 15.2701 21.5727 15.8343C21.6692 16.0644 21.7175 16.3391 21.7175 16.6583C21.7175 17.5565 21.3945 18.6923 20.7487 20.0657C20.1103 21.4391 19.2788 22.7382 18.2544 23.9631C17.6976 24.6164 17.2596 25.0766 16.9404 25.3439C16.6286 25.6185 16.3502 25.7559 16.1052 25.7559ZM16.8847 23.3395C16.9293 23.3395 17.048 23.1873 17.241 22.8829C17.7904 22.0441 18.2915 21.1199 18.7443 20.1102C19.2046 19.0932 19.5164 18.2172 19.6797 17.4823C19.7317 17.1854 19.7576 16.9107 19.7576 16.6583C19.7576 16.3539 19.7317 16.2017 19.6797 16.2017C19.5312 16.2017 19.0376 16.4838 18.1987 17.048C17.8052 17.3153 17.5565 17.4637 17.4526 17.4934C17.3784 17.5083 17.2856 17.5157 17.1742 17.5157H16.5172L16.6731 20.9677L16.8179 22.8273C16.8402 23.0945 16.8513 23.2467 16.8513 23.2838C16.8513 23.3209 16.8624 23.3395 16.8847 23.3395ZM16.5284 16.4467C16.5878 16.3873 16.6434 16.3279 16.6954 16.2685C16.7474 16.2092 16.8365 16.0904 16.9627 15.9122C17.0889 15.7266 17.2225 15.5262 17.3635 15.3109C17.809 14.6428 18.1764 13.9635 18.4659 13.2731C18.7629 12.5827 18.9113 12.0742 18.9113 11.7476C18.9113 11.5917 18.8705 11.4952 18.7889 11.4581C18.7443 11.4432 18.6998 11.4358 18.6552 11.4358C18.4325 11.4358 18.1579 11.5434 17.8312 11.7587C17.512 11.974 17.2262 12.2264 16.9738 12.5159C16.7288 12.798 16.6063 13.0467 16.6063 13.262C16.6063 13.3659 16.5841 13.4662 16.5395 13.5627C16.4876 13.7111 16.4616 14.2234 16.4616 15.0993C16.4616 15.6264 16.4838 16.0755 16.5284 16.4467Z" fill="#FFC700"/>
<path d="M24.9639 23.6736C24.7857 23.6736 24.6149 23.6624 24.4516 23.6402C23.7093 23.5214 23.1302 23.2059 22.7145 22.6936C22.3062 22.174 22.1021 21.5541 22.1021 20.834C22.1021 20.3218 22.2171 19.7873 22.4473 19.2306C22.5363 19.0227 22.5883 18.8408 22.6032 18.6849C22.618 18.529 22.644 18.4214 22.6811 18.362C22.7182 18.2952 22.7887 18.2284 22.8927 18.1616C23.0486 18.0576 23.1673 17.95 23.249 17.8386C23.7018 17.2373 24.2401 16.7659 24.8636 16.4244C25.4946 16.083 26.0997 15.9122 26.6787 15.9122C26.9682 15.9122 27.2392 15.9605 27.4916 16.057C28.0335 16.2723 28.3045 16.6212 28.3045 17.1037C28.3045 17.6753 27.9518 18.2544 27.2466 18.8408C26.5488 19.4273 25.7062 19.7502 24.7189 19.8096H24.1732L24.1064 20.0434C24.047 20.2661 24.0173 20.4963 24.0173 20.7338C24.0173 21.0827 24.0767 21.4094 24.1955 21.7137C24.3811 22.226 24.6558 22.4821 25.0195 22.4821C25.4056 22.4821 25.8955 22.3336 26.4894 22.0367C27.0907 21.7323 27.5955 21.3685 28.0038 20.9454C28.3082 20.6336 28.6162 20.4777 28.928 20.4777C29.1433 20.4777 29.34 20.5519 29.5182 20.7004C29.5924 20.7598 29.6296 20.8266 29.6296 20.9009C29.6296 21.0271 29.5071 21.2238 29.2621 21.491C28.6905 22.1592 28.0149 22.6899 27.2355 23.0834C26.456 23.4768 25.6988 23.6736 24.9639 23.6736ZM24.6966 18.6961L24.8859 18.6738C25.0121 18.6441 25.1569 18.5884 25.3202 18.5068C25.4835 18.4251 25.658 18.2952 25.8435 18.117C26.0291 17.9389 26.1887 17.7607 26.3224 17.5825C26.456 17.3969 26.5228 17.2633 26.5228 17.1816C26.5228 17.1371 26.5005 17.1148 26.456 17.1148C26.3595 17.1148 26.2073 17.1928 25.9994 17.3487C25.7916 17.4972 25.5763 17.679 25.3536 17.8943C25.1383 18.1096 24.9601 18.3175 24.8191 18.5179L24.6966 18.6961Z" fill="#FFC700"/>
<path d="M31.7892 24.3974C31.6482 24.3974 31.5108 24.3825 31.3772 24.3528C31.0728 24.2563 30.9207 24.1301 30.9207 23.9742C30.9207 23.7886 31.1248 23.6216 31.5331 23.4731C31.8523 23.3692 32.1307 23.191 32.3682 22.9386C32.6058 22.6788 32.7246 22.445 32.7246 22.2371C32.7246 22.148 32.6912 22.0775 32.6244 22.0255C32.565 21.9661 32.2309 21.8288 31.6222 21.6135C30.865 21.3537 30.3082 21.0827 29.9519 20.8006C29.5955 20.5111 29.4174 20.1659 29.4174 19.7651C29.4174 19.4013 29.551 18.9707 29.8183 18.4733C30.2191 17.7161 30.7017 17.1223 31.2659 16.6917C31.83 16.2611 32.3942 16.0458 32.9584 16.0458C33.1886 16.0458 33.4076 16.0867 33.6154 16.1683C33.8233 16.2426 33.9717 16.3316 34.0608 16.4356C34.1573 16.5321 34.2056 16.6286 34.2056 16.7251C34.2056 16.8587 34.1276 16.9775 33.9717 17.0814C33.8233 17.1779 33.6043 17.2262 33.3148 17.2262C32.706 17.2262 32.101 17.8089 31.4997 18.9744C31.3512 19.2714 31.277 19.5164 31.277 19.7094C31.277 19.9172 31.3809 20.088 31.5888 20.2216C31.8041 20.3552 32.1604 20.5 32.6578 20.6559C33.4075 20.8934 33.9198 21.1273 34.1944 21.3574C34.4691 21.5801 34.6065 21.8696 34.6065 22.226C34.6065 22.5674 34.4543 22.9052 34.1499 23.2393C33.853 23.5733 33.4855 23.8517 33.0475 24.0744C32.6169 24.2897 32.1975 24.3974 31.7892 24.3974Z" fill="#FFC700"/>
<path d="M36.8678 25.4218C36.6822 25.4218 36.5189 25.3884 36.3778 25.3216C36.1551 25.188 35.9844 24.7277 35.8656 23.9408C35.7543 23.1465 35.6986 22.1666 35.6986 21.0011C35.6986 19.6277 35.784 18.117 35.9547 16.469C35.9992 16.1349 36.0215 15.9234 36.0215 15.8343C36.0215 15.7303 35.9844 15.6784 35.9102 15.6784C35.8582 15.6784 35.7988 15.6858 35.732 15.7006C35.6652 15.7155 35.5947 15.7266 35.5204 15.7341C35.2235 15.7712 34.9637 15.7897 34.741 15.7897C34.1322 15.7897 33.7759 15.6413 33.672 15.3443C33.6497 15.2924 33.6386 15.2441 33.6386 15.1996C33.6386 15.0362 33.7944 14.9026 34.1062 14.7987C34.4106 14.6873 34.9191 14.5834 35.6318 14.4869L36.2331 14.4089C36.4187 13.0059 36.6043 12.0705 36.7899 11.6028C36.9754 11.1277 37.2613 10.8902 37.6473 10.8902H37.7252C38.2894 10.8902 38.5715 11.0832 38.5715 11.4692C38.5715 11.5954 38.5567 11.7253 38.527 11.8589C38.4899 12.0297 38.4416 12.2784 38.3822 12.605C38.2263 13.4736 38.1484 13.9635 38.1484 14.0749C38.1484 14.1046 38.2412 14.1194 38.4268 14.1194L39.3287 14.0972C40.3754 14.0972 40.9359 14.2865 41.0102 14.6651V14.7096C41.0102 14.9546 40.884 15.1179 40.6316 15.1996C40.3792 15.2812 39.8855 15.3258 39.1506 15.3332C38.4453 15.348 38.0593 15.3703 37.9925 15.4C37.9479 15.4817 37.8848 15.9085 37.8032 16.6806C37.7215 17.4526 37.6436 18.3583 37.5693 19.3976C37.5322 19.895 37.5137 20.8192 37.5137 22.1703C37.5137 22.6602 37.5174 23.1131 37.5248 23.5288C37.5322 23.9445 37.5433 24.2452 37.5582 24.4308C37.5805 24.6164 37.5916 24.7648 37.5916 24.8762C37.5916 25.0172 37.5693 25.1174 37.5248 25.1768C37.4877 25.2362 37.4209 25.2882 37.3244 25.3327C37.1907 25.3921 37.0385 25.4218 36.8678 25.4218Z" fill="#FFC700"/>
<path d="M46.016 24.7537C45.8601 24.7537 45.7042 24.7277 45.5483 24.6757C45.0435 24.5273 44.6798 23.8035 44.4571 22.5043C44.2418 21.1978 44.1341 19.1044 44.1341 16.224C44.1341 15.3406 44.1379 14.6465 44.1453 14.1417C44.1601 13.6369 44.1935 13.2657 44.2455 13.0282C44.3049 12.7906 44.3977 12.6421 44.5239 12.5827C44.6575 12.5234 44.8394 12.4937 45.0695 12.4937H45.2031C45.552 12.4937 45.7933 12.5419 45.9269 12.6384C46.0606 12.7275 46.1274 12.9205 46.1274 13.2175C46.1274 13.3288 46.1199 13.455 46.1051 13.5961C46.0828 13.945 46.0717 14.524 46.0717 15.3332C46.0717 17.5083 46.1088 18.8445 46.183 19.3419C46.918 17.2559 47.5824 15.5188 48.1763 14.1306C48.7479 12.8166 49.1785 11.9926 49.468 11.6585C49.7352 11.4284 50.0433 11.3133 50.3922 11.3133C50.7634 11.3133 51.0344 11.421 51.2051 11.6362C51.2645 11.6956 51.2942 11.7624 51.2942 11.8367C51.2942 11.9332 51.1865 12.1633 50.9712 12.5271C50.2066 13.9375 49.4234 15.8009 48.6217 18.117C47.8199 20.4332 47.3337 22.2297 47.163 23.5065C47.1333 23.8109 47.085 24.0002 47.0182 24.0744C46.9514 24.1412 46.918 24.2081 46.918 24.2749C46.918 24.4159 46.8252 24.531 46.6396 24.6201C46.4614 24.7091 46.2536 24.7537 46.016 24.7537Z" fill="#FFC700"/>
<path d="M53.1603 23.8295C52.9079 23.8295 52.6741 23.8146 52.4588 23.7849C51.8204 23.6736 51.323 23.4434 50.9666 23.0945C50.6177 22.7382 50.4433 22.341 50.4433 21.903C50.4433 21.465 50.6363 21.0271 51.0223 20.5891C51.8834 19.6685 52.9524 19.2083 54.2293 19.2083C54.6524 19.2083 55.0941 19.2565 55.5544 19.353L55.6101 19.3642C55.6546 19.3642 55.6769 19.3233 55.6769 19.2417C55.6769 19.1303 55.6398 18.8965 55.5655 18.5402C55.4393 17.9314 55.2612 17.4044 55.031 16.9589C54.8083 16.5061 54.6116 16.2797 54.4409 16.2797C54.2701 16.2797 54.0326 16.3725 53.7282 16.5581C53.4238 16.7362 53.1492 16.9404 52.9042 17.1705C52.6592 17.3932 52.5367 17.5714 52.5367 17.705C52.5367 17.8683 52.4439 17.9945 52.2583 18.0836C52.0728 18.1727 51.8686 18.2172 51.6459 18.2172C51.4752 18.2172 51.3118 18.1913 51.1559 18.1393C50.8664 18.0354 50.7217 17.8646 50.7217 17.6271C50.7217 17.2485 51.0186 16.803 51.6125 16.2908C52.2138 15.7712 52.8819 15.4 53.6169 15.1773C53.9286 15.0956 54.2256 15.0548 54.5077 15.0548C55.25 15.0548 55.8736 15.3332 56.3784 15.8899C56.8906 16.4393 57.2581 17.2447 57.4808 18.3063C57.6441 19.0932 57.7258 19.8356 57.7258 20.5334C57.7258 21.5578 57.5513 22.4264 57.2024 23.1391C57.002 23.4434 56.7385 23.5956 56.4118 23.5956C56.2337 23.5956 56.0592 23.5436 55.8885 23.4397L55.7326 23.3284L55.2426 23.4954C54.5374 23.7181 53.8433 23.8295 53.1603 23.8295ZM53.2939 22.6491C54.1996 22.6491 54.9605 22.4561 55.5767 22.0701L55.7771 21.9364V20.8675L55.3651 20.667C54.9717 20.474 54.6042 20.3775 54.2627 20.3775C53.7282 20.3775 53.2197 20.6188 52.7372 21.1013C52.4476 21.3982 52.3029 21.6878 52.3029 21.9699C52.3029 22.2074 52.4179 22.4078 52.6481 22.5712C52.7743 22.6231 52.9896 22.6491 53.2939 22.6491Z" fill="#FFC700"/>
<path d="M60.2552 24.453C60.1067 24.453 59.9694 24.4233 59.8432 24.364C59.665 24.2749 59.4757 24.0484 59.2753 23.6847C59.0823 23.3209 58.9226 22.8941 58.7964 22.4041C58.6702 21.8845 58.6071 21.1941 58.6071 20.333C58.6071 19.0041 58.7333 17.486 58.9857 15.7786C59.2381 14.0638 59.5685 12.5827 59.9768 11.3356C60.1995 10.6081 60.5781 10.2443 61.1126 10.2443C61.2388 10.2443 61.3724 10.2629 61.5135 10.3C61.855 10.352 62.0257 10.5079 62.0257 10.7677C62.0257 10.8865 61.9923 11.0424 61.9255 11.2354C61.5395 12.4306 61.2165 13.9004 60.9567 15.645C60.682 17.4934 60.541 19.2491 60.5336 20.912C60.5336 21.5504 60.5558 22.0589 60.6004 22.4375C60.6523 22.8087 60.7488 23.1873 60.8899 23.5733C60.9567 23.7589 60.9901 23.9037 60.9901 24.0076C60.9901 24.1635 60.9047 24.2712 60.734 24.3305C60.5781 24.4122 60.4185 24.453 60.2552 24.453Z" fill="#FFC700"/>
<path d="M67.3737 24.5198C67.2252 24.5198 67.0916 24.4939 66.9728 24.4419C66.6982 24.2712 66.5089 23.681 66.4049 22.6714L66.3715 22.3262L65.9595 22.7827C65.6032 23.1836 65.2246 23.4843 64.8237 23.6847C64.4228 23.8851 64.0368 23.9853 63.6656 23.9853C63.3613 23.9853 63.0792 23.9148 62.8194 23.7738C62.5595 23.6327 62.3368 23.4137 62.1512 23.1168C61.9731 22.8198 61.8394 22.4227 61.7504 21.9253C61.6613 21.4205 61.6167 20.886 61.6167 20.3218C61.6167 19.4904 61.7058 18.7072 61.884 17.9723C62.0621 17.2373 62.3108 16.7659 62.63 16.5581C62.8453 16.4467 63.0532 16.391 63.2536 16.391C63.4689 16.391 63.6545 16.443 63.8104 16.5469C63.9663 16.6509 64.0442 16.7845 64.0442 16.9478C64.0442 17.0443 64.0034 17.152 63.9217 17.2707C63.7659 17.5009 63.6434 17.9092 63.5543 18.4956C63.4652 19.0821 63.4207 19.6908 63.4207 20.3218C63.4207 21.0493 63.4875 21.6766 63.6211 22.2037C63.6805 22.4561 63.751 22.5823 63.8327 22.5823C63.8921 22.5823 63.9811 22.5229 64.0999 22.4041C64.6121 21.9439 65.065 21.2535 65.4584 20.333C65.8593 19.4124 66.1303 18.4288 66.2713 17.3821C66.301 17.1297 66.3307 16.9367 66.3604 16.803C66.3975 16.6694 66.4421 16.5729 66.494 16.5135C66.5534 16.4467 66.6388 16.3873 66.7501 16.3354C66.9209 16.2537 67.1027 16.2129 67.2958 16.2129C67.4739 16.2129 67.641 16.2463 67.7969 16.3131C67.9602 16.3799 68.0827 16.4727 68.1643 16.5915C68.246 16.7474 68.2868 17.6568 68.2868 19.3196C68.2868 20.0323 68.2757 20.7598 68.2534 21.5022C68.2386 22.2445 68.2163 22.8718 68.1866 23.384C68.1569 23.8963 68.1198 24.1895 68.0752 24.2637C68.0084 24.3454 67.9082 24.4085 67.7746 24.453C67.6484 24.4976 67.5148 24.5198 67.3737 24.5198Z" fill="#FFC700"/>
<path d="M71.7998 23.6736C71.6216 23.6736 71.4508 23.6624 71.2875 23.6402C70.5452 23.5214 69.9661 23.2059 69.5504 22.6936C69.1421 22.174 68.938 21.5541 68.938 20.834C68.938 20.3218 69.053 19.7873 69.2832 19.2306C69.3722 19.0227 69.4242 18.8408 69.4391 18.6849C69.4539 18.529 69.4799 18.4214 69.517 18.362C69.5541 18.2952 69.6246 18.2284 69.7286 18.1616C69.8845 18.0576 70.0033 17.95 70.0849 17.8386C70.5377 17.2373 71.076 16.7659 71.6995 16.4244C72.3305 16.083 72.9356 15.9122 73.5146 15.9122C73.8041 15.9122 74.0751 15.9605 74.3275 16.057C74.8694 16.2723 75.1404 16.6212 75.1404 17.1037C75.1404 17.6753 74.7877 18.2544 74.0825 18.8408C73.3847 19.4273 72.5421 19.7502 71.5548 19.8096H71.0091L70.9423 20.0434C70.8829 20.2661 70.8532 20.4963 70.8532 20.7338C70.8532 21.0827 70.9126 21.4094 71.0314 21.7137C71.217 22.226 71.4917 22.4821 71.8554 22.4821C72.2415 22.4821 72.7314 22.3336 73.3253 22.0367C73.9266 21.7323 74.4314 21.3685 74.8397 20.9454C75.1441 20.6336 75.4521 20.4777 75.7639 20.4777C75.9792 20.4777 76.1759 20.5519 76.3541 20.7004C76.4283 20.7598 76.4655 20.8266 76.4655 20.9009C76.4655 21.0271 76.343 21.2238 76.098 21.491C75.5264 22.1592 74.8508 22.6899 74.0714 23.0834C73.2919 23.4768 72.5347 23.6736 71.7998 23.6736ZM71.5325 18.6961L71.7218 18.6738C71.848 18.6441 71.9928 18.5884 72.1561 18.5068C72.3194 18.4251 72.4939 18.2952 72.6794 18.117C72.865 17.9389 73.0246 17.7607 73.1583 17.5825C73.2919 17.3969 73.3587 17.2633 73.3587 17.1816C73.3587 17.1371 73.3364 17.1148 73.2919 17.1148C73.1954 17.1148 73.0432 17.1928 72.8353 17.3487C72.6275 17.4972 72.4122 17.679 72.1895 17.8943C71.9742 18.1096 71.796 18.3175 71.655 18.5179L71.5325 18.6961Z" fill="#FFC700"/>
</svg>
