<svg width="78" height="20" viewBox="0 0 78 20" fill="none" xmlns="http://www.w3.org/2000/svg">
<path d="M2.77888 19.3964C2.63141 19.3964 2.48394 19.3641 2.33647 19.2996C2.06918 19.1798 1.93554 19.0231 1.93554 18.8295C1.93554 18.7005 1.99545 18.5622 2.11526 18.4148L2.30882 18.1797L2.17057 18.0277C2.08761 17.9263 1.97701 17.5392 1.83876 16.8663C1.16593 13.622 0.829515 9.97674 0.829515 5.93055C0.829515 4.9167 0.847949 4.03649 0.884816 3.28993C0.930901 2.53415 1.00003 2.0687 1.0922 1.89358C1.33183 1.56177 1.6959 1.39587 2.18439 1.39587H2.47472C2.60376 1.39587 2.69592 1.38665 2.75123 1.36822C2.81574 1.34057 2.9033 1.28987 3.01391 1.21614C3.48396 0.89355 4.00011 0.649303 4.56233 0.4834C5.13378 0.308281 5.68218 0.220721 6.20754 0.220721C6.87115 0.220721 7.42877 0.368191 7.8804 0.663129C8.28594 0.976502 8.48871 1.46039 8.48871 2.11478C8.48871 3.00881 8.12464 4.13327 7.39651 5.48814L7.13383 5.9582L7.59007 5.97203C8.55783 6.00889 9.21684 6.37757 9.56708 7.07805C9.6869 7.36377 9.74681 7.70479 9.74681 8.10112C9.74681 9.21635 9.34587 10.6265 8.54401 12.3316C7.75136 14.0368 6.71907 15.6497 5.44715 17.1705C4.75589 17.9816 4.21209 18.553 3.81577 18.8848C3.42866 19.2258 3.08303 19.3964 2.77888 19.3964ZM3.74664 16.3963C3.80195 16.3963 3.94941 16.2073 4.18905 15.8294C4.8711 14.7879 5.49323 13.6404 6.05546 12.3869C6.62691 11.1242 7.01401 10.0367 7.21678 9.12419C7.2813 8.75551 7.31356 8.41449 7.31356 8.10112C7.31356 7.72323 7.2813 7.53428 7.21678 7.53428C7.03245 7.53428 6.41953 7.88452 5.37802 8.585C4.88953 8.91681 4.58077 9.10114 4.45173 9.13801C4.35956 9.15644 4.24435 9.16566 4.1061 9.16566H3.29041L3.48396 13.4515L3.66369 15.7603C3.69134 16.0921 3.70517 16.2811 3.70517 16.3271C3.70517 16.3732 3.71899 16.3963 3.74664 16.3963ZM3.30424 7.83844C3.37797 7.7647 3.4471 7.69097 3.51161 7.61723C3.57613 7.5435 3.68673 7.39603 3.84342 7.17482C4.00011 6.9444 4.16601 6.69555 4.34113 6.42826C4.89414 5.59875 5.35037 4.7554 5.70983 3.89824C6.0785 3.04107 6.26284 2.40972 6.26284 2.00418C6.26284 1.81062 6.21215 1.69081 6.11076 1.64472C6.05546 1.62629 6.00016 1.61707 5.94486 1.61707C5.66835 1.61707 5.32733 1.75072 4.92179 2.018C4.52547 2.28529 4.17062 2.59866 3.85725 2.95812C3.55309 3.30836 3.40101 3.61713 3.40101 3.88441C3.40101 4.01345 3.37336 4.13788 3.31806 4.2577C3.25354 4.44203 3.22128 5.07799 3.22128 6.16558C3.22128 6.81998 3.24894 7.3776 3.30424 7.83844ZM13.7774 16.811C13.5562 16.811 13.3442 16.7972 13.1414 16.7696C12.2198 16.6221 11.5008 16.2304 10.9847 15.5944C10.4778 14.9492 10.2243 14.1796 10.2243 13.2856C10.2243 12.6496 10.3672 11.986 10.6529 11.2948C10.7635 11.0367 10.828 10.8109 10.8465 10.6173C10.8649 10.4238 10.8971 10.2901 10.9432 10.2164C10.9893 10.1334 11.0769 10.0505 11.2059 9.96753C11.3995 9.83849 11.5469 9.70485 11.6483 9.56659C12.2105 8.82003 12.8788 8.23476 13.653 7.81079C14.4364 7.38681 15.1876 7.17482 15.9065 7.17482C16.266 7.17482 16.6024 7.23473 16.9157 7.35455C17.5886 7.62184 17.925 8.05503 17.925 8.65413C17.925 9.36382 17.4872 10.0827 16.6116 10.8109C15.7452 11.539 14.6991 11.9399 13.4733 12.0137H12.7958L12.7129 12.304C12.6391 12.5805 12.6023 12.8662 12.6023 13.1612C12.6023 13.5944 12.676 13.9999 12.8235 14.3778C13.0539 15.0137 13.3949 15.3317 13.8465 15.3317C14.3258 15.3317 14.9341 15.1474 15.6715 14.7787C16.418 14.4008 17.0448 13.9492 17.5517 13.4238C17.9296 13.0367 18.3121 12.8432 18.6992 12.8432C18.9665 12.8432 19.2107 12.9353 19.4319 13.1197C19.5241 13.1934 19.5702 13.2764 19.5702 13.3685C19.5702 13.5252 19.4181 13.7695 19.114 14.1013C18.4043 14.9308 17.5655 15.5898 16.5978 16.0783C15.63 16.5668 14.6899 16.811 13.7774 16.811ZM13.4456 10.6311L13.6806 10.6035C13.8373 10.5666 14.017 10.4975 14.2198 10.3961C14.4226 10.2947 14.6392 10.1334 14.8696 9.91223C15.1 9.69102 15.2982 9.46982 15.4641 9.24861C15.63 9.01819 15.7129 8.85229 15.7129 8.7509C15.7129 8.6956 15.6853 8.66795 15.63 8.66795C15.5102 8.66795 15.3212 8.76473 15.0632 8.95828C14.8051 9.14262 14.5378 9.36843 14.2613 9.63572C13.994 9.90301 13.7728 10.1611 13.5977 10.4099L13.4456 10.6311ZM22.2515 17.7097C22.0764 17.7097 21.9059 17.6912 21.74 17.6544C21.3621 17.5345 21.1732 17.3779 21.1732 17.1843C21.1732 16.9539 21.4266 16.7465 21.9336 16.5622C22.3299 16.4331 22.6755 16.2119 22.9704 15.8986C23.2654 15.576 23.4129 15.2856 23.4129 15.0276C23.4129 14.917 23.3714 14.8294 23.2884 14.7649C23.2147 14.6912 22.7999 14.5206 22.0442 14.2534C21.104 13.9308 20.4128 13.5944 19.9704 13.2441C19.528 12.8847 19.3068 12.4561 19.3068 11.9584C19.3068 11.5067 19.4727 10.9722 19.8045 10.3546C20.3022 9.41452 20.9013 8.67717 21.6017 8.14259C22.3022 7.60802 23.0027 7.34073 23.7032 7.34073C23.9889 7.34073 24.2608 7.39142 24.5189 7.49281C24.7769 7.58497 24.9613 7.69558 25.0719 7.82461C25.1917 7.94443 25.2516 8.06425 25.2516 8.18407C25.2516 8.34997 25.1548 8.49744 24.9613 8.62648C24.7769 8.7463 24.505 8.8062 24.1456 8.8062C23.3898 8.8062 22.6386 9.52973 21.8921 10.9768C21.7077 11.3454 21.6156 11.6496 21.6156 11.8892C21.6156 12.1473 21.7446 12.3593 22.0027 12.5252C22.27 12.6911 22.7124 12.8708 23.3299 13.0644C24.2608 13.3593 24.8968 13.6497 25.2378 13.9354C25.5788 14.2119 25.7493 14.5713 25.7493 15.0137C25.7493 15.4377 25.5604 15.8571 25.1825 16.2718C24.8138 16.6866 24.3576 17.0322 23.8138 17.3087C23.2792 17.576 22.7585 17.7097 22.2515 17.7097ZM28.5569 18.9816C28.3265 18.9816 28.1237 18.9401 27.9486 18.8572C27.6721 18.6913 27.4601 18.1198 27.3127 17.1428C27.1744 16.1566 27.1053 14.94 27.1053 13.493C27.1053 11.7879 27.2113 9.91223 27.4233 7.86609C27.4786 7.45133 27.5062 7.18865 27.5062 7.07805C27.5062 6.94901 27.4601 6.88449 27.368 6.88449C27.3034 6.88449 27.2297 6.89371 27.1468 6.91214C27.0638 6.93058 26.9762 6.9444 26.8841 6.95362C26.5154 6.9997 26.1928 7.02275 25.9163 7.02275C25.1605 7.02275 24.7181 6.83841 24.5891 6.46974C24.5614 6.40522 24.5476 6.34531 24.5476 6.29001C24.5476 6.08724 24.7412 5.92133 25.1283 5.7923C25.5062 5.65405 26.1375 5.52501 27.0223 5.40519L27.7689 5.30841C27.9993 3.56643 28.2297 2.40511 28.4602 1.82445C28.6906 1.23457 29.0454 0.939634 29.5247 0.939634H29.6215C30.322 0.939634 30.6722 1.17927 30.6722 1.65855C30.6722 1.81523 30.6538 1.97653 30.6169 2.14243C30.5708 2.35442 30.5109 2.66318 30.4372 3.06872C30.2436 4.14709 30.1468 4.7554 30.1468 4.89366C30.1468 4.93052 30.262 4.94896 30.4925 4.94896L31.6123 4.92131C32.9119 4.92131 33.6078 5.15634 33.6999 5.6264V5.6817C33.6999 5.98585 33.5432 6.18862 33.2299 6.29001C32.9165 6.39139 32.3036 6.44669 31.3911 6.45591C30.5155 6.47434 30.0362 6.502 29.9533 6.53886C29.898 6.64025 29.8196 7.17022 29.7183 8.12877C29.6169 9.08732 29.5201 10.2118 29.4279 11.5021C29.3818 12.1197 29.3588 13.2672 29.3588 14.9446C29.3588 15.5529 29.3634 16.1152 29.3726 16.6313C29.3818 17.1474 29.3957 17.5207 29.4141 17.7511C29.4417 17.9816 29.4556 18.1659 29.4556 18.3042C29.4556 18.4793 29.4279 18.6037 29.3726 18.6774C29.3265 18.7512 29.2436 18.8157 29.1238 18.871C28.9579 18.9447 28.7689 18.9816 28.5569 18.9816ZM39.915 18.1521C39.7215 18.1521 39.5279 18.1198 39.3344 18.0553C38.7076 17.871 38.256 16.9723 37.9795 15.3594C37.7122 13.7372 37.5786 11.1381 37.5786 7.56193C37.5786 6.46513 37.5832 5.60335 37.5924 4.97661C37.6108 4.34986 37.6523 3.88902 37.7168 3.59408C37.7905 3.29914 37.9058 3.11481 38.0624 3.04107C38.2283 2.96734 38.4542 2.93047 38.7399 2.93047H38.9058C39.339 2.93047 39.6385 2.99038 39.8044 3.1102C39.9703 3.2208 40.0533 3.46044 40.0533 3.82911C40.0533 3.96737 40.0441 4.12405 40.0256 4.29917C39.998 4.73236 39.9841 5.45128 39.9841 6.45591C39.9841 9.15644 40.0302 10.8155 40.1224 11.433C41.0349 8.84307 41.8598 6.68633 42.5971 4.96278C43.3068 3.3314 43.8414 2.30833 44.2009 1.89358C44.5327 1.60785 44.9152 1.46499 45.3483 1.46499C45.8092 1.46499 46.1456 1.59864 46.3576 1.86593C46.4313 1.93966 46.4682 2.02261 46.4682 2.11478C46.4682 2.2346 46.3346 2.52032 46.0673 2.97195C45.1179 4.72315 44.1456 7.03657 43.1501 9.91223C42.1547 12.7879 41.551 15.0184 41.339 16.6036C41.3022 16.9815 41.2422 17.2166 41.1593 17.3087C41.0763 17.3917 41.0349 17.4746 41.0349 17.5576C41.0349 17.7327 40.9197 17.8756 40.6892 17.9862C40.468 18.0968 40.21 18.1521 39.915 18.1521ZM48.7851 17.0046C48.4717 17.0046 48.1814 16.9861 47.9141 16.9493C47.1215 16.811 46.5039 16.5253 46.0615 16.0921C45.6283 15.6497 45.4118 15.1566 45.4118 14.6128C45.4118 14.069 45.6514 13.5252 46.1307 12.9814C47.1998 11.8385 48.527 11.2671 50.1123 11.2671C50.6377 11.2671 51.1861 11.327 51.7575 11.4468L51.8267 11.4607C51.882 11.4607 51.9096 11.41 51.9096 11.3086C51.9096 11.1703 51.8635 10.88 51.7714 10.4376C51.6147 9.6818 51.3935 9.02741 51.1078 8.4744C50.8313 7.91217 50.587 7.63106 50.375 7.63106C50.163 7.63106 49.8681 7.74627 49.4902 7.97669C49.1123 8.19789 48.7713 8.45136 48.4671 8.73708C48.163 9.01358 48.0109 9.23479 48.0109 9.40069C48.0109 9.60346 47.8957 9.76015 47.6653 9.87075C47.4348 9.98135 47.1814 10.0367 46.9049 10.0367C46.6929 10.0367 46.4901 10.0044 46.2966 9.93988C45.9371 9.81084 45.7574 9.59885 45.7574 9.30391C45.7574 8.83386 46.1261 8.28085 46.8634 7.64488C47.61 6.9997 48.4395 6.53886 49.352 6.26236C49.7391 6.16097 50.1077 6.11028 50.458 6.11028C51.3797 6.11028 52.1539 6.45591 52.7806 7.14717C53.4166 7.82922 53.8728 8.82925 54.1493 10.1473C54.3521 11.1242 54.4535 12.0459 54.4535 12.9123C54.4535 14.1842 54.2369 15.2626 53.8037 16.1474C53.5548 16.5253 53.2276 16.7143 52.8221 16.7143C52.6009 16.7143 52.3843 16.6497 52.1723 16.5207L51.9787 16.3824L51.3704 16.5898C50.4948 16.8663 49.6331 17.0046 48.7851 17.0046ZM48.951 15.5391C50.0755 15.5391 51.0202 15.2995 51.7852 14.8202L52.0341 14.6543V13.3271L51.5225 13.0782C51.034 12.8386 50.5778 12.7188 50.1538 12.7188C49.4902 12.7188 48.8589 13.0183 48.2598 13.6174C47.9003 13.9861 47.7206 14.3455 47.7206 14.6958C47.7206 14.9907 47.8634 15.2396 48.1492 15.4423C48.3058 15.5068 48.5731 15.5391 48.951 15.5391ZM57.5939 17.7788C57.4095 17.7788 57.239 17.7419 57.0823 17.6682C56.8611 17.5576 56.6261 17.2765 56.3772 16.8249C56.1376 16.3732 55.9394 15.8433 55.7827 15.2349C55.6261 14.5898 55.5477 13.7326 55.5477 12.6635C55.5477 11.0136 55.7044 9.12879 56.0178 7.00892C56.3311 4.87983 56.7413 3.04107 57.2482 1.49264C57.5247 0.589395 57.9948 0.137769 58.6584 0.137769C58.8151 0.137769 58.981 0.160811 59.1561 0.206895C59.5801 0.271413 59.7921 0.464967 59.7921 0.787557C59.7921 0.935026 59.7506 1.12858 59.6676 1.36822C59.1884 2.85213 58.7874 4.67706 58.4648 6.84302C58.1238 9.13801 57.9487 11.3178 57.9395 13.3824C57.9395 14.175 57.9671 14.8064 58.0224 15.2764C58.087 15.7373 58.2068 16.2073 58.3819 16.6866C58.4648 16.917 58.5063 17.0967 58.5063 17.2258C58.5063 17.4193 58.4003 17.553 58.1883 17.6267C57.9948 17.7281 57.7966 17.7788 57.5939 17.7788ZM66.432 17.8617C66.2476 17.8617 66.0817 17.8295 65.9343 17.765C65.5932 17.553 65.3582 16.8202 65.2292 15.5668L65.1877 15.1382L64.6762 15.705C64.2338 16.2027 63.7637 16.576 63.266 16.8249C62.7683 17.0737 62.289 17.1981 61.8282 17.1981C61.4503 17.1981 61.1 17.1106 60.7774 16.9355C60.4549 16.7603 60.1784 16.4884 59.9479 16.1198C59.7267 15.7511 59.5608 15.258 59.4502 14.6405C59.3396 14.0137 59.2843 13.3501 59.2843 12.6496C59.2843 11.6173 59.3949 10.645 59.6161 9.7325C59.8373 8.82003 60.1461 8.23476 60.5424 7.97669C60.8097 7.83844 61.0678 7.76931 61.3166 7.76931C61.5839 7.76931 61.8143 7.83383 62.0079 7.96286C62.2014 8.0919 62.2982 8.2578 62.2982 8.46057C62.2982 8.58039 62.2475 8.71404 62.1461 8.86151C61.9526 9.14723 61.8005 9.65415 61.6899 10.3823C61.5793 11.1104 61.524 11.8662 61.524 12.6496C61.524 13.5529 61.607 14.3317 61.7729 14.9861C61.8466 15.2995 61.9342 15.4562 62.0355 15.4562C62.1093 15.4562 62.2199 15.3824 62.3673 15.2349C63.0033 14.6635 63.5655 13.8063 64.054 12.6635C64.5517 11.5206 64.8882 10.2993 65.0633 8.99976C65.1001 8.68639 65.137 8.44675 65.1739 8.28085C65.22 8.11494 65.2753 7.99512 65.3398 7.92139C65.4135 7.83844 65.5195 7.7647 65.6578 7.70018C65.8697 7.5988 66.0956 7.54811 66.3352 7.54811C66.5564 7.54811 66.7638 7.58958 66.9573 7.67253C67.1601 7.75549 67.3122 7.8707 67.4136 8.01816C67.515 8.21172 67.5656 9.34078 67.5656 11.4054C67.5656 12.2902 67.5518 13.1934 67.5242 14.1151C67.5057 15.0368 67.4781 15.8156 67.4412 16.4516C67.4044 17.0875 67.3583 17.4516 67.303 17.5438C67.22 17.6452 67.0956 17.7235 66.9297 17.7788C66.773 17.8341 66.6071 17.8617 66.432 17.8617ZM71.9272 16.811C71.706 16.811 71.494 16.7972 71.2912 16.7696C70.3695 16.6221 69.6506 16.2304 69.1345 15.5944C68.6276 14.9492 68.3741 14.1796 68.3741 13.2856C68.3741 12.6496 68.517 11.986 68.8027 11.2948C68.9133 11.0367 68.9778 10.8109 68.9962 10.6173C69.0147 10.4238 69.0469 10.2901 69.093 10.2164C69.1391 10.1334 69.2267 10.0505 69.3557 9.96753C69.5492 9.83849 69.6967 9.70485 69.7981 9.56659C70.3603 8.82003 71.0285 8.23476 71.8028 7.81079C72.5862 7.38681 73.3374 7.17482 74.0563 7.17482C74.4157 7.17482 74.7521 7.23473 75.0655 7.35455C75.7383 7.62184 76.0748 8.05503 76.0748 8.65413C76.0748 9.36382 75.637 10.0827 74.7614 10.8109C73.895 11.539 72.8489 11.9399 71.623 12.0137H70.9456L70.8626 12.304C70.7889 12.5805 70.752 12.8662 70.752 13.1612C70.752 13.5944 70.8258 13.9999 70.9732 14.3778C71.2037 15.0137 71.5447 15.3317 71.9963 15.3317C72.4756 15.3317 73.0839 15.1474 73.8212 14.7787C74.5678 14.4008 75.1946 13.9492 75.7015 13.4238C76.0794 13.0367 76.4619 12.8432 76.849 12.8432C77.1163 12.8432 77.3605 12.9353 77.5817 13.1197C77.6739 13.1934 77.72 13.2764 77.72 13.3685C77.72 13.5252 77.5679 13.7695 77.2637 14.1013C76.554 14.9308 75.7153 15.5898 74.7475 16.0783C73.7798 16.5668 72.8397 16.811 71.9272 16.811ZM71.5954 10.6311L71.8304 10.6035C71.9871 10.5666 72.1668 10.4975 72.3696 10.3961C72.5724 10.2947 72.789 10.1334 73.0194 9.91223C73.2498 9.69102 73.448 9.46982 73.6139 9.24861C73.7798 9.01819 73.8627 8.85229 73.8627 8.7509C73.8627 8.6956 73.8351 8.66795 73.7798 8.66795C73.66 8.66795 73.471 8.76473 73.2129 8.95828C72.9549 9.14262 72.6876 9.36843 72.4111 9.63572C72.1438 9.90301 71.9226 10.1611 71.7475 10.4099L71.5954 10.6311Z" fill="#FFC700"/>
</svg>
