<svg width="86" height="27" viewBox="0 0 86 27" fill="none" xmlns="http://www.w3.org/2000/svg">
<rect width="26.2559" height="26.2559" rx="5.70781" fill="#F6931A"/>
<path d="M17.9384 13.5995C18.184 13.7296 18.4179 13.8806 18.6374 14.051C19.4038 14.6587 19.7278 15.4489 19.6045 16.4176C19.5228 17.136 19.269 17.8241 18.8644 18.4233C18.3669 19.1461 17.6605 19.5367 16.8085 19.6831C16.1022 19.8048 15.3966 19.7653 14.6919 19.6708C14.4353 19.637 14.1804 19.5935 13.9263 19.5466C13.8441 19.531 13.8186 19.5573 13.7996 19.6354C13.6056 20.4265 13.4041 21.2159 13.2117 22.0078C13.1845 22.1197 13.1516 22.1394 13.039 22.109C12.5941 21.9889 12.1451 21.8795 11.697 21.7718C11.6147 21.7537 11.6057 21.7307 11.6246 21.6534C11.8236 20.8672 12.0168 20.0795 12.2167 19.2933C12.2389 19.2045 12.2306 19.1675 12.1344 19.1445C11.7874 19.059 11.4415 18.9685 11.0967 18.8731C11.0087 18.8484 10.9832 18.8731 10.9626 18.9553C10.7685 19.7464 10.5679 20.5367 10.3747 21.3278C10.3524 21.4166 10.327 21.4314 10.239 21.41C9.78614 21.2927 9.33139 21.1795 8.87473 21.0704C8.79249 21.0506 8.78098 21.0161 8.79989 20.938C9.00054 20.1444 9.19461 19.3492 9.3969 18.5532C9.42322 18.4504 9.40183 18.4167 9.30151 18.3888C8.31471 18.1421 7.33533 17.8954 6.35182 17.6487C6.28192 17.6314 6.26054 17.6141 6.29344 17.5401C6.53356 16.9919 6.77066 16.4437 7.00475 15.8955C7.03435 15.8256 7.07136 15.8272 7.13385 15.8445C7.47265 15.9333 7.81063 16.0254 8.1519 16.101C8.57786 16.1956 8.8295 16.0287 8.93475 15.6076C9.25875 14.3078 9.58329 13.0083 9.90839 11.709C10.1551 10.7222 10.4018 9.7354 10.6485 8.74861C10.748 8.34896 10.5383 7.9641 10.128 7.80622C9.80832 7.69733 9.482 7.60916 9.15103 7.54225C9.05399 7.51841 8.95778 7.49291 8.85992 7.47482C8.80647 7.46495 8.79907 7.4444 8.8114 7.39259C8.94051 6.88028 9.06961 6.36797 9.19378 5.85401C9.21516 5.76191 9.27026 5.79151 9.32043 5.80385C9.71021 5.90006 10.0983 6.00039 10.489 6.09578C11.0794 6.23886 11.6649 6.40415 12.2586 6.53654C12.3565 6.55874 12.3935 6.54641 12.419 6.4428C12.6081 5.66241 12.8055 4.88038 12.9946 4.1041C13.0184 4.00624 13.048 3.97828 13.1508 4.00542C13.5965 4.12383 14.0447 4.23485 14.4929 4.34175C14.5874 4.36477 14.5965 4.40096 14.5751 4.48895C14.3794 5.25947 14.1894 6.03164 13.9945 6.80216C13.974 6.88439 13.9822 6.90824 14.0694 6.92797C14.418 7.00445 14.7667 7.08668 15.1129 7.17467C15.2124 7.20098 15.2404 7.16891 15.2626 7.0801C15.4468 6.32685 15.6359 5.57524 15.8193 4.82199C15.8448 4.71838 15.8736 4.68137 15.992 4.71344C16.4327 4.83268 16.8776 4.94123 17.3217 5.04731C17.4088 5.06787 17.4261 5.09665 17.4039 5.18463C17.2049 5.97078 17.0133 6.75857 16.8118 7.54389C16.7863 7.64422 16.8118 7.67382 16.9006 7.70836C17.5177 7.90937 18.1051 8.19201 18.6473 8.54878C19.1563 8.89662 19.5781 9.32094 19.8067 9.90726C20.0534 10.5495 20.0049 11.1959 19.8125 11.8389C19.5411 12.7495 18.9444 13.3251 18.0223 13.5658C17.9911 13.5707 17.9705 13.5822 17.9384 13.5995ZM14.3646 17.4809H14.4715C14.8563 17.4686 15.2346 17.4266 15.5857 17.2564C16.473 16.8255 16.663 15.6446 15.9624 14.9259C15.5512 14.5065 15.0397 14.2681 14.5044 14.0691C13.8465 13.8224 13.1533 13.6809 12.4691 13.5156C12.3696 13.4918 12.3507 13.523 12.3301 13.6069C12.0632 14.6918 11.7929 15.7757 11.5193 16.8584C11.4971 16.9456 11.5243 16.967 11.6016 16.985C11.8951 17.0558 12.1862 17.1355 12.4798 17.2071C13.0957 17.366 13.7272 17.4565 14.3629 17.4768L14.3646 17.4809ZM15.0734 12.3331C15.2847 12.3369 15.4958 12.3187 15.7033 12.2789C16.2518 12.1637 16.6482 11.8677 16.8077 11.3143C16.9673 10.7608 16.8365 10.2617 16.3966 9.86204C16.1633 9.65648 15.8984 9.48987 15.6121 9.36865C14.9731 9.0833 14.2914 8.94021 13.6122 8.78725C13.5299 8.76834 13.5233 8.81933 13.5094 8.87607C13.4107 9.27298 13.3112 9.67017 13.2109 10.0676C13.067 10.6433 12.9239 11.2246 12.7758 11.8019C12.7545 11.8841 12.7684 11.9203 12.8581 11.9401C13.0291 11.9762 13.1961 12.0281 13.3663 12.07C13.9271 12.2016 14.4904 12.3266 15.0718 12.329L15.0734 12.3331Z" fill="white"/>
<path d="M36.6702 9.37C37.2222 9.37 37.6962 9.466 38.0922 9.658C38.5002 9.838 38.8362 10.09 39.1002 10.414C39.3642 10.738 39.5622 11.122 39.6942 11.566C39.8262 11.998 39.8922 12.466 39.8922 12.97C39.8922 13.798 39.7482 14.59 39.4602 15.346C39.1722 16.102 38.7582 16.768 38.2182 17.344C37.6902 17.92 37.0422 18.382 36.2742 18.73C35.5062 19.066 34.6422 19.234 33.6822 19.234C33.5382 19.234 33.3462 19.228 33.1062 19.216C32.8662 19.204 32.6022 19.174 32.3142 19.126C32.0262 19.078 31.7322 19.012 31.4322 18.928C31.1322 18.844 30.8562 18.736 30.6042 18.604L33.7542 5.392L36.0222 5.032L34.8702 9.856C35.1342 9.724 35.4162 9.61 35.7162 9.514C36.0162 9.418 36.3342 9.37 36.6702 9.37ZM33.9702 17.398C34.5222 17.398 35.0262 17.284 35.4822 17.056C35.9502 16.816 36.3462 16.498 36.6702 16.102C37.0062 15.706 37.2642 15.256 37.4442 14.752C37.6242 14.236 37.7142 13.702 37.7142 13.15C37.7142 12.874 37.6902 12.622 37.6422 12.394C37.5942 12.154 37.5102 11.95 37.3902 11.782C37.2702 11.602 37.1082 11.464 36.9042 11.368C36.7002 11.26 36.4422 11.206 36.1302 11.206C35.8662 11.206 35.5782 11.254 35.2662 11.35C34.9542 11.446 34.6662 11.596 34.4022 11.8L33.0882 17.308C33.1962 17.332 33.3162 17.356 33.4482 17.38C33.5922 17.392 33.7662 17.398 33.9702 17.398ZM42.9222 19H40.7622L43.0122 9.586H45.1902L42.9222 19ZM44.5422 8.164C44.2182 8.164 43.9362 8.068 43.6962 7.876C43.4562 7.684 43.3362 7.396 43.3362 7.012C43.3362 6.568 43.4862 6.202 43.7862 5.914C44.0982 5.626 44.4522 5.482 44.8482 5.482C45.1722 5.482 45.4542 5.584 45.6942 5.788C45.9462 5.98 46.0722 6.268 46.0722 6.652C46.0722 7.096 45.9162 7.462 45.6042 7.75C45.2922 8.026 44.9382 8.164 44.5422 8.164ZM48.259 7.102L50.527 6.742L49.843 9.586H52.921L52.489 11.386H49.411L48.511 15.112C48.451 15.376 48.409 15.598 48.385 15.778C48.361 15.946 48.349 16.102 48.349 16.246C48.349 16.39 48.361 16.534 48.385 16.678C48.421 16.81 48.481 16.93 48.565 17.038C48.661 17.134 48.793 17.218 48.961 17.29C49.141 17.35 49.381 17.38 49.681 17.38C50.005 17.38 50.317 17.338 50.617 17.254C50.917 17.17 51.181 17.08 51.409 16.984L51.571 18.73C51.295 18.85 50.947 18.964 50.527 19.072C50.107 19.18 49.615 19.234 49.051 19.234C48.019 19.234 47.281 19.012 46.837 18.568C46.393 18.112 46.171 17.494 46.171 16.714C46.171 16.426 46.189 16.132 46.225 15.832C46.273 15.52 46.339 15.19 46.423 14.842L48.259 7.102ZM53.3056 15.436C53.3056 14.62 53.4316 13.846 53.6836 13.114C53.9476 12.37 54.3196 11.722 54.7996 11.17C55.2796 10.606 55.8676 10.162 56.5636 9.838C57.2596 9.514 58.0516 9.352 58.9396 9.352C59.4076 9.352 59.8336 9.394 60.2176 9.478C60.6136 9.55 60.9856 9.664 61.3336 9.82L60.5596 11.566C60.3436 11.47 60.1036 11.386 59.8396 11.314C59.5756 11.242 59.2516 11.206 58.8676 11.206C58.3516 11.206 57.8836 11.314 57.4636 11.53C57.0556 11.734 56.7076 12.016 56.4196 12.376C56.1316 12.736 55.9096 13.162 55.7536 13.654C55.5976 14.146 55.5196 14.668 55.5196 15.22C55.5196 15.532 55.5496 15.82 55.6096 16.084C55.6816 16.336 55.7896 16.564 55.9336 16.768C56.0896 16.96 56.2996 17.11 56.5636 17.218C56.8276 17.326 57.1576 17.38 57.5536 17.38C57.9616 17.38 58.3516 17.326 58.7236 17.218C59.1076 17.11 59.4016 17.002 59.6056 16.894L59.7856 18.676C59.5096 18.808 59.1436 18.934 58.6876 19.054C58.2316 19.186 57.7156 19.252 57.1396 19.252C56.4796 19.252 55.9096 19.156 55.4296 18.964C54.9496 18.76 54.5476 18.49 54.2236 18.154C53.9116 17.806 53.6776 17.404 53.5216 16.948C53.3776 16.48 53.3056 15.976 53.3056 15.436ZM64.8119 19.252C63.6959 19.252 62.8439 18.922 62.2559 18.262C61.6679 17.602 61.3739 16.732 61.3739 15.652C61.3739 14.956 61.4819 14.236 61.6979 13.492C61.9139 12.748 62.2439 12.07 62.6879 11.458C63.1319 10.846 63.6899 10.342 64.3619 9.946C65.0339 9.55 65.8259 9.352 66.7379 9.352C67.8539 9.352 68.7059 9.682 69.2939 10.342C69.8819 10.99 70.1759 11.854 70.1759 12.934C70.1759 13.642 70.0679 14.368 69.8519 15.112C69.6479 15.856 69.3239 16.534 68.8799 17.146C68.4479 17.758 67.8899 18.262 67.2059 18.658C66.5339 19.054 65.7359 19.252 64.8119 19.252ZM66.4679 11.188C65.9999 11.188 65.5799 11.326 65.2079 11.602C64.8479 11.866 64.5419 12.208 64.2899 12.628C64.0499 13.048 63.8639 13.51 63.7319 14.014C63.5999 14.506 63.5339 14.986 63.5339 15.454C63.5339 16.054 63.6479 16.528 63.8759 16.876C64.1039 17.224 64.5059 17.398 65.0819 17.398C65.5499 17.398 65.9639 17.266 66.3239 17.002C66.6959 16.726 67.0019 16.384 67.2419 15.976C67.4939 15.556 67.6859 15.094 67.8179 14.59C67.9499 14.086 68.0159 13.606 68.0159 13.15C68.0159 12.55 67.9019 12.076 67.6739 11.728C67.4459 11.368 67.0439 11.188 66.4679 11.188ZM73.2445 19H71.0845L73.3345 9.586H75.5125L73.2445 19ZM74.8645 8.164C74.5405 8.164 74.2585 8.068 74.0185 7.876C73.7785 7.684 73.6585 7.396 73.6585 7.012C73.6585 6.568 73.8085 6.202 74.1085 5.914C74.4205 5.626 74.7745 5.482 75.1705 5.482C75.4945 5.482 75.7765 5.584 76.0165 5.788C76.2685 5.98 76.3945 6.268 76.3945 6.652C76.3945 7.096 76.2385 7.462 75.9265 7.75C75.6145 8.026 75.2605 8.164 74.8645 8.164ZM78.1312 9.982C78.6112 9.838 79.1572 9.706 79.7692 9.586C80.3932 9.454 81.0712 9.388 81.8032 9.388C82.9072 9.388 83.7172 9.658 84.2332 10.198C84.7492 10.738 85.0072 11.464 85.0072 12.376C85.0072 12.628 84.9832 12.898 84.9352 13.186C84.8992 13.462 84.8512 13.75 84.7912 14.05L83.6032 19H81.4252L82.5412 14.284C82.6012 14.02 82.6612 13.75 82.7212 13.474C82.7812 13.198 82.8172 12.934 82.8292 12.682C82.8412 12.262 82.7392 11.914 82.5232 11.638C82.3192 11.362 81.9112 11.224 81.2992 11.224C80.7832 11.224 80.3392 11.278 79.9672 11.386L78.1492 19H75.9712L78.1312 9.982Z" fill="#F6931A"/>
</svg>
