<svg width="159" height="106" viewBox="0 0 159 106" fill="none" xmlns="http://www.w3.org/2000/svg">
<path d="M79.6009 24.5979C78.2368 21.192 74.9137 17.5137 68.6898 18.019C60.7615 18.8809 58.2908 26.4788 59.4892 31.0115C56.3316 28.8734 50.9622 27.9332 46.2757 31.9476C40.2246 38.0133 43.4614 46.2164 46.7877 48.1841C43.1216 47.8447 37.3275 50.3219 36.0457 56.802C34.6823 64.8476 40.8154 69.5378 46.7877 69.5378H113.014C119.92 69.5378 123.752 63.5633 123.322 57.9287C122.644 50.5751 115.915 47.7537 112.244 48.3583C115.311 46.6472 119.407 38.6099 113.179 32.2913C108.235 27.589 101.933 29.3 99.7171 31.3509C100.912 27.4226 98.9527 19.3024 90.9346 18.0181C90.3801 17.9561 89.8463 17.9229 89.3378 17.9229C83.2169 17.9237 80.4645 22.3981 79.6008 24.5979" fill="white"/>
<path d="M47.3786 33.2279C43.8822 36.3931 42.6097 43.5649 48.9126 47.7574L74.0578 65.0088L61.8657 37.0765C59.3109 30.4852 52.3216 29.0478 47.3786 33.2279Z" fill="#F37021"/>
<path d="M69.0239 19.6471C64.9366 19.7304 58.799 24.5977 61.5304 32.0302L74.1403 61.7696L78.5715 30.4895C79.5967 22.7171 73.7148 19.1292 69.0239 19.6471Z" fill="#CC004C"/>
<path d="M80.5391 29.2965H82.9235C82.9235 29.2965 84.1968 29.2965 84.3701 29.8972C83.4318 30.6634 80.8778 30.7594 81.2169 34.8524L85.2252 61.7653L97.7492 31.948C100.311 25.2903 94.9339 19.7301 90.1642 19.5602C89.9415 19.5442 89.7179 19.5313 89.4864 19.5313C85.2054 19.5311 80.2995 22.6425 80.5392 29.2965" fill="#6460AA"/>
<path d="M97.2448 37.3299L85.3994 64.927L110.537 47.5846C116.332 43.4745 115.397 36.9035 112.154 33.6555C110.794 32.1267 108.297 30.9458 105.652 30.9458C102.528 30.9452 99.1834 32.6025 97.2449 37.3299" fill="#0089D0"/>
<path d="M107.722 51.511L84.1147 68.0006H113.182C119.146 68.0006 122.978 61.8518 121.275 56.2093C120.134 52.6626 116.758 49.8785 112.839 49.8745C111.19 49.8751 109.441 50.3719 107.722 51.511" fill="#0DB14B"/>
<path d="M46.701 68.0009H75.3397L51.7262 51.5113C46.271 48.0063 40.137 50.0572 37.9225 55.8737C36.0454 62.532 40.7322 68.0009 46.701 68.0009Z" fill="#FCB711"/>
<path d="M35.9458 79.9346C35.9458 82.7429 38.2414 87.8547 47.0074 87.8547C55.0895 87.8547 57.642 84.1462 57.642 82.4458H51.3851C51.3851 82.4458 51.0879 84.6923 47.5583 84.6923C44.0265 84.6923 43.0713 81.7443 43.0713 80.0397C43.0713 78.3415 44.0265 75.5526 47.5583 75.5526C51.088 75.5526 51.3852 77.5085 51.3852 77.5085H57.642C57.642 75.8061 55.7692 72.1499 47.0074 72.1499C38.2414 72.1499 35.9458 77.5939 35.9458 79.9346ZM101.565 79.9346C101.565 82.7429 103.863 87.8547 112.627 87.8547C120.708 87.8547 123.262 84.1462 123.262 82.4458H117.009C117.009 82.4458 116.711 84.6923 113.18 84.6923C109.648 84.6923 108.692 81.7443 108.692 80.0397C108.692 78.3415 109.648 75.5526 113.18 75.5526C116.711 75.5526 117.009 77.5085 117.009 77.5085H123.262C123.262 75.8061 121.391 72.1499 112.627 72.1499C103.864 72.1499 101.565 77.5939 101.565 79.9346ZM74.7424 72.4121V81.9189L67.4607 72.4121H59.2692V87.4701H64.8849V77.854L72.0392 87.4701H80.3585V72.4121H74.7424ZM92.7378 83.8727V83.8925H88.0586V81.1277H92.7378V81.1366C93.7369 81.1366 94.5444 81.7507 94.5444 82.5068C94.5444 83.2611 93.7369 83.8727 92.7378 83.8727ZM88.1016 75.3408H92.6102V75.3471C93.374 75.3471 93.9936 75.8497 93.9936 76.4682C93.9936 77.0891 93.374 77.5873 92.6102 77.5873V77.5941H88.1016V75.3408ZM97.3335 79.4647C98.3557 79.4647 100.493 78.2779 100.493 75.9788C100.493 72.7049 94.3969 72.4121 93.4617 72.4121H82.2292V87.4701H93.4617C98.864 87.4701 101.034 85.7634 101.034 82.9134C101.034 80.0634 97.3335 79.4647 97.3335 79.4647Z" fill="#292526"/>
</svg>
