<svg width="158" height="106" viewBox="0 0 158 106" fill="none" xmlns="http://www.w3.org/2000/svg">
<path d="M55.8109 40.7851H46.397C43.1869 40.7851 40.1083 42.0603 37.8384 44.3301C35.5686 46.6 34.2934 49.6786 34.2934 52.8887C34.2934 56.0987 35.5686 59.1773 37.8384 61.4472C40.1083 63.7171 43.1869 64.9923 46.397 64.9923H56.9271C57.3444 64.9923 57.7446 64.8265 58.0397 64.5314C58.3348 64.2363 58.5006 63.8361 58.5006 63.4188V35.6343C58.5034 33.2134 59.3058 30.8612 60.783 28.9431C62.2602 27.0251 64.3295 25.6486 66.6695 25.0276C69.0094 24.4066 71.4889 24.5758 73.7228 25.5089C75.9567 26.442 77.8199 28.0868 79.0229 30.1877L90.7768 50.7504V35.6343C90.7797 33.2134 91.582 30.8612 93.0592 28.9431C94.5364 27.0251 96.6058 25.6486 98.9457 25.0276C101.286 24.4066 103.765 24.5758 105.999 25.5089C108.233 26.442 110.096 28.0868 111.299 30.1877L123.053 50.7504V24.647H129.777L131.122 25.9918L132.467 24.647H139.191V70.143C139.188 72.564 138.386 74.9162 136.909 76.8342C135.432 78.7523 133.362 80.1287 131.022 80.7498C128.682 81.3708 126.203 81.2016 123.969 80.2685C121.735 79.3354 119.872 77.6906 118.669 75.5896L106.915 55.027V70.143C106.912 72.564 106.11 74.9162 104.632 76.8342C103.155 78.7523 101.086 80.1287 98.746 80.7498C96.4061 81.3708 93.9265 81.2016 91.6926 80.2685C89.4587 79.3354 87.5956 77.6906 86.3926 75.5896L74.6387 55.027V70.143C74.6387 73.057 73.4811 75.8517 71.4206 77.9123C69.36 79.9728 66.5653 81.1304 63.6513 81.1304H46.397C38.9068 81.1304 31.7234 78.1549 26.4271 72.8586C21.1307 67.5622 18.1553 60.3788 18.1553 52.8887C18.1553 45.3985 21.1307 38.2151 26.4271 32.9188C31.7234 27.6224 38.9068 24.647 46.397 24.647L55.8109 24.647V31.3712L54.466 32.716L55.8109 34.0609V40.7851Z" fill="#CC0000"/>
<path d="M55.8107 32.716H46.3968C41.0466 32.716 35.9157 34.8414 32.1326 38.6245C28.3494 42.4076 26.2241 47.5386 26.2241 52.8887C26.2241 58.2388 28.3494 63.3698 32.1326 67.1529C35.9157 70.936 41.0466 73.0613 46.3968 73.0613H63.6511C64.0343 73.0613 64.4138 72.9858 64.7679 72.8392C65.122 72.6925 65.4437 72.4776 65.7147 72.2066C65.9857 71.9356 66.2006 71.6139 66.3473 71.2598C66.4939 70.9057 66.5694 70.5263 66.5694 70.143V35.6343C66.5705 34.9922 66.7834 34.3683 67.1751 33.8594C67.5667 33.3505 68.1153 32.9851 68.7358 32.8196C69.3563 32.6541 70.014 32.6979 70.607 32.9442C71.2001 33.1905 71.6953 33.6256 72.016 34.1819L93.399 71.5954C93.7197 72.1518 94.215 72.5868 94.808 72.8331C95.4011 73.0794 96.0588 73.1232 96.6793 72.9578C97.2998 72.7923 97.8483 72.4268 98.24 71.9179C98.6317 71.409 98.8445 70.7852 98.8456 70.143V35.6343C98.8468 34.9922 99.0596 34.3683 99.4513 33.8594C99.843 33.3505 100.392 32.9851 101.012 32.8196C101.632 32.6541 102.29 32.6979 102.883 32.9442C103.476 33.1905 103.972 33.6256 104.292 34.1819L125.675 71.5954C125.996 72.1518 126.491 72.5868 127.084 72.8331C127.677 73.0794 128.335 73.1232 128.956 72.9578C129.576 72.7923 130.125 72.4268 130.516 71.9179C130.908 71.409 131.121 70.7852 131.122 70.143V24.647" stroke="white" stroke-width="2.68969"/>
</svg>
