<svg width="116" height="40" viewBox="0 0 116 40" fill="none" xmlns="http://www.w3.org/2000/svg">
<path opacity="0.75" d="M0.631238 6.3656V8.74476H2.28732V17.8882H5.10965V8.74476H7.86201V6.3656H5.10965V4.96609C5.10965 3.82317 5.45953 3.07676 6.90568 3.07676H7.90866V0.650957C7.41883 0.557656 6.88236 0.534332 6.43918 0.534332C3.9434 0.534332 2.28732 1.84054 2.28732 4.96609V6.3656H0.631238ZM8.66016 12.1036C8.66016 15.6956 11.2492 18.1681 14.818 18.1681C18.3867 18.1681 20.9758 15.6956 20.9758 12.1036C20.9758 8.51151 18.3867 6.03905 14.818 6.03905C11.2492 6.03905 8.66016 8.51151 8.66016 12.1036ZM11.5058 12.1036C11.5058 10.0043 12.8587 8.58148 14.818 8.58148C16.7773 8.58148 18.1301 10.0043 18.1301 12.1036C18.1301 14.2028 16.7773 15.6257 14.818 15.6257C12.8587 15.6257 11.5058 14.2028 11.5058 12.1036ZM30.4622 6.31895C29.9957 6.20232 29.5992 6.15567 29.2026 6.15567C27.6632 6.15567 26.5669 6.9254 26.0771 8.06833L25.9138 6.38892H23.2314V17.8882H26.0771V12.2902C26.0771 10.051 27.3599 8.95468 29.4126 8.95468H30.4622V6.31895ZM14.5097 35.646V33.0336H12.4337V21.8376H8.67839L0.957789 33.0336V35.646H9.61139V38.8882H12.4337V35.646H14.5097ZM4.13 33.0336L9.61139 25.0564V33.0336H4.13ZM16.387 30.3979C16.387 35.6693 19.0693 39.1914 23.5944 39.1914C28.1195 39.1914 30.8252 35.6693 30.8252 30.3979C30.8252 25.1031 27.9562 21.511 23.5944 21.511C19.2326 21.511 16.387 25.1031 16.387 30.3979ZM19.3259 30.3979C19.3259 26.3626 20.912 24.1467 23.5944 24.1467C26.3001 24.1467 27.8862 26.3626 27.8862 30.3979C27.8862 34.3398 26.3001 36.5557 23.5944 36.5557C20.912 36.5557 19.3259 34.3398 19.3259 30.3979ZM47.2136 39.1681C51.2488 39.1681 54.3744 36.7889 55.0275 33.1969H51.9253C51.3654 35.0862 49.5927 36.2991 47.2836 36.2991C44.158 36.2991 42.152 33.9666 42.152 30.3512C42.152 26.7125 44.1347 24.4266 47.2836 24.4266C49.5461 24.4266 51.2488 25.5929 51.832 27.5755H54.9808C54.3977 23.9135 51.3888 21.5577 47.3535 21.5577C42.362 21.5577 39.0265 25.0797 39.0265 30.3745C39.0265 35.716 42.2453 39.1681 47.2136 39.1681ZM64.5159 27.3189C64.0494 27.2023 63.6528 27.1557 63.2563 27.1557C61.7169 27.1557 60.6206 27.9254 60.1308 29.0683L59.9675 27.3889H57.2851V38.8882H60.1308V33.2902C60.1308 31.051 61.4136 29.9547 63.4662 29.9547H64.5159V27.3189ZM71.2096 39.1914C74.2186 39.1914 76.3178 37.6753 76.8076 35.1562H74.1719C73.8453 36.2525 72.819 36.8589 71.2563 36.8589C69.3669 36.8589 68.294 35.8326 68.0841 33.8033L76.761 33.78V32.917C76.761 29.3249 74.5684 27.0157 71.1163 27.0157C67.7342 27.0157 65.3783 29.5115 65.3783 33.1269C65.3783 36.6956 67.7808 39.1914 71.2096 39.1914ZM71.1396 29.3482C72.8424 29.3482 73.9387 30.3979 73.9387 31.984H68.154C68.4339 30.2579 69.4602 29.3482 71.1396 29.3482ZM83.7734 39.1914C85.5228 39.1914 87.0156 38.4217 87.7154 37.0922L87.902 38.8882H90.5144V21.5343H87.6921V28.8351C86.969 27.6921 85.5462 27.0157 83.9367 27.0157C80.4613 27.0157 78.362 29.5815 78.362 33.1735C78.362 36.7423 80.438 39.1914 83.7734 39.1914ZM84.4032 36.579C82.4206 36.579 81.2077 35.1328 81.2077 33.0802C81.2077 31.0276 82.4206 29.5582 84.4032 29.5582C86.3859 29.5582 87.6687 31.0043 87.6687 33.0802C87.6687 35.1562 86.3859 36.579 84.4032 36.579ZM94.9028 25.0564C95.8358 25.0564 96.6055 24.2867 96.6055 23.3304C96.6055 22.374 95.8358 21.6276 94.9028 21.6276C93.9231 21.6276 93.1534 22.374 93.1534 23.3304C93.1534 24.2867 93.9231 25.0564 94.9028 25.0564ZM93.48 38.8882H96.3256V27.3656H93.48V38.8882ZM103.184 38.8882V29.7448H105.423V27.3656H103.184V23.7735H100.339V27.3656H98.1227V29.7448H100.339V38.8882H103.184ZM106.306 35.3894C106.306 37.652 108.126 39.1914 110.995 39.1914C113.84 39.1914 115.823 37.7453 115.823 35.4127C115.823 33.64 114.843 32.7537 112.907 32.3105L110.831 31.8207C109.852 31.5874 109.338 31.1676 109.338 30.5145C109.338 29.6515 109.992 29.1383 111.111 29.1383C112.207 29.1383 112.861 29.7681 112.884 30.7477H115.59C115.566 28.5085 113.817 27.0157 111.228 27.0157C108.569 27.0157 106.656 28.3686 106.656 30.6311C106.656 32.4738 107.659 33.4534 109.735 33.9199L111.811 34.4098C112.837 34.643 113.14 35.0629 113.14 35.646C113.14 36.4857 112.417 37.0222 111.088 37.0222C109.782 37.0222 109.035 36.3924 109.012 35.3894H106.306Z" fill="#0F141E"/>
</svg>
