<svg width="61" height="61" viewBox="0 0 61 61" fill="none" xmlns="http://www.w3.org/2000/svg">
<rect width="61" height="61" rx="10" fill="#8C9EFF"/>
<path d="M42.3332 22.5003C42.3332 22.5003 39.0848 19.9574 35.2498 19.667L34.9042 20.359C38.3708 21.2083 39.9617 22.4224 41.6248 23.917C38.7582 22.4536 35.9298 21.0837 30.9998 21.0837C26.0698 21.0837 23.2415 22.4536 20.3748 23.917C22.038 22.4224 23.9307 21.0723 27.0955 20.359L26.7498 19.667C22.7265 20.046 19.6665 22.5003 19.6665 22.5003C19.6665 22.5003 16.0391 27.7604 15.4165 38.0837C19.0715 42.3004 24.6248 42.3337 24.6248 42.3337L25.7865 40.7867C23.8145 40.101 21.5903 38.8777 19.6665 36.667C21.9601 38.4024 25.4217 40.2087 30.9998 40.2087C36.578 40.2087 40.0396 38.4024 42.3332 36.667C40.41 38.8777 38.1859 40.101 36.2132 40.7867L37.3748 42.3337C37.3748 42.3337 42.9282 42.3004 46.5832 38.0837C45.9605 27.7604 42.3332 22.5003 42.3332 22.5003ZM26.3957 35.2503C25.0258 35.2503 23.9165 33.9824 23.9165 32.417C23.9165 30.8516 25.0258 29.5837 26.3957 29.5837C27.7656 29.5837 28.8748 30.8516 28.8748 32.417C28.8748 33.9824 27.7656 35.2503 26.3957 35.2503ZM35.604 35.2503C34.2341 35.2503 33.1248 33.9824 33.1248 32.417C33.1248 30.8516 34.2341 29.5837 35.604 29.5837C36.9739 29.5837 38.0832 30.8516 38.0832 32.417C38.0832 33.9824 36.9739 35.2503 35.604 35.2503Z" fill="white"/>
</svg>
