<svg width="28" height="27" viewBox="0 0 28 27" fill="none" xmlns="http://www.w3.org/2000/svg">
<rect x="0.996582" width="26.2559" height="26.2559" rx="5.70781" fill="#3E5C98"/>
<path fill-rule="evenodd" clip-rule="evenodd" d="M12.6364 18.8024L13.9822 14.2644L16.079 13.6697L16.5172 12.1675L14.4516 12.7935L16.6424 5.34491V5.22599C16.6408 5.1783 16.6298 5.13141 16.61 5.08798C16.5903 5.04455 16.5621 5.00544 16.5273 4.97288C16.4924 4.94033 16.4514 4.91497 16.4067 4.89825C16.3621 4.88154 16.3145 4.8738 16.2668 4.87547H13.4814C13.376 4.87222 13.2725 4.90434 13.1874 4.96673C13.1023 5.02912 13.0406 5.11818 13.012 5.21973L10.4144 14.0453L8.34884 14.6712L7.87939 16.1109L9.94496 15.4849L8.09847 21.7755H19.1148C19.2205 21.7799 19.3245 21.7482 19.4098 21.6856C19.4951 21.6231 19.5566 21.5334 19.5842 21.4313L20.2102 19.2718V19.1529C20.2086 19.1052 20.1976 19.0583 20.1778 19.0149C20.158 18.9714 20.1299 18.9323 20.095 18.8998C20.0602 18.8672 20.0192 18.8419 19.9745 18.8251C19.9298 18.8084 19.8823 18.8007 19.8346 18.8024H12.6364Z" fill="white"/>
</svg>
