<svg width="34" height="35" viewBox="0 0 34 35" fill="none" xmlns="http://www.w3.org/2000/svg">
<path d="M17.0002 5.8125C14.0662 5.8125 11.6877 8.19099 11.6877 11.125C11.6877 14.059 14.0662 16.4375 17.0002 16.4375C19.9342 16.4375 22.3127 14.059 22.3127 11.125C22.3127 8.19099 19.9342 5.8125 17.0002 5.8125Z" fill="#087DF9"/>
<path d="M11.3335 19.2708C8.39948 19.2708 6.021 21.6493 6.021 24.5833V26.2667C6.021 27.3338 6.79433 28.2436 7.84746 28.4156C13.9091 29.4052 20.0912 29.4052 26.1529 28.4156C27.206 28.2436 27.9793 27.3338 27.9793 26.2667V24.5833C27.9793 21.6493 25.6008 19.2708 22.6668 19.2708H22.1839C21.9226 19.2708 21.6628 19.3122 21.4144 19.3933L20.1882 19.7937C18.1167 20.4701 15.8836 20.4701 13.8121 19.7937L12.5859 19.3933C12.3375 19.3122 12.0778 19.2708 11.8164 19.2708H11.3335Z" fill="#087DF9"/>
</svg>
