<svg width="34" height="35" viewBox="0 0 34 35" fill="none" xmlns="http://www.w3.org/2000/svg">
<path d="M26.8527 4.89974C27.2676 4.48481 27.2676 3.81207 26.8527 3.39714C26.4377 2.9822 25.765 2.9822 25.3501 3.39714L24.3483 4.39887C23.6465 5.10074 23.6823 6.19138 24.2947 6.87466C28.4065 11.4629 28.2574 18.521 23.8475 22.931C21.5666 25.2118 18.5773 26.3529 15.5877 26.3542L15.5832 26.3542L15.5788 26.3542C12.7912 26.3532 10.004 25.3612 7.79117 23.3782C7.10789 22.7658 6.01724 22.73 5.31538 23.4318L4.31364 24.4336C3.89871 24.8485 3.89871 25.5212 4.31364 25.9362C4.72857 26.3511 5.40131 26.3511 5.81624 25.9362L6.59604 25.1564C8.89074 27.1264 11.6784 28.2204 14.5207 28.4384V30.6042H12.0415C11.4547 30.6042 10.979 31.0798 10.979 31.6667C10.979 32.2535 11.4547 32.7292 12.0415 32.7292H19.1248C19.7116 32.7292 20.1873 32.2535 20.1873 31.6667C20.1873 31.0798 19.7116 30.6042 19.1248 30.6042H16.6457V28.4385C19.8185 28.1952 22.9234 26.8603 25.3501 24.4336C30.4914 19.2922 30.7323 11.1069 26.0729 5.67954L26.8527 4.89974Z" fill="#087DF9"/>
<path fill-rule="evenodd" clip-rule="evenodd" d="M6.37482 14.6667C6.37482 9.58103 10.4975 5.45832 15.5832 5.45832C20.6688 5.45832 24.7915 9.58103 24.7915 14.6667C24.7915 19.7523 20.6688 23.875 15.5832 23.875C10.4975 23.875 6.37482 19.7523 6.37482 14.6667ZM18.4165 9.35415C16.2649 9.35415 14.5207 11.0984 14.5207 13.25C14.5207 15.4016 16.2649 17.1458 18.4165 17.1458C20.5681 17.1458 22.3123 15.4016 22.3123 13.25C22.3123 11.0984 20.5681 9.35415 18.4165 9.35415ZM8.85399 18.2083C8.85399 17.2303 9.64682 16.4375 10.6248 16.4375C11.6028 16.4375 12.3957 17.2303 12.3957 18.2083C12.3957 19.1863 11.6028 19.9792 10.6248 19.9792C9.64682 19.9792 8.85399 19.1863 8.85399 18.2083Z" fill="#087DF9"/>
</svg>
