<svg width="158" height="106" viewBox="0 0 158 106" fill="none" xmlns="http://www.w3.org/2000/svg">
<path d="M77.8925 28.4521C81.6211 28.4521 92.2332 30.4885 92.2332 40.9286C92.2332 49.3323 88.2178 51.8276 85.0628 52.4012C82.7683 52.8314 91.6596 52.4012 91.6596 62.9273C91.6596 77.8417 78.7529 77.268 78.7529 77.268H57.2418V28.4521H77.8925ZM69.288 40.355V47.7261H76.4584C76.4584 47.7261 79.3265 47.3819 79.3265 43.8541C79.3265 40.3263 76.4584 40.355 76.4584 40.355H69.288ZM69.288 58.3383V65.7954H76.4584C76.4584 65.7954 79.3265 65.5086 79.3265 61.78C79.3265 58.3383 76.4584 58.3383 76.4584 58.3383H69.288ZM18.8086 28.4521V77.268H32.2889V59.1987H40.8933V77.268H54.3736V28.4521H40.8933V46.8657H32.2889V28.4521H18.8086Z" fill="black"/>
<path d="M114.892 71.532C125.188 71.532 133.534 63.1853 133.534 52.8891C133.534 42.5928 125.188 34.2461 114.892 34.2461C104.595 34.2461 96.2485 42.5928 96.2485 52.8891C96.2485 63.1853 104.595 71.532 114.892 71.532Z" stroke="black" stroke-width="12.6199"/>
<path d="M114.892 62.9271C120.436 62.9271 124.93 58.4327 124.93 52.8886C124.93 47.3445 120.436 42.8501 114.892 42.8501C109.347 42.8501 104.853 47.3445 104.853 52.8886C104.853 58.4327 109.347 62.9271 114.892 62.9271Z" fill="black"/>
</svg>
