<svg width="27" height="27" viewBox="0 0 27 27" fill="none" xmlns="http://www.w3.org/2000/svg">
<rect x="0.249023" width="26.2559" height="26.2559" rx="5.70781" fill="#EDEFF0"/>
<g clip-path="url(#clip0_1_310)">
<path d="M13.3948 16.5387C13.3393 16.5576 13.3076 16.5092 13.2698 16.487C11.4187 15.3945 9.5696 14.3012 7.72253 13.2072C7.70464 13.1981 7.68607 13.1905 7.66699 13.1844V13.16L7.69976 13.1411C7.74628 13.1289 7.79208 13.114 7.83693 13.0967L12.1991 11.1119C12.5879 10.9347 12.9766 10.7603 13.3654 10.5848H13.3931C13.3931 10.6404 13.3931 10.6898 13.3931 10.7426C13.3946 12.6748 13.3952 14.6068 13.3948 16.5387Z" fill="#393939"/>
<path d="M13.3979 10.5861H13.3701C13.3701 10.5306 13.3757 10.4751 13.3757 10.4168C13.3757 8.24649 13.3757 6.07602 13.3757 3.90537C13.3693 3.84962 13.3731 3.79318 13.3868 3.73877H13.3984C13.6267 4.07586 13.8255 4.43128 14.0354 4.77948C15.6985 7.53806 17.3606 10.2963 19.0218 13.0541C19.038 13.0813 19.0507 13.1096 19.0652 13.1396C19.0181 13.1296 18.9719 13.116 18.9269 13.0991C18.622 12.9614 18.316 12.8214 18.0139 12.6809C17.5407 12.4643 17.0674 12.2481 16.5939 12.0323L14.3125 10.9988C14.0088 10.8588 13.7033 10.7228 13.3979 10.5861Z" fill="#343434"/>
<path d="M13.3883 3.73596C13.3746 3.79037 13.3708 3.84681 13.3772 3.90256C13.3772 6.07284 13.3772 8.24331 13.3772 10.414C13.3772 10.4695 13.3739 10.525 13.3717 10.5833C12.9829 10.7588 12.5942 10.9332 12.2054 11.1104L7.84323 13.0952C7.79838 13.1125 7.75258 13.1274 7.70605 13.1396C7.83212 12.8775 7.99595 12.6398 8.14533 12.3888C9.87615 9.51171 11.6083 6.63522 13.3417 3.75928C13.3531 3.74335 13.3656 3.72814 13.3789 3.71375L13.3883 3.73596Z" fill="#8C8C8C"/>
<path d="M13.3978 10.5863C13.7032 10.7229 14.0087 10.859 14.3136 10.9967L16.5949 12.0302C17.0688 12.2457 17.5421 12.4619 18.0149 12.6788C18.3192 12.8182 18.6258 12.9593 18.9279 13.097C18.9729 13.1139 19.0191 13.1275 19.0662 13.1376C19.1217 13.207 19.0395 13.2097 19.0145 13.2247C18.5408 13.508 18.0649 13.7873 17.5901 14.0683C16.2273 14.8747 14.8648 15.6808 13.5028 16.4868C13.4683 16.5068 13.4311 16.5218 13.395 16.539C13.395 14.6075 13.395 12.6759 13.395 10.744C13.3956 10.6913 13.3972 10.6391 13.3978 10.5863Z" fill="#141414"/>
<path d="M13.3755 17.6359L16.9436 15.5328C17.6248 15.1307 18.3057 14.7283 18.9862 14.3255L19.0478 14.2916C19.0539 14.3472 19.0156 14.3766 18.9923 14.4088C17.4373 16.6009 15.8823 18.7923 14.3274 20.983C14.0331 21.3983 13.7393 21.816 13.4422 22.228C13.4266 22.2497 13.4027 22.3513 13.355 22.2436C13.3927 22.2114 13.3761 22.1681 13.3761 22.1325C13.3765 20.6331 13.3763 19.1342 13.3755 17.6359Z" fill="#3D3D3C"/>
<path d="M13.375 17.6361C13.375 19.1344 13.375 20.6324 13.375 22.1299C13.375 22.1683 13.3917 22.2116 13.3539 22.241C13.2745 22.1933 13.2401 22.1077 13.1873 22.0372C11.3843 19.4974 9.58223 16.9573 7.78106 14.4168C7.7583 14.3846 7.73719 14.3501 7.71387 14.3146C7.76052 14.2874 7.78551 14.3246 7.81272 14.3407C9.6361 15.4173 11.4591 16.4949 13.2817 17.5734C13.3156 17.5945 13.3445 17.6161 13.375 17.6361Z" fill="#8C8C8C"/>
<path d="M13.3892 3.7367L13.3755 3.71551C13.4007 3.69947 13.3973 3.72295 13.4013 3.73498L13.3892 3.7367Z" fill="#393939"/>
</g>
<defs>
<clipPath id="clip0_1_310">
<rect width="11.4156" height="18.5823" fill="white" transform="translate(7.66895 3.71033)"/>
</clipPath>
</defs>
</svg>
