<svg width="121" height="49" viewBox="0 0 121 49" fill="none" xmlns="http://www.w3.org/2000/svg">
<path d="M7.52918 40.1556V29.9912C8.82587 30.7023 10.3735 31.1624 11.9212 31.1624C18.572 31.1624 23.0058 26.7286 23.0058 20.036C23.0058 13.9708 18.0282 8.99319 11.5029 8.99319C4.81031 8.99319 0 13.6362 0 20.036V40.1556H7.52918ZM11.5029 24.0934C9.11867 24.0934 7.52918 22.2529 7.52918 20.0778C7.52918 17.8609 9.11867 16.0622 11.5029 16.0622C13.8872 16.0622 15.4766 17.8609 15.4766 20.0778C15.4766 22.2529 13.8872 24.0934 11.5029 24.0934Z" fill="#0F141E"/>
<path d="M33.6673 31.1624C36.0933 31.1624 37.9756 30.3677 39.3141 28.9873V30.535H46.425V20.036C46.425 13.6362 41.6147 8.95136 34.9221 8.95136C28.3968 8.95136 23.4192 13.9708 23.4192 20.036C23.4192 26.143 27.5603 31.1624 33.6673 31.1624ZM34.9221 24.0934C32.5379 24.0934 30.9484 22.2529 30.9484 20.0778C30.9484 17.8609 32.5379 16.0204 34.9221 16.0204C37.3064 16.0204 38.8959 17.8609 38.8959 20.0778C38.8959 22.2529 37.3064 24.0934 34.9221 24.0934Z" fill="#0F141E"/>
<path d="M59.8472 16.3132C62.6079 16.3132 63.6536 18.5301 63.6536 21.1654V30.535H71.1828V20.2451C71.1828 14.0963 67.5855 8.99319 59.8472 8.99319C52.1088 8.99319 48.5116 14.0963 48.5116 20.2451V30.535H56.0408V21.1654C56.0408 18.5301 57.0865 16.3132 59.8472 16.3132Z" fill="#0F141E"/>
<path d="M83.9239 31.1624C90.6165 31.1624 95.4268 26.5194 95.4268 20.1196V0H87.8976V10.1644C86.6009 9.4533 85.0533 8.99319 83.5056 8.99319C76.8548 8.99319 72.421 13.427 72.421 20.1196C72.421 26.1848 77.3986 31.1624 83.9239 31.1624ZM83.9239 24.0934C81.5396 24.0934 79.9501 22.2947 79.9501 20.0778C79.9501 17.9027 81.5396 16.0622 83.9239 16.0622C86.3081 16.0622 87.8976 17.9027 87.8976 20.0778C87.8976 22.2947 86.3081 24.0934 83.9239 24.0934Z" fill="#0F141E"/>
<path d="M106.925 31.1624C109.351 31.1624 111.233 30.3677 112.572 28.9873V30.535H119.683V20.036C119.683 13.6362 114.872 8.95136 108.18 8.95136C101.654 8.95136 96.6768 13.9708 96.6768 20.036C96.6768 26.143 100.818 31.1624 106.925 31.1624ZM108.18 24.0934C105.795 24.0934 104.206 22.2529 104.206 20.0778C104.206 17.8609 105.795 16.0204 108.18 16.0204C110.564 16.0204 112.153 17.8609 112.153 20.0778C112.153 22.2529 110.564 24.0934 108.18 24.0934Z" fill="#0F141E"/>
<path d="M57.044 44.8036V44.7718C57.044 42.8329 55.7726 42.0224 53.5159 41.4343C51.5928 40.9417 51.116 40.7033 51.116 39.9722V39.9404C51.116 39.4001 51.6087 38.971 52.5464 38.971C53.4841 38.971 54.4535 39.3842 55.4389 40.0676L56.7103 38.224C55.5819 37.3181 54.1992 36.8095 52.5782 36.8095C50.3055 36.8095 48.6845 38.1445 48.6845 40.1629V40.1947C48.6845 42.4038 50.1307 43.0236 52.3716 43.5957C54.231 44.0725 54.6125 44.3904 54.6125 45.0102V45.042C54.6125 45.6936 54.0085 46.0909 53.0073 46.0909C51.7359 46.0909 50.6869 45.5665 49.6857 44.74L48.2395 46.4723C49.5744 47.6643 51.275 48.2523 52.9596 48.2523C55.3594 48.2523 57.044 47.0127 57.044 44.8036Z" fill="#0F141E"/>
<path d="M66.5638 39.2252V36.9685H57.346V39.2252H60.7312V48.0934H63.1786V39.2252H66.5638Z" fill="#0F141E"/>
<path d="M77.2666 48.0934L74.5489 44.1202C75.9634 43.5957 76.9328 42.4674 76.9328 40.6715V40.6397C76.9328 38.3511 75.3595 36.9685 72.7372 36.9685H67.6515V48.0934H70.099V44.5334H72.022L74.4059 48.0934H77.2666ZM74.4536 40.7986C74.4536 41.7363 73.7702 42.372 72.5782 42.372H70.099V39.1776H72.5305C73.7225 39.1776 74.4536 39.7179 74.4536 40.7668V40.7986Z" fill="#0F141E"/>
<path d="M86.8127 48.0934V45.9161H80.7734V43.5799H86.018V41.4025H80.7734V39.1458H86.7332V36.9685H78.3418V48.0934H86.8127Z" fill="#0F141E"/>
<path d="M99.033 48.0934L94.2651 36.889H92.0084L87.2405 48.0934H89.7357L90.7528 45.5982H95.4571L96.4742 48.0934H99.033ZM94.583 43.4368H91.6269L93.105 39.8292L94.583 43.4368Z" fill="#0F141E"/>
<path d="M111.08 48.0934V36.9685H108.442L105.518 41.6727L102.594 36.9685H99.9554V48.0934H102.355V40.8781L105.454 45.5823H105.518L108.649 40.8304V48.0934H111.08Z" fill="#0F141E"/>
<path d="M121 44.8036V44.7718C121 42.8329 119.729 42.0224 117.472 41.4343C115.549 40.9417 115.072 40.7033 115.072 39.9722V39.9404C115.072 39.4001 115.565 38.971 116.502 38.971C117.44 38.971 118.409 39.3842 119.395 40.0676L120.666 38.224C119.538 37.3181 118.155 36.8095 116.534 36.8095C114.261 36.8095 112.64 38.1445 112.64 40.1629V40.1947C112.64 42.4038 114.087 43.0236 116.328 43.5957C118.187 44.0725 118.568 44.3904 118.568 45.0102V45.042C118.568 45.6936 117.964 46.0909 116.963 46.0909C115.692 46.0909 114.643 45.5665 113.642 44.74L112.195 46.4723C113.53 47.6643 115.231 48.2523 116.916 48.2523C119.315 48.2523 121 47.0127 121 44.8036Z" fill="#0F141E"/>
</svg>
