<svg width="159" height="106" viewBox="0 0 159 106" fill="none" xmlns="http://www.w3.org/2000/svg">
<path d="M32.3144 77.0112H31.1152V28.7662H32.3144V77.0112Z" fill="#3067BA"/>
<path d="M18.8544 30.9159H8.92368C7.76517 30.9182 6.65483 31.3797 5.83604 32.1993C5.01725 33.0189 4.5568 34.1297 4.55566 35.2882V68.9261C4.55566 71.337 6.51272 73.2983 8.92368 73.2983H18.8502C21.2611 73.2983 23.2225 71.3328 23.2225 68.9261L23.2267 35.2882C23.2267 32.8772 21.2654 30.9159 18.8587 30.9159" fill="white"/>
<path d="M18.8552 72.2793C20.7094 72.2793 22.2125 70.7891 22.2125 68.9219V35.2884C22.2131 34.8475 22.1268 34.4107 21.9586 34.0032C21.7904 33.5956 21.5436 33.2253 21.2322 32.9131C20.9209 32.601 20.551 32.3531 20.1439 32.1839C19.7368 32.0147 19.3003 31.9273 18.8594 31.9267H8.92439C8.4835 31.9273 8.04702 32.0147 7.6399 32.1839C7.23278 32.3531 6.86297 32.601 6.55161 32.9131C6.24024 33.2253 5.99342 33.5956 5.82522 34.0032C5.65701 34.4107 5.57073 34.8475 5.57129 35.2884V68.9219C5.57129 70.7762 7.07013 72.2793 8.92867 72.2793H18.8552Z" fill="white"/>
<path d="M18.2293 67.4061C17.8782 65.9372 16.7048 65.0465 17.3086 64.5626C17.1587 64.0744 16.859 63.4663 16.8718 63.4706C15.0518 62.4214 13.4973 60.7256 13.2361 60.4815C12.9192 60.1346 12.3796 59.7835 12.2726 59.5051C11.8358 59.1026 9.68602 56.0621 9.19784 54.9401L8.31998 54.8116C7.93457 53.2015 6.60702 51.844 6.57704 50.221C6.55991 49.6043 6.85113 48.294 6.96247 48.0328C7.12659 47.7691 7.33188 47.5333 7.57056 47.3346V46.8979C5.67347 46.9536 6.22162 46.7608 5.89188 46.0242C5.66492 45.5104 5.82336 45.3991 5.909 45.0394C6.15738 44.0073 7.00958 42.3843 7.36502 41.652C7.46779 41.2837 7.83605 40.3929 7.83605 40.3929C9.24922 37.5109 9.77596 37.7208 11.4504 37.5624L11.5403 37.4339C13.2233 37.3697 12.9535 37.2369 13.1804 35.6225C12.9363 35.7253 12.8678 35.1086 12.8678 35.1086C12.7308 34.1879 13.1247 34.3635 13.3046 34.3463C13.3474 32.8304 13.4973 32.3508 14.5979 31.9311H8.92379C8.03336 31.9311 7.17939 32.2848 6.54976 32.9144C5.92013 33.544 5.56641 34.398 5.56641 35.2884V68.9263C5.56641 70.7806 7.06953 72.2837 8.92379 72.2837H18.8588C17.7197 71.6713 18.3921 70.498 18.4306 68.2797C17.891 67.8001 18.2507 67.5945 18.225 67.4061" fill="#106BB6"/>
<path d="M16.4101 38.8127C16.7099 38.9926 16.8683 39.1339 17.1724 39.3266C17.9774 39.8405 18.9709 40.7484 18.8425 43.8745C19.078 44.5554 19.1765 45.8958 19.3906 46.3154C19.8103 47.1591 20.0887 47.7029 20.2129 48.4865C20.2129 48.4865 20.337 49.7198 20.4912 49.8097C21.3348 49.9982 21.0907 50.0796 21.2106 50.2295C21.3391 50.3922 21.8273 50.388 21.8273 50.8376C21.9859 51.0523 22.1154 51.287 22.2127 51.5356V35.2883C22.2127 34.3987 21.8595 33.5454 21.2308 32.9159C20.6021 32.2863 19.7493 31.9321 18.8596 31.931H15.6479C16.1617 32.1151 16.4529 32.3336 16.6285 32.6762C17.0396 32.7104 17.5278 33.6396 16.7656 35.0057C17.0996 35.2369 16.8384 35.5753 16.6028 35.9735C16.5257 36.0934 16.4444 36.3161 16.226 36.3033C15.9262 36.9199 15.5751 37.5152 15.3138 37.5452C15.2367 37.6437 15.1768 37.9091 15.2924 38.0333C15.689 38.19 16.0599 38.4051 16.393 38.6714L16.4101 38.8127ZM19.3606 72.2407C20.8295 71.35 19.9174 69.6585 19.639 68.6607C19.6219 68.605 19.6647 68.5322 19.6904 68.4894C19.7632 68.348 19.6047 68.0312 19.6047 68.0312C19.4292 67.8727 19.3821 67.0463 19.2879 66.6694C19.1294 66.0399 19.5662 64.9565 19.5662 64.5882C19.5662 64.2242 19.2878 63.7146 18.7825 63.0679C18.654 62.9266 18.2858 59.7749 17.9603 58.9784C17.5064 57.8735 17.3608 58.049 16.8212 56.7386C16.4016 55.8094 16.7356 54.4475 15.7892 51.2829C15.8666 51.2256 15.9383 51.1612 16.0033 51.0902C16.0033 51.0902 15.2496 48.3494 15.0055 47.5915C14.7614 46.8421 14.3203 46.7908 14.3203 46.7908C14.3203 46.7908 14.3203 46.4824 14.3503 46.4054C14.3846 46.2812 15.2582 43.9943 15.3353 43.9215C15.3438 43.8701 16.6071 43.0095 16.6285 43.1379C16.7356 43.6946 17.2238 46.5466 17.4336 47.0005C17.6434 47.4544 18.3757 48.8548 18.7183 49.7198C18.2187 49.842 17.759 50.0907 17.3833 50.4419C17.0076 50.7931 16.7286 51.235 16.5731 51.7252C16.4176 52.2154 16.3908 52.7374 16.4954 53.2409C16.5999 53.7445 16.8322 54.2127 17.17 54.6005C17.5078 54.9883 17.9397 55.2828 18.4241 55.4554C18.9085 55.6281 19.4292 55.6731 19.9362 55.5864C20.4431 55.4996 20.9192 55.2839 21.3186 54.96C21.718 54.6361 22.0274 54.2148 22.217 53.7368L22.2127 68.9219C22.2189 69.7224 21.9367 70.4982 21.4177 71.1077C20.8987 71.7171 20.1776 72.1193 19.3864 72.2407H19.3606Z" fill="#EB1A4D"/>
<path d="M7.35645 64.931H8.49127L9.29208 67.693L9.32635 67.8901H9.33919V64.931H10.3413V69.9585H9.21073L8.40135 67.0293L8.37136 66.8495H8.3628V69.9585H7.35645V64.931ZM11.9343 66.9179H12.2512C12.6195 66.9179 12.658 66.6439 12.658 66.3313C12.658 65.9801 12.5809 65.7832 12.294 65.7832H11.9343V66.9179ZM11.9343 69.102H12.2769C12.6623 69.102 12.7051 68.9092 12.7051 68.4125C12.7051 68.0699 12.6623 67.7316 12.3026 67.7316H11.9343V69.102ZM10.7352 64.931H12.3797C13.2233 64.931 13.6344 65.2479 13.6344 66.1129C13.6344 66.6396 13.5573 67.1064 12.992 67.2948V67.3076C13.5616 67.4061 13.7586 67.8302 13.7586 68.464C13.7586 69.3076 13.4502 69.9542 12.4182 69.9542H10.7395L10.7352 64.931ZM15.4715 65.8003L15.1846 68.0614H15.7627L15.4972 65.8046V65.689H15.4801L15.4715 65.8003ZM14.7178 64.931H16.2595L17.2016 69.9585H15.9811L15.8741 68.8537H15.0647L14.9448 69.9585H13.7886L14.7178 64.931Z" fill="white"/>
<path d="M133.193 36.5474H140.388L143.792 61.0596H143.869L147.308 36.5474H154.502L148.032 68.2539H139.467L133.193 36.5474ZM41.7695 36.5474H49.4906L55.0063 57.154H55.0876V36.5474H61.327V68.2539H53.7301L47.8505 46.4054H47.7691V68.2539H41.7695V36.5474ZM70.8039 62.7468H72.8422C75.5615 62.7468 76.4823 60.8412 76.4823 58.6186C76.4823 55.5096 75.0434 54.1736 72.9621 54.1736H70.8039V62.7468ZM70.8039 49.2017H72.6453C74.9663 49.2017 75.9213 47.7371 75.9213 45.4718C75.9213 43.8316 75.1247 42.0544 72.6838 42.0544H70.8039V49.2017ZM64.0848 36.5474H74.5252C79.4071 36.5474 82.6445 39.0782 82.6445 44.3626C82.6445 48.0455 80.8888 50.9361 78.1652 51.5142V51.6041C80.2807 51.9553 83.4411 52.9787 83.4411 59.4622C83.4411 63.1921 81.9636 68.2539 74.0027 68.2539H64.0848V36.5474ZM95.0034 42.32H94.9177L92.5624 56.4389H97.4401L95.0034 42.32ZM90.9223 36.5474H99.3157L106.442 68.2539H99.4785L98.4421 62.2158H91.6032L90.6012 68.2539H83.6423L90.9223 36.5474ZM118.758 42.5897H112.758V36.5517H131.472V42.5897H125.477V68.2539H118.753L118.758 42.5897Z" fill="#106BB6"/>
</svg>
