<svg width="28" height="27" viewBox="0 0 28 27" fill="none" xmlns="http://www.w3.org/2000/svg">
<rect x="0.747559" width="26.2559" height="26.2559" rx="5.70781" fill="#2775CA"/>
<path d="M17.073 14.589C17.073 12.9058 16.0649 12.3286 14.0486 12.0885C12.6084 11.8959 12.3203 11.5113 12.3203 10.838C12.3203 10.1648 12.8004 9.73154 13.7605 9.73154C14.6247 9.73154 15.1071 10.0202 15.3448 10.7414C15.3694 10.8111 15.4148 10.8716 15.4749 10.9147C15.535 10.9577 15.6069 10.9812 15.6808 10.982H16.4589C16.5034 10.9832 16.5477 10.9752 16.5891 10.9587C16.6305 10.9422 16.6681 10.9175 16.6996 10.886C16.7311 10.8545 16.7559 10.817 16.7725 10.7756C16.7891 10.7343 16.7971 10.69 16.7961 10.6454V10.5974C16.7023 10.0763 16.4392 9.60072 16.0475 9.24442C15.6558 8.88811 15.1576 8.67102 14.6299 8.6268V7.47875C14.6299 7.28614 14.4859 7.14212 14.2459 7.09412H13.5229C13.3302 7.09412 13.1862 7.23813 13.1382 7.47875V8.58348C11.698 8.77551 10.7859 9.73623 10.7859 10.937C10.7859 12.5218 11.746 13.1464 13.7629 13.3865C15.1094 13.6265 15.5391 13.9134 15.5391 14.6832C15.5391 15.4531 14.8664 15.9806 13.9549 15.9806C12.7062 15.9806 12.2741 15.4537 12.1301 14.7312C12.1156 14.6521 12.0744 14.5802 12.0134 14.5278C11.9523 14.4754 11.8751 14.4455 11.7946 14.4432H10.9715C10.927 14.4422 10.8828 14.4501 10.8414 14.4667C10.8001 14.4832 10.7626 14.508 10.7311 14.5395C10.6997 14.5709 10.6749 14.6085 10.6584 14.6498C10.6418 14.6911 10.6338 14.7353 10.6349 14.7798V14.8278C10.8275 16.0297 11.5973 16.895 13.1845 17.1351V18.2925C13.1845 18.4851 13.3285 18.6291 13.5685 18.6771H14.2886C14.4806 18.6771 14.6247 18.5331 14.6727 18.2925V17.138C16.1129 16.898 17.073 15.8875 17.073 14.589Z" fill="white"/>
<path d="M11.4543 19.6343C7.70743 18.2878 5.7819 14.1065 7.17643 10.4048C7.89711 8.38557 9.48367 6.84761 11.4543 6.12634C11.6469 6.03033 11.7429 5.88631 11.7429 5.64569V4.97302C11.7429 4.78041 11.6469 4.63639 11.4543 4.58838C11.4063 4.58838 11.3103 4.58838 11.2622 4.63639C6.69578 6.07834 4.19594 10.9334 5.63789 15.5005C6.05689 16.8196 6.78639 18.0189 7.76509 18.9976C8.74379 19.9763 9.9431 20.7058 11.2622 21.1248C11.3022 21.1479 11.3471 21.1612 11.3933 21.1636C11.4394 21.166 11.4854 21.1575 11.5276 21.1387C11.5698 21.1199 11.607 21.0914 11.636 21.0556C11.6651 21.0197 11.6853 20.9774 11.6949 20.9322C11.7429 20.8842 11.7429 20.8362 11.7429 20.7402V20.0669C11.7429 19.9229 11.6 19.7303 11.4543 19.6343ZM16.5476 4.63639C16.5077 4.6133 16.4628 4.59998 16.4167 4.59753C16.3706 4.59508 16.3246 4.60357 16.2824 4.6223C16.2403 4.64102 16.2031 4.66945 16.174 4.70527C16.1449 4.74109 16.1247 4.78328 16.115 4.82841C16.067 4.87642 16.067 4.92442 16.067 5.02102V5.6937C16.067 5.88631 16.211 6.07833 16.3556 6.17435C20.1025 7.52087 22.028 11.7027 20.6335 15.4039C20.279 16.3878 19.7118 17.2813 18.9724 18.0209C18.233 18.7604 17.3395 19.3277 16.3556 19.6823C16.163 19.7783 16.067 19.9229 16.067 20.163V20.8356C16.067 21.0277 16.163 21.1723 16.3556 21.2203C16.4036 21.2203 16.4996 21.2203 16.5476 21.1723C21.1141 19.7297 23.6139 14.8746 22.172 10.3082C21.7543 8.98293 21.026 7.77669 20.0476 6.79C19.0693 5.8033 17.8693 5.06472 16.5476 4.6358V4.63639Z" fill="white"/>
</svg>
