<svg width="106" height="32" viewBox="0 0 106 32" fill="none" xmlns="http://www.w3.org/2000/svg">
<path d="M4.30881 0.0488752C3.78351 -0.121674 3.21942 0.165902 3.04888 0.691193L0.269615 9.25132C0.0990658 9.77661 0.386642 10.3407 0.911933 10.5112C1.43722 10.6818 2.00132 10.3942 2.17186 9.86893L4.64232 2.25993L12.2513 4.73039C12.7766 4.90093 13.3407 4.61336 13.5112 4.08807C13.6818 3.56278 13.3942 2.99868 12.8689 2.82814L4.30881 0.0488752ZM3.10909 1.45419C4.52635 4.23418 7.44225 8.34628 11.6336 11.7741C15.8322 15.2079 21.3689 18 28 18V16C21.9566 16 16.8527 13.4588 12.8997 10.2259C8.93945 6.98705 6.19261 3.09915 4.89091 0.545812L3.10909 1.45419Z" fill="#FFC700"/>
<path d="M38.2397 23.5161C38.0738 23.5161 37.9125 23.4977 37.7558 23.4608C37.3042 23.3133 37.0784 23.1198 37.0784 22.8802C37.0784 22.705 37.2028 22.5345 37.4517 22.3686C38.6683 21.6681 39.5623 20.7372 40.1338 19.5759C40.3365 19.1796 40.4379 18.8708 40.4379 18.6496C40.4379 18.3178 40.1937 18.115 39.7052 18.0413C38.6452 17.7832 37.8388 17.4883 37.2857 17.1565C36.3548 16.5943 35.8894 15.8062 35.8894 14.7924C35.8894 13.9352 36.1383 12.9905 36.636 11.9582C37.1429 10.9167 37.7512 10.0273 38.4609 9.28993C39.1798 8.54336 39.8941 8.14704 40.6038 8.10095H41.2121C42.1983 8.10095 42.779 8.13321 42.9541 8.19773C43.2767 8.3452 43.438 8.52954 43.438 8.75074C43.438 8.87056 43.3873 8.99038 43.2859 9.1102C43.1845 9.23002 43.0463 9.47426 42.8712 9.84294C42.696 10.2024 42.5301 10.5711 42.3734 10.949C42.226 11.3176 42.1522 11.5481 42.1522 11.6402C42.1522 11.8061 42.0462 11.9352 41.8343 12.0273C41.6315 12.1195 41.4057 12.1656 41.1568 12.1656C40.7144 12.1656 40.3872 12.055 40.1752 11.8338C40.1199 11.76 40.0923 11.5665 40.0923 11.2531C40.0923 11.1149 40.0969 10.9812 40.1061 10.8522C40.1245 10.7231 40.143 10.631 40.1614 10.5757C40.1891 10.5112 40.2029 10.4743 40.2029 10.4651C40.2029 10.4559 40.1983 10.4512 40.1891 10.4512C40.1614 10.4512 40.0646 10.5757 39.8987 10.8245C39.7328 11.0642 39.5531 11.3407 39.3595 11.654C39.166 11.9674 39.0093 12.2485 38.8895 12.4974C38.4655 13.373 38.2535 14.0919 38.2535 14.6541C38.2535 15.1426 38.4286 15.5436 38.7789 15.8569C39.1383 16.1611 39.6867 16.4053 40.4241 16.5897C41.2628 16.8017 41.8803 17.0689 42.2767 17.3915C42.6822 17.7049 42.885 18.1058 42.885 18.5943C42.885 19.0275 42.7283 19.5437 42.4149 20.1428C41.8896 21.1474 41.2352 21.9631 40.4517 22.5898C39.6775 23.2074 38.9402 23.5161 38.2397 23.5161ZM46.4686 23.0046C46.1553 23.0046 45.8649 22.9861 45.5976 22.9493C44.805 22.811 44.1875 22.5253 43.7451 22.0921C43.3119 21.6497 43.0953 21.1566 43.0953 20.6128C43.0953 20.069 43.3349 19.5252 43.8142 18.9814C44.8833 17.8385 46.2106 17.2671 47.7959 17.2671C48.3212 17.2671 48.8696 17.327 49.4411 17.4468L49.5102 17.4607C49.5655 17.4607 49.5931 17.41 49.5931 17.3086C49.5931 17.1703 49.5471 16.88 49.4549 16.4376C49.2982 15.6818 49.077 15.0274 48.7913 14.4744C48.5148 13.9122 48.2705 13.6311 48.0585 13.6311C47.8466 13.6311 47.5516 13.7463 47.1737 13.9767C46.7958 14.1979 46.4548 14.4514 46.1507 14.7371C45.8465 15.0136 45.6944 15.2348 45.6944 15.4007C45.6944 15.6035 45.5792 15.7601 45.3488 15.8707C45.1184 15.9814 44.8649 16.0367 44.5884 16.0367C44.3764 16.0367 44.1736 16.0044 43.9801 15.9399C43.6206 15.8108 43.4409 15.5989 43.4409 15.3039C43.4409 14.8339 43.8096 14.2808 44.5469 13.6449C45.2935 12.9997 46.123 12.5389 47.0355 12.2624C47.4226 12.161 47.7913 12.1103 48.1415 12.1103C49.0632 12.1103 49.8374 12.4559 50.4641 13.1472C51.1001 13.8292 51.5563 14.8292 51.8328 16.1473C52.0356 17.1242 52.137 18.0459 52.137 18.9123C52.137 20.1842 51.9204 21.2626 51.4872 22.1474C51.2383 22.5253 50.9112 22.7143 50.5056 22.7143C50.2844 22.7143 50.0678 22.6497 49.8558 22.5207L49.6623 22.3824L49.054 22.5898C48.1784 22.8663 47.3166 23.0046 46.4686 23.0046ZM46.6345 21.5391C47.759 21.5391 48.7037 21.2995 49.4687 20.8202L49.7176 20.6543V19.3271L49.206 19.0782C48.7175 18.8386 48.2613 18.7188 47.8373 18.7188C47.1737 18.7188 46.5424 19.0183 45.9433 19.6174C45.5838 19.9861 45.4041 20.3455 45.4041 20.6958C45.4041 20.9907 45.547 21.2396 45.8327 21.4423C45.9894 21.5068 46.2566 21.5391 46.6345 21.5391ZM56.0378 23.8617C55.8811 23.8617 55.7152 23.8387 55.5401 23.7926C54.9502 23.682 54.4893 23.1244 54.1575 22.1198C53.8349 21.1059 53.5308 19.304 53.2451 16.7141C53.1252 15.7463 53.0653 15.0182 53.0653 14.5297C53.0653 14.0228 53.1483 13.7094 53.3142 13.5896C53.4801 13.4698 53.7612 13.4099 54.1575 13.4099C54.4986 13.4099 54.7474 13.4559 54.9041 13.5481C55.07 13.6311 55.1898 13.8384 55.2635 14.1702C55.3465 14.502 55.4248 15.0182 55.4986 15.7187C55.6184 16.8708 55.7843 18.1565 55.9963 19.5759C56.0977 20.2211 56.1806 20.6635 56.2451 20.9031C56.5493 20.2027 56.9272 19.069 57.3788 17.5021C57.7567 16.1473 58.0562 14.9583 58.2775 13.9352C58.4249 13.0965 58.7613 12.6771 59.2867 12.6771C59.4434 12.6771 59.6185 12.7094 59.8121 12.7739C60.1439 12.9214 60.3098 13.4099 60.3098 14.2394C60.3098 15.1703 60.1024 16.4192 59.6876 17.986C59.1438 20.0045 58.577 21.4884 57.9871 22.4377C57.4065 23.3871 56.7567 23.8617 56.0378 23.8617ZM64.0887 22.811C63.8675 22.811 63.6555 22.7972 63.4527 22.7696C62.5311 22.6221 61.8121 22.2304 61.296 21.5944C60.7891 20.9492 60.5356 20.1796 60.5356 19.2856C60.5356 18.6496 60.6785 17.986 60.9642 17.2948C61.0748 17.0367 61.1393 16.8109 61.1578 16.6173C61.1762 16.4238 61.2084 16.2901 61.2545 16.2164C61.3006 16.1334 61.3882 16.0505 61.5172 15.9675C61.7108 15.8385 61.8582 15.7048 61.9596 15.5666C62.5218 14.82 63.1901 14.2348 63.9643 13.8108C64.7477 13.3868 65.4989 13.1748 66.2178 13.1748C66.5773 13.1748 66.9137 13.2347 67.227 13.3546C67.8999 13.6218 68.2363 14.055 68.2363 14.6541C68.2363 15.3638 67.7985 16.0827 66.9229 16.8109C66.0565 17.539 65.0104 17.9399 63.7846 18.0137H63.1071L63.0242 18.304C62.9504 18.5805 62.9136 18.8662 62.9136 19.1612C62.9136 19.5944 62.9873 19.9999 63.1348 20.3778C63.3652 21.0137 63.7062 21.3317 64.1578 21.3317C64.6371 21.3317 65.2454 21.1474 65.9828 20.7787C66.7293 20.4008 67.3561 19.9492 67.863 19.4238C68.2409 19.0367 68.6234 18.8432 69.0105 18.8432C69.2778 18.8432 69.522 18.9353 69.7432 19.1197C69.8354 19.1934 69.8815 19.2764 69.8815 19.3685C69.8815 19.5252 69.7294 19.7695 69.4253 20.1013C68.7156 20.9308 67.8768 21.5898 66.9091 22.0783C65.9413 22.5668 65.0012 22.811 64.0887 22.811ZM63.7569 16.6311L63.9919 16.6035C64.1486 16.5666 64.3283 16.4975 64.5311 16.3961C64.7339 16.2947 64.9505 16.1334 65.1809 15.9122C65.4113 15.691 65.6095 15.4698 65.7754 15.2486C65.9413 15.0182 66.0242 14.8523 66.0242 14.7509C66.0242 14.6956 65.9966 14.668 65.9413 14.668C65.8215 14.668 65.6325 14.7647 65.3745 14.9583C65.1164 15.1426 64.8491 15.3684 64.5726 15.6357C64.3053 15.903 64.0841 16.1611 63.909 16.4099L63.7569 16.6311ZM79.9213 25.5623C79.7923 25.5623 79.6725 25.5392 79.5619 25.4931C79.3683 25.4286 79.2301 25.3549 79.1471 25.2719C79.0642 25.1982 79.0227 25.0369 79.0227 24.788C79.0227 24.5023 79.0642 24.0461 79.1471 23.4193C79.3867 21.1612 79.5711 19.7234 79.7001 19.1059L79.1748 19.3685C77.8015 20.069 76.7415 20.4193 75.995 20.4193C75.3959 20.4193 74.9581 20.2027 74.6816 19.7695C74.6355 19.7142 74.6124 19.6358 74.6124 19.5344C74.6124 19.304 74.7553 18.857 75.041 18.1934C75.3267 17.5298 76.0134 16.0136 77.101 13.6449L78.4835 10.6033C79.0089 9.46044 79.3268 8.82448 79.4374 8.69544C79.6771 8.44659 80.0227 8.32216 80.4743 8.32216C80.7785 8.32216 81.055 8.39129 81.3038 8.52954C81.5619 8.65857 81.691 8.83369 81.691 9.0549C81.691 9.11942 81.6863 9.17933 81.6771 9.23463C81.6403 9.34523 81.3914 9.90285 80.9306 10.9075C80.6356 11.5619 79.7692 13.4513 78.3314 16.5758C77.8706 17.562 77.6402 18.069 77.6402 18.0966C77.7047 18.0874 78.1102 17.9169 78.8568 17.5851C79.6033 17.2441 79.9951 17.0505 80.0319 17.0044C80.078 16.9583 80.1333 16.774 80.1978 16.4514C80.3361 15.7601 80.5342 14.9721 80.7923 14.0873C81.0504 13.2025 81.3131 12.3914 81.5804 11.654C81.8476 10.9075 82.0596 10.4144 82.2163 10.1747C82.3454 9.99041 82.5251 9.85215 82.7555 9.75999C82.9951 9.6586 83.2394 9.60791 83.4882 9.60791C83.8846 9.60791 84.2302 9.73234 84.5251 9.98119C84.645 10.0826 84.7049 10.2024 84.7049 10.3406C84.7049 10.4789 84.6403 10.6863 84.5113 10.9628C84.2901 11.4789 84.009 12.29 83.668 13.396C83.3269 14.502 83.0366 15.5389 82.797 16.5067C81.9951 19.8709 81.4605 22.4562 81.1932 24.2627C81.1564 24.53 81.1241 24.7281 81.0965 24.8572C81.0688 24.9954 81.032 25.0968 80.9859 25.1613C80.9398 25.2258 80.8707 25.2904 80.7785 25.3549C80.6955 25.4194 80.5665 25.4701 80.3914 25.507C80.2255 25.5438 80.0688 25.5623 79.9213 25.5623ZM87.4917 24.1244C86.5793 24.1244 85.911 23.7097 85.4871 22.8802C85.2566 22.3824 85.0861 21.6359 84.9755 20.6405C84.8649 19.6358 84.8096 18.539 84.8096 17.3501C84.8096 16.1611 84.8649 14.9859 84.9755 13.8246C85.0861 12.6633 85.2566 11.6725 85.4871 10.8522C85.7451 9.89363 86.2613 9.41435 87.0355 9.41435C87.2106 9.41435 87.3996 9.4374 87.6023 9.48348C87.8143 9.52956 88.0862 9.58487 88.418 9.64938C89.3489 9.81529 90.0586 10.3913 90.5471 11.3775C91.0448 12.3637 91.2937 13.6449 91.2937 15.221C91.2937 16.3085 91.1693 17.5067 90.9204 18.8155C90.5609 20.6405 90.1047 21.9815 89.5517 22.8387C89.0079 23.6958 88.3212 24.1244 87.4917 24.1244ZM87.63 21.1382C87.6669 21.1382 87.7498 20.9354 87.8788 20.5299C88.1461 19.6635 88.3489 18.7556 88.4872 17.8063C88.6254 16.8477 88.6945 15.9307 88.6945 15.0551C88.6945 13.6633 88.5194 12.5112 88.1692 11.5987C88.1047 11.4236 88.0494 11.3361 88.0033 11.3361C87.9572 11.3361 87.9111 11.4789 87.865 11.7646C87.5332 13.5988 87.3673 15.5389 87.3673 17.5851C87.3673 18.857 87.4364 19.9861 87.5747 20.9723C87.5839 21.0829 87.6023 21.1382 87.63 21.1382ZM94.2679 16.5067C94.056 16.5067 93.8394 16.4791 93.6182 16.4238C92.466 16.1104 91.89 15.221 91.89 13.7555C91.89 12.9813 92.0375 12.2531 92.3324 11.5711C92.572 11.0089 92.8532 10.6218 93.1757 10.4098C93.3232 10.3176 93.4615 10.207 93.5905 10.078C93.9223 9.80146 94.3555 9.66321 94.8901 9.66321C95.2864 9.66321 95.6827 9.73234 96.079 9.87059C96.4754 10.0088 96.798 10.2162 97.0468 10.4927C97.3049 10.76 97.4892 11.0596 97.5998 11.3914C97.7196 11.714 97.7796 12.055 97.7796 12.4144C97.7796 13.0596 97.6183 13.7002 97.2957 14.3361C96.9731 14.9629 96.5445 15.4836 96.0099 15.8984C95.4753 16.3039 94.8947 16.5067 94.2679 16.5067ZM94.3647 14.9306C94.4292 14.8661 94.4891 14.8016 94.5444 14.7371C94.5997 14.6726 94.6643 14.5804 94.738 14.4606C95.1528 13.797 95.3601 13.1149 95.3601 12.4144C95.3601 12.0181 95.2864 11.6725 95.1389 11.3775L95.0283 11.1702L94.8763 11.3361C94.655 11.5941 94.4753 11.9628 94.3371 12.4421C94.208 12.9121 94.1435 13.373 94.1435 13.8246C94.1435 14.1656 94.1896 14.4606 94.2818 14.7094L94.3647 14.9306ZM101.028 23.6129C100.761 23.6129 100.489 23.5668 100.213 23.4746C99.7427 23.2995 99.3971 23.0184 99.1759 22.6313C98.9547 22.235 98.8441 21.7972 98.8441 21.3179C98.8441 20.5898 99.0745 19.8939 99.5354 19.2303C100.005 18.5667 100.641 18.198 101.443 18.1243C101.72 18.1058 101.872 18.0828 101.899 18.0551C101.927 18.0183 101.95 17.9722 101.969 17.9169C102.024 17.751 102.121 17.6312 102.259 17.5574C102.406 17.4745 102.568 17.433 102.743 17.433C102.964 17.433 103.185 17.4883 103.406 17.5989C103.628 17.7095 103.807 17.8754 103.946 18.0966C104.25 18.6404 104.402 19.198 104.402 19.7695C104.402 20.4054 104.245 21.0184 103.932 21.6082C103.628 22.1981 103.217 22.682 102.701 23.0599C102.194 23.4286 101.637 23.6129 101.028 23.6129ZM101.222 21.8156C101.268 21.8156 101.337 21.7511 101.429 21.6221C101.632 21.3456 101.817 20.9815 101.982 20.5299C102.158 20.069 102.245 19.7326 102.245 19.5206C102.245 19.4192 102.217 19.3639 102.162 19.3547C102.07 19.3547 101.946 19.4653 101.789 19.6865C101.632 19.8985 101.489 20.1381 101.36 20.4054C101.24 20.6727 101.176 20.8985 101.167 21.0829C101.158 21.258 101.153 21.3962 101.153 21.4976C101.153 21.7096 101.176 21.8156 101.222 21.8156ZM94.2126 24.7051C94.1205 24.7051 94.0283 24.6959 93.9361 24.6774C93.4845 24.5576 93.2587 24.3318 93.2587 24C93.2587 23.7972 93.5306 23.1705 94.0744 22.1198C94.526 21.2718 95.0237 20.3778 95.5675 19.4377C99.9179 11.9812 102.572 8.07791 103.531 7.72767C103.688 7.66316 103.858 7.6309 104.042 7.6309C104.365 7.6309 104.641 7.71846 104.872 7.89358C104.964 7.95809 105.01 8.04105 105.01 8.14243C105.01 8.27147 104.918 8.48806 104.734 8.79222C104.559 9.08716 104.241 9.57565 103.78 10.2577C102.397 12.3499 100.95 14.6403 99.4386 17.1288C97.927 19.6174 96.6689 21.788 95.6643 23.6405C95.5168 23.9078 95.3924 24.1106 95.291 24.2489C95.1988 24.3871 95.0514 24.4977 94.8486 24.5807C94.6458 24.6636 94.4338 24.7051 94.2126 24.7051Z" fill="#FFC700"/>
</svg>
