<svg width="27" height="27" viewBox="0 0 27 27" fill="none" xmlns="http://www.w3.org/2000/svg">
<rect x="0.498535" width="26.2559" height="26.2559" rx="5.70781" fill="#26A07B"/>
<path d="M13.6173 6.0339C15.5573 6.0339 17.4973 6.0339 19.4433 6.0339C19.6164 6.0339 19.6642 6.07568 19.6642 6.25178C19.6642 7.10241 19.6642 7.95006 19.6642 8.7977C19.6642 8.96186 19.6164 8.99766 19.4612 8.99468C18.1151 8.99468 16.775 8.99468 15.42 8.99468C15.2439 8.99468 15.2081 9.04244 15.2111 9.2066C15.223 9.71797 15.223 10.2283 15.2111 10.7377C15.2111 10.8989 15.2439 10.9496 15.417 10.9586C16.8343 11.0053 18.2433 11.1953 19.6224 11.5257C20.0756 11.6309 20.5145 11.7903 20.9297 12.0002C21.0968 12.0828 21.2483 12.194 21.3774 12.3286C21.4265 12.3725 21.4658 12.4263 21.4927 12.4865C21.5196 12.5467 21.5335 12.6118 21.5335 12.6778C21.5335 12.7437 21.5196 12.8088 21.4927 12.869C21.4658 12.9292 21.4265 12.983 21.3774 13.027C21.1248 13.2727 20.8181 13.4557 20.482 13.5612C19.6636 13.8519 18.8159 14.052 17.954 14.1581C17.1018 14.2885 16.2427 14.3683 15.3812 14.3969C15.22 14.3969 15.22 14.4805 15.22 14.5999C15.22 16.5339 15.22 18.4799 15.22 20.402C15.22 20.599 15.1693 20.6408 14.9783 20.6408C14.047 20.6408 13.1128 20.6408 12.1816 20.6408C12.0234 20.6408 11.9936 20.596 11.9936 20.4498C11.9936 18.5336 11.9936 16.6205 11.9936 14.7043C11.9936 14.4059 11.9936 14.4059 11.6951 14.4059C10.3012 14.3443 8.9167 14.1464 7.56138 13.8149C7.04945 13.704 6.55867 13.5115 6.10785 13.2448C5.51092 12.8717 5.51092 12.4569 6.10785 12.0898C6.70955 11.7502 7.36619 11.5188 8.04788 11.4063C9.29119 11.1463 10.5542 10.9916 11.8235 10.9437C11.9697 10.9437 12.0026 10.8959 11.9996 10.7586C11.9996 10.2393 11.9996 9.72294 11.9996 9.2066C11.9996 9.03946 11.9667 8.98275 11.7847 8.98573C10.4416 8.98573 9.09848 8.98573 7.75837 8.98573C7.57631 8.98573 7.54348 8.92903 7.54348 8.76189C7.54348 7.92021 7.54348 7.07853 7.54348 6.23387C7.54348 6.04882 7.60317 6.02197 7.76733 6.02197C9.71929 6.0369 11.6683 6.0339 13.6173 6.0339ZM13.7217 13.9015C14.7401 13.9122 15.7583 13.8684 16.772 13.7701C17.6788 13.6962 18.5775 13.5444 19.4582 13.3165C19.8129 13.2355 20.1525 13.0984 20.4641 12.9105C20.861 12.6509 20.855 12.3763 20.4641 12.1166C20.2705 11.9877 20.0594 11.8871 19.8373 11.8182C18.3652 11.4128 16.8481 11.1932 15.3215 11.1645C15.1812 11.1645 15.2051 11.2421 15.2051 11.3227C15.2051 11.9197 15.2051 12.5345 15.2051 13.1404C15.2051 13.2777 15.1723 13.3344 15.029 13.3403C14.0649 13.3762 13.1009 13.3821 12.1369 13.3403C12.0115 13.3403 11.9817 13.2896 11.9817 13.1702C11.9817 12.5554 11.9817 11.9435 11.9817 11.3317C11.9817 11.1944 11.9429 11.1645 11.8086 11.1675C11.146 11.1974 10.4834 11.2541 9.82375 11.3317C8.98548 11.4154 8.15763 11.5823 7.35246 11.8301C7.11439 11.8965 6.88719 11.997 6.67793 12.1286C6.31678 12.3763 6.31977 12.6449 6.67793 12.8926C6.81755 12.9841 6.96665 13.0601 7.12264 13.1195C7.64955 13.3134 8.19445 13.4544 8.74928 13.5403C10.3928 13.8074 12.0568 13.9282 13.7217 13.9015Z" fill="white"/>
</svg>
